<svg width="112" height="32" viewBox="0 0 112 32" fill="none" xmlns="http://www.w3.org/2000/svg">
<rect width="112" height="32" rx="4" fill="#F3F3F5"/>
<path d="M27.7126 15.2188C27.6904 12.7439 29.7391 11.5399 29.8328 11.4838C28.6725 9.79214 26.8741 9.561 26.2421 9.54257C24.7317 9.38362 23.2665 10.4464 22.4971 10.4464C21.7123 10.4464 20.5275 9.55793 19.2505 9.58404C17.6072 9.60938 16.0699 10.5608 15.2267 12.0382C13.4867 15.0507 14.7844 19.4776 16.4515 21.9125C17.2854 23.1051 18.2599 24.4366 19.5354 24.3898C20.7832 24.3383 21.2493 23.5942 22.7551 23.5942C24.2471 23.5942 24.6848 24.3898 25.9856 24.3598C27.3248 24.3383 28.168 23.1619 28.9727 21.9586C29.9364 20.5918 30.3235 19.2456 30.3388 19.1765C30.3073 19.1658 27.738 18.1852 27.7126 15.2188Z" fill="#2B4059"/>
<path d="M25.2549 7.93971C25.926 7.10041 26.3852 5.95855 26.2577 4.7998C25.2864 4.84281 24.0716 5.47171 23.372 6.29259C22.7531 7.01594 22.2002 8.20156 22.343 9.31654C23.4342 9.39794 24.5546 8.76596 25.2549 7.93971Z" fill="#2B4059"/>
<path d="M41.7145 7.4513C41.7145 8.35511 41.4435 9.03546 40.9021 9.49236C40.4007 9.91393 39.6881 10.1251 38.7651 10.1251C38.3074 10.1251 37.9158 10.1051 37.5879 10.0652V5.12689C38.0156 5.05778 38.4763 5.02246 38.9739 5.02246C39.8532 5.02246 40.5159 5.21367 40.9628 5.59608C41.4634 6.0284 41.7145 6.64655 41.7145 7.4513ZM40.866 7.47357C40.866 6.88767 40.7109 6.43845 40.4007 6.12515C40.0904 5.81262 39.6374 5.65597 39.0407 5.65597C38.7873 5.65597 38.5716 5.67286 38.3926 5.70819V9.46241C38.4917 9.47777 38.6729 9.48468 38.9363 9.48468C39.5522 9.48468 40.0275 9.31344 40.3623 8.97096C40.6971 8.62848 40.866 8.12935 40.866 7.47357Z" fill="#2B4059"/>
<path d="M46.2133 8.24138C46.2133 8.79811 46.0544 9.25423 45.7365 9.61207C45.4032 9.97989 44.9617 10.1634 44.4103 10.1634C43.8789 10.1634 43.4558 9.98757 43.1402 9.63434C42.8254 9.28188 42.668 8.83727 42.668 8.30128C42.668 7.74072 42.83 7.28075 43.1556 6.92368C43.4812 6.56661 43.9189 6.3877 44.4702 6.3877C45.0016 6.3877 45.4285 6.56354 45.7518 6.916C46.059 7.25848 46.2133 7.70079 46.2133 8.24138ZM45.3786 8.26749C45.3786 7.93346 45.3064 7.64704 45.1628 7.40822C44.9939 7.1195 44.7536 6.97513 44.441 6.97513C44.1177 6.97513 43.872 7.1195 43.7031 7.40822C43.5587 7.64704 43.4873 7.93807 43.4873 8.28208C43.4873 8.61612 43.5595 8.90254 43.7031 9.14135C43.8774 9.43008 44.1201 9.57444 44.4334 9.57444C44.7405 9.57444 44.9816 9.42778 45.1552 9.13368C45.3041 8.89025 45.3786 8.60153 45.3786 8.26749Z" fill="#2B4059"/>
<path d="M52.2447 6.46094L51.1121 10.0808H50.3749L49.9057 8.5089C49.7867 8.11651 49.6899 7.72642 49.6147 7.33941H49.6001C49.5302 7.73717 49.4334 8.12649 49.309 8.5089L48.8107 10.0808H48.0651L47 6.46094H47.827L48.2363 8.18178C48.3354 8.58876 48.4168 8.97655 48.482 9.3436H48.4966C48.5565 9.04105 48.6556 8.65557 48.7953 8.18946L49.309 6.46171H49.9648L50.457 8.1526C50.5761 8.56496 50.6728 8.96196 50.7473 9.34437H50.7696C50.8241 8.97194 50.9063 8.57494 51.0153 8.1526L51.4545 6.46171H52.2447V6.46094Z" fill="#2B4059"/>
<path d="M56.419 10.0806H55.6143V8.00732C55.6143 7.36843 55.3716 7.04899 54.8848 7.04899C54.646 7.04899 54.4532 7.13653 54.3035 7.31238C54.1553 7.48823 54.08 7.69556 54.08 7.93283V10.0799H53.2753V7.49514C53.2753 7.17723 53.2653 6.83245 53.2461 6.45925H53.9533L53.9909 7.02519H54.0132C54.1069 6.84934 54.2467 6.70421 54.4302 6.58826C54.6483 6.45311 54.8924 6.38477 55.1597 6.38477C55.4975 6.38477 55.7786 6.49381 56.0021 6.71266C56.28 6.98065 56.419 7.38072 56.419 7.9121V10.0806Z" fill="#2B4059"/>
<path d="M58.636 10.0806H57.832V4.7998H58.636V10.0806Z" fill="#2B4059"/>
<path d="M63.3754 8.24138C63.3754 8.79811 63.2165 9.25423 62.8986 9.61207C62.5653 9.97989 62.123 10.1634 61.5724 10.1634C61.0403 10.1634 60.6172 9.98757 60.3023 9.63434C59.9875 9.28188 59.8301 8.83727 59.8301 8.30128C59.8301 7.74072 59.9921 7.28075 60.3177 6.92368C60.6433 6.56661 61.081 6.3877 61.6316 6.3877C62.1637 6.3877 62.5899 6.56354 62.9139 6.916C63.2211 7.25848 63.3754 7.70079 63.3754 8.24138ZM62.54 8.26749C62.54 7.93346 62.4678 7.64704 62.3242 7.40822C62.156 7.1195 61.9149 6.97513 61.6031 6.97513C61.2791 6.97513 61.0334 7.1195 60.8652 7.40822C60.7208 7.64704 60.6494 7.93807 60.6494 8.28208C60.6494 8.61612 60.7216 8.90254 60.8652 9.14135C61.0395 9.43008 61.2822 9.57444 61.5955 9.57444C61.9026 9.57444 62.143 9.42778 62.3165 9.13368C62.4663 8.89025 62.54 8.60153 62.54 8.26749Z" fill="#2B4059"/>
<path d="M67.2686 10.0813H66.546L66.4861 9.66429H66.4639C66.2166 9.99679 65.8641 10.1634 65.4065 10.1634C65.0648 10.1634 64.7883 10.0536 64.5802 9.83553C64.3913 9.63741 64.2969 9.39092 64.2969 9.09835C64.2969 8.65605 64.4812 8.31894 64.8521 8.0855C65.2222 7.85206 65.7428 7.73765 66.4132 7.74302V7.67545C66.4132 7.19859 66.1628 6.96054 65.6614 6.96054C65.3043 6.96054 64.9895 7.05039 64.7177 7.22854L64.5541 6.70023C64.8905 6.49213 65.3059 6.3877 65.7958 6.3877C66.7418 6.3877 67.2164 6.88682 67.2164 7.88508V9.21814C67.2164 9.57982 67.2341 9.86778 67.2686 10.0813ZM66.4331 8.83727V8.27901C65.5455 8.26365 65.1016 8.50708 65.1016 9.00851C65.1016 9.19741 65.1523 9.3387 65.256 9.43315C65.3596 9.5276 65.4917 9.57444 65.6491 9.57444C65.8257 9.57444 65.9908 9.51839 66.1413 9.40704C66.2926 9.29493 66.3855 9.15287 66.4201 8.97856C66.4285 8.9394 66.4331 8.89179 66.4331 8.83727Z" fill="#2B4059"/>
<path d="M71.8422 10.0806H71.1281L71.0905 9.4993H71.0682C70.8401 9.9416 70.4516 10.1628 69.9056 10.1628C69.4694 10.1628 69.1062 9.99152 68.8183 9.64904C68.5303 9.30656 68.3867 8.86195 68.3867 8.31598C68.3867 7.73008 68.5426 7.25552 68.8559 6.89308C69.1592 6.5552 69.5309 6.38627 69.9732 6.38627C70.4593 6.38627 70.7994 6.54983 70.993 6.87772H71.0083V4.7998H71.8138V9.10537C71.8138 9.45783 71.823 9.78265 71.8422 10.0806ZM71.0083 8.55402V7.95046C71.0083 7.84603 71.0006 7.76156 70.986 7.69706C70.9407 7.50355 70.8432 7.34076 70.695 7.20945C70.5453 7.07814 70.3648 7.0121 70.1567 7.0121C69.8565 7.0121 69.6215 7.13112 69.4487 7.36994C69.2775 7.60875 69.1907 7.9136 69.1907 8.28603C69.1907 8.64387 69.2729 8.93413 69.438 9.15759C69.6123 9.39563 69.8473 9.51466 70.1414 9.51466C70.4055 9.51466 70.6167 9.4156 70.7772 9.21671C70.9323 9.03319 71.0083 8.81204 71.0083 8.55402Z" fill="#2B4059"/>
<path d="M78.725 8.24138C78.725 8.79811 78.5661 9.25423 78.2482 9.61207C77.9149 9.97989 77.4741 10.1634 76.922 10.1634C76.3914 10.1634 75.9683 9.98757 75.6519 9.63434C75.3371 9.28188 75.1797 8.83727 75.1797 8.30128C75.1797 7.74072 75.3417 7.28075 75.6673 6.92368C75.9929 6.56661 76.4306 6.3877 76.9827 6.3877C77.5133 6.3877 77.941 6.56354 78.2635 6.916C78.5707 7.25848 78.725 7.70079 78.725 8.24138ZM77.8911 8.26749C77.8911 7.93346 77.8189 7.64704 77.6753 7.40822C77.5056 7.1195 77.2661 6.97513 76.9528 6.97513C76.6302 6.97513 76.3845 7.1195 76.2148 7.40822C76.0704 7.64704 75.999 7.93807 75.999 8.28208C75.999 8.61612 76.0712 8.90254 76.2148 9.14135C76.3891 9.43008 76.6318 9.57444 76.9451 9.57444C77.2522 9.57444 77.4941 9.42778 77.6677 9.13368C77.8159 8.89025 77.8911 8.60153 77.8911 8.26749Z" fill="#2B4059"/>
<path d="M83.0511 10.0806H82.2471V8.00732C82.2471 7.36843 82.0044 7.04899 81.5168 7.04899C81.278 7.04899 81.0853 7.13653 80.9363 7.31238C80.7873 7.48823 80.7128 7.69556 80.7128 7.93283V10.0799H79.9073V7.49514C79.9073 7.17723 79.8981 6.83245 79.8789 6.45925H80.5854L80.623 7.02519H80.6453C80.7397 6.84934 80.8795 6.70421 81.0622 6.58826C81.2811 6.45311 81.5245 6.38477 81.7925 6.38477C82.1296 6.38477 82.4106 6.49381 82.6341 6.71266C82.9128 6.98065 83.0511 7.38072 83.0511 7.9121V10.0806Z" fill="#2B4059"/>
<path d="M88.4703 7.06387H87.5841V8.82234C87.5841 9.26925 87.7415 9.49271 88.0533 9.49271C88.1976 9.49271 88.3174 9.48042 88.4119 9.45508L88.4326 10.0656C88.2737 10.1255 88.0648 10.1554 87.8076 10.1554C87.4896 10.1554 87.2424 10.0586 87.0635 9.86514C86.8838 9.67163 86.7947 9.34604 86.7947 8.88915V7.06387H86.2656V6.46107H86.7947V5.79762L87.5833 5.55957V6.46031H88.4695V7.06387H88.4703Z" fill="#2B4059"/>
<path d="M92.7297 10.0806H91.9242V8.02264C91.9242 7.37378 91.6815 7.04896 91.1954 7.04896C90.8222 7.04896 90.5673 7.23709 90.4275 7.61336C90.4037 7.69245 90.3899 7.7892 90.3899 7.90285V10.0798H89.5859V4.7998H90.3899V6.98138H90.4053C90.6587 6.58438 91.0219 6.38627 91.4926 6.38627C91.8259 6.38627 92.1015 6.49531 92.3204 6.71416C92.593 6.98676 92.7297 7.3922 92.7297 7.92819V10.0806Z" fill="#2B4059"/>
<path d="M97.1245 8.10017C97.1245 8.24453 97.1137 8.36586 97.0945 8.46492H94.6811C94.6918 8.82275 94.807 9.09536 95.0304 9.28426C95.2347 9.45319 95.4981 9.53766 95.8206 9.53766C96.1777 9.53766 96.5033 9.48084 96.7966 9.36642L96.9225 9.92545C96.5793 10.0744 96.1754 10.1489 95.7077 10.1489C95.1472 10.1489 94.7056 9.98381 94.3862 9.65361C94.0652 9.32342 93.9062 8.88035 93.9062 8.32439C93.9062 7.77842 94.0545 7.32383 94.3532 6.96138C94.6649 6.57437 95.0865 6.38086 95.6186 6.38086C96.1393 6.38086 96.5347 6.57437 96.802 6.96138C97.0177 7.26854 97.1245 7.64865 97.1245 8.10017ZM96.3566 7.89207C96.3627 7.65325 96.3097 7.44746 96.2007 7.27392C96.061 7.05046 95.8482 6.93835 95.5603 6.93835C95.2977 6.93835 95.0834 7.04739 94.9199 7.26624C94.7863 7.44055 94.7072 7.64865 94.6811 7.89207H96.3566Z" fill="#2B4059"/>
<path d="M45.3655 23.7318H43.6217L42.6664 20.7301H39.346L38.4361 23.7318H36.7383L40.0279 13.5127H42.0598L45.3655 23.7318ZM42.3784 19.4708L41.5146 16.8023C41.4232 16.5297 41.2519 15.8878 40.9993 14.8772H40.9686C40.868 15.3119 40.706 15.9538 40.4833 16.8023L39.6348 19.4708H42.3784Z" fill="#2B4059"/>
<path d="M53.8246 19.9569C53.8246 21.2101 53.486 22.2007 52.8087 22.9279C52.202 23.5752 51.4487 23.8985 50.5495 23.8985C49.5789 23.8985 48.8817 23.5499 48.457 22.8526H48.4263V26.7343H46.7892V18.789C46.7892 18.0011 46.7684 17.1925 46.7285 16.3632H48.1683L48.2597 17.5312H48.2904C48.8364 16.6511 49.6649 16.2119 50.7768 16.2119C51.6461 16.2119 52.3717 16.5552 52.9523 17.2424C53.5343 17.9305 53.8246 18.835 53.8246 19.9569ZM52.1567 20.0168C52.1567 19.2996 51.9955 18.7083 51.6714 18.243C51.3174 17.7577 50.8421 17.515 50.2462 17.515C49.8423 17.515 49.4753 17.6502 49.1474 17.9166C48.8187 18.1854 48.6037 18.5363 48.5031 18.9709C48.4524 19.1737 48.4271 19.3395 48.4271 19.4701V20.6987C48.4271 21.2347 48.5914 21.687 48.9201 22.0563C49.2487 22.4257 49.6757 22.61 50.2009 22.61C50.8175 22.61 51.2975 22.3719 51.6407 21.8974C51.9847 21.4221 52.1567 20.7955 52.1567 20.0168Z" fill="#2B4059"/>
<path d="M62.3004 19.9569C62.3004 21.2101 61.9618 22.2007 61.2837 22.9279C60.6778 23.5752 59.9245 23.8985 59.0253 23.8985C58.0547 23.8985 57.3575 23.5499 56.9336 22.8526H56.9029V26.7343H55.2657V18.789C55.2657 18.0011 55.245 17.1925 55.2051 16.3632H56.6449L56.7363 17.5312H56.767C57.3122 16.6511 58.1407 16.2119 59.2534 16.2119C60.1219 16.2119 60.8475 16.5552 61.4296 17.2424C62.0094 17.9305 62.3004 18.835 62.3004 19.9569ZM60.6325 20.0168C60.6325 19.2996 60.4705 18.7083 60.1465 18.243C59.7925 17.7577 59.3187 17.515 58.722 17.515C58.3173 17.515 57.9511 17.6502 57.6224 17.9166C57.2937 18.1854 57.0795 18.5363 56.9789 18.9709C56.929 19.1737 56.9029 19.3395 56.9029 19.4701V20.6987C56.9029 21.2347 57.0672 21.687 57.3943 22.0563C57.723 22.4249 58.1499 22.61 58.6767 22.61C59.2933 22.61 59.7733 22.3719 60.1165 21.8974C60.4605 21.4221 60.6325 20.7955 60.6325 20.0168Z" fill="#2B4059"/>
<path d="M71.7772 20.8663C71.7772 21.7356 71.4754 22.4428 70.8696 22.9888C70.2038 23.5855 69.277 23.8834 68.086 23.8834C66.9863 23.8834 66.1048 23.6715 65.4375 23.2468L65.8168 21.8823C66.5356 22.3169 67.3242 22.535 68.1835 22.535C68.8001 22.535 69.28 22.3952 69.6248 22.1172C69.9681 21.8393 70.1393 21.4661 70.1393 21.0007C70.1393 20.5861 69.998 20.2367 69.7147 19.9533C69.4328 19.67 68.9621 19.4066 68.3048 19.1632C66.5156 18.4959 65.6218 17.5183 65.6218 16.2329C65.6218 15.3928 65.9351 14.704 66.5625 14.168C67.1875 13.6313 68.0215 13.3633 69.0643 13.3633C69.9942 13.3633 70.7667 13.5253 71.3833 13.8486L70.974 15.1832C70.3981 14.8699 69.7469 14.7132 69.0182 14.7132C68.4423 14.7132 67.9923 14.8553 67.6698 15.1379C67.3972 15.3905 67.2605 15.6984 67.2605 16.0632C67.2605 16.4671 67.4164 16.8011 67.7297 17.0638C68.0023 17.3064 68.4976 17.569 69.2163 17.8524C70.0955 18.2064 70.7413 18.6203 71.1568 19.0948C71.5707 19.5678 71.7772 20.1599 71.7772 20.8663Z" fill="#2B4059"/>
<path d="M77.1868 17.592H75.3822V21.1696C75.3822 22.0796 75.7001 22.5341 76.3375 22.5341C76.6301 22.5341 76.8727 22.5088 77.0647 22.4581L77.11 23.7013C76.7875 23.8219 76.3628 23.8826 75.8368 23.8826C75.1903 23.8826 74.685 23.6852 74.3202 23.2913C73.957 22.8966 73.7743 22.2347 73.7743 21.3048V17.5905H72.6992V16.3618H73.7743V15.0127L75.3822 14.5273V16.3618H77.1868V17.592Z" fill="#2B4059"/>
<path d="M85.3307 19.9881C85.3307 21.1207 85.0066 22.0506 84.3601 22.7778C83.682 23.5265 82.7821 23.8997 81.6602 23.8997C80.579 23.8997 79.7182 23.5411 79.0762 22.8239C78.4343 22.1067 78.1133 21.2013 78.1133 20.1101C78.1133 18.9683 78.4435 18.033 79.1062 17.3058C79.7673 16.5778 80.6596 16.2139 81.7815 16.2139C82.8627 16.2139 83.7327 16.5725 84.3893 17.2905C85.0174 17.9869 85.3307 18.8861 85.3307 19.9881ZM83.6321 20.041C83.6321 19.3615 83.487 18.7786 83.1929 18.2925C82.8496 17.7043 82.359 17.411 81.7231 17.411C81.0651 17.411 80.5652 17.7051 80.2219 18.2925C79.9278 18.7794 79.7827 19.3714 79.7827 20.0718C79.7827 20.7513 79.9278 21.3342 80.2219 21.8195C80.5759 22.4077 81.0704 22.701 81.7085 22.701C82.3336 22.701 82.8243 22.4015 83.1783 21.8041C83.4801 21.3088 83.6321 20.7199 83.6321 20.041Z" fill="#2B4059"/>
<path d="M90.6533 17.803C90.4913 17.773 90.3185 17.7577 90.1373 17.7577C89.5614 17.7577 89.116 17.975 88.8027 18.4104C88.5301 18.7943 88.3934 19.2796 88.3934 19.8655V23.7319H86.757L86.7724 18.6838C86.7724 17.8345 86.7516 17.0612 86.7109 16.364H88.1369L88.1968 17.7738H88.2421C88.4149 17.2893 88.6875 16.8992 89.0607 16.6066C89.4254 16.3432 89.8194 16.2119 90.244 16.2119C90.3953 16.2119 90.532 16.2227 90.6533 16.2419V17.803Z" fill="#2B4059"/>
<path d="M97.9744 19.6991C97.9744 19.9924 97.9552 20.2397 97.9145 20.4416H93.003C93.0222 21.1696 93.2595 21.7263 93.7156 22.1102C94.1295 22.4535 94.6648 22.6255 95.3221 22.6255C96.0493 22.6255 96.7127 22.5095 97.3094 22.2769L97.5658 23.4133C96.8686 23.7174 96.0454 23.8687 95.0955 23.8687C93.9529 23.8687 93.056 23.5324 92.4033 22.8605C91.7521 22.1886 91.4258 21.2863 91.4258 20.1544C91.4258 19.0433 91.7291 18.118 92.3365 17.38C92.9723 16.5922 93.8316 16.1982 94.9128 16.1982C95.9748 16.1982 96.7788 16.5922 97.3247 17.38C97.757 18.0059 97.9744 18.7799 97.9744 19.6991ZM96.4132 19.2744C96.424 18.7891 96.3173 18.3698 96.0953 18.0158C95.812 17.5605 95.3766 17.3332 94.7907 17.3332C94.2555 17.3332 93.8201 17.5551 93.4876 18.0005C93.215 18.3545 93.0529 18.7791 93.003 19.2736H96.4132V19.2744Z" fill="#2B4059"/>
</svg>
