<svg width="42" height="32" viewBox="0 0 42 32" fill="none" xmlns="http://www.w3.org/2000/svg">
<g filter="url(#filter0_d_2454_35987)">
<rect x="4" y="3" width="34" height="24" rx="3" fill="#D8D8D8"/>
<mask id="mask0_2454_35987" style="mask-type:alpha" maskUnits="userSpaceOnUse" x="4" y="3" width="34" height="24">
<rect x="4" y="3" width="34" height="24" rx="3" fill="white"/>
</mask>
<g mask="url(#mask0_2454_35987)">
<path fill-rule="evenodd" clip-rule="evenodd" d="M1 26.9779H42.084V3.00003H1V26.9779Z" fill="#231E5F"/>
<path fill-rule="evenodd" clip-rule="evenodd" d="M1 13.3997H21.8017V3.00003H1V13.3997Z" fill="#231E5F"/>
<path fill-rule="evenodd" clip-rule="evenodd" d="M22.4089 3L14.4219 7.05531L16.6932 8.20102L14.4219 9.31621L22.4089 13.3996H24.8014V12.2343L16.6932 8.20102L24.8014 4.19626V3H22.4089ZM4 3V4.19626L12.0609 8.20102L4 12.2343V13.3996H6.33637L14.4221 9.31621L12.0609 8.20102L14.4221 7.05531L6.33637 3H4Z" fill="white"/>
<path fill-rule="evenodd" clip-rule="evenodd" d="M12.6815 3V6.45877H4V9.96854H12.6815V13.3996H16.1194V9.96854H24.8017V6.45877H16.1194V3H12.6815Z" fill="white"/>
<path fill-rule="evenodd" clip-rule="evenodd" d="M13.331 3V7.16009H4V9.24191H13.331V13.3996H15.445V9.24191H24.8017V7.16009H15.445V3H13.331Z" fill="#B92025"/>
<path fill-rule="evenodd" clip-rule="evenodd" d="M23.2431 3L16.3047 6.45877H17.8639L24.8031 3H23.2431ZM4 3V3.80769L9.40898 6.45877H10.969L4 3ZM17.8633 9.96854L24.8025 13.3996V12.618L19.3968 9.96854H17.8633ZM10.969 9.96854L4 13.3996H5.58406L12.4784 9.96854H10.969Z" fill="#B92025"/>
<path fill-rule="evenodd" clip-rule="evenodd" d="M28.8363 20.5762C28.76 20.6296 28.6074 21.021 28.6074 21.021C28.6074 21.021 29.1213 21.4092 29.542 21.5666C30.0052 21.6938 30.6596 21.7464 30.6596 21.7464C30.6596 21.7464 29.7467 21.3301 29.4874 21.1755C29.2538 20.9668 28.8363 20.5762 28.8363 20.5762ZM33.0998 20.5762C33.1302 20.6777 33.3888 21.021 33.3888 21.021C33.343 21.021 32.6582 21.4569 32.3779 21.5665C32.0633 21.6448 31.2098 21.8002 31.286 21.772C31.3327 21.772 32.0633 21.3578 32.3435 21.1755C32.7136 20.9668 33.0998 20.5762 33.0998 20.5762ZM29.6916 11.9971C29.5936 11.9971 29.5422 12.0962 29.4627 12.0472C29.3856 12.0191 29.2291 11.7097 28.9962 11.7353C28.7899 11.8136 28.6791 11.8674 28.6076 11.8674C28.5274 11.8674 28.2624 11.9686 28.2624 12.1516C28.2624 12.36 28.2624 12.4868 28.37 12.4868C28.4198 12.4868 28.4704 12.3856 28.4704 12.3856C28.4704 12.3856 28.4704 12.6189 28.6076 12.6189C28.7602 12.6189 29.0452 12.6189 29.0822 12.72C29.1006 12.7762 28.9184 12.9573 28.9698 13.0866C29.0148 13.2182 29.2291 13.5024 29.2291 13.5024C29.2291 13.5024 28.9184 13.7132 28.9184 13.8152C28.9184 13.9448 28.9698 14.0484 28.9698 14.0484L27.775 14.1018C27.775 14.1018 27.6932 17.638 27.7237 17.897C27.775 18.1841 27.8779 18.8335 27.8779 18.8335C27.8779 18.8335 27.6137 18.7549 27.409 18.9656C27.1449 19.1992 26.3637 19.5875 26.3371 19.7685C26.3371 19.9287 26.293 20.0556 26.3371 20.2105C26.4238 20.3168 26.708 20.6778 26.6269 20.6778C26.3371 20.5762 26.2609 20.2105 26.0834 20.0556C25.8955 19.9287 25.5294 19.9544 25.4837 20.1085C25.4291 20.2378 25.4596 20.5228 25.4837 20.5228C25.5294 20.5762 25.7422 21.4092 25.8192 21.5666C25.8755 21.7464 26.5009 22.0057 26.7851 21.9808C27.3029 21.9808 27.6137 21.7464 27.6137 21.772C27.6137 21.772 28.7602 22.9684 31.0966 22.9684C32.9464 22.9965 34.3538 21.8002 34.3538 21.8002C34.3538 21.8483 35.0796 22.0587 35.3944 21.9808C35.5975 21.9294 36.0391 21.7464 36.0648 21.5666C36.1715 21.4092 36.3747 20.5228 36.3747 20.3674C36.4317 20.2105 36.3747 20.0298 36.2534 19.976C36.0648 19.9287 35.9387 19.9544 35.8873 20.0046C35.7308 20.0556 35.7308 20.1876 35.5726 20.4188C35.4723 20.5228 35.2619 20.6778 35.3349 20.6778C35.4209 20.5762 35.5213 20.2105 35.5213 20.1085C35.5726 19.976 35.5975 19.7685 35.4723 19.6412C35.3349 19.5116 35.1005 19.4582 34.842 19.2506C34.6373 19.0933 34.4759 18.8335 34.2985 18.8335C34.1194 18.8335 33.962 18.7801 33.9877 18.7801C33.9877 18.7801 34.1708 18.445 34.1194 18.0516C34.1194 17.6883 34.1443 14.1018 34.1443 14.1018L33.1294 14.1532C33.1294 14.0761 33.2057 13.7365 33.1294 13.5534C33.054 13.2969 32.7128 13.1391 32.8493 13.0866C32.9215 13.0637 33.3422 12.9083 33.3422 12.72C33.3182 12.543 33.0323 12.5655 32.9215 12.4868C32.8132 12.439 32.3771 12.0962 32.3771 12.0962C32.3218 12.0962 33.4394 11.3692 33.3422 11.3692C33.2812 11.3692 32.8493 11.2677 32.7128 11.3162C32.7128 11.2142 33.2812 10.8534 33.1808 10.8257C33.099 10.745 32.6108 10.696 32.7128 10.696C32.8701 10.6687 32.9215 10.3841 32.8701 10.3841L32.3427 10.4343L32.1901 10.2524C32.1387 10.2524 31.9596 10.3841 31.9596 10.3841L31.8738 10.0714L31.6474 10.201L31.539 10.097C31.539 10.097 31.3808 10.1508 31.3808 10.097L31.3318 9.96497C31.2852 9.96497 31.0468 10.1508 31.0468 10.1508C31.0211 10.1196 30.7827 9.80963 30.7827 9.80963C30.7827 9.83815 30.6357 10.4343 30.6357 10.4343H30.4728L29.6916 9.96497L29.9083 10.4343L29.7469 10.5419L29.7959 10.745L29.2291 10.5639L29.3856 10.9806L29.0148 11.0087C29.0452 11.0087 29.2291 11.3162 29.2291 11.3162L29.1215 11.5266L29.6916 11.9971Z" fill="white"/>
<path fill-rule="evenodd" clip-rule="evenodd" d="M29.2539 11.3692C29.2539 11.3692 29.5935 11.6584 29.6914 11.7381C29.7958 11.817 30.0551 12.0779 30.0856 12.0524C30.1113 12.0524 30.2133 11.9221 30.2133 11.9221C30.2133 11.9221 29.954 11.6325 29.7468 11.5536C29.5421 11.5019 29.2539 11.4234 29.2539 11.3692Z" fill="#F1C326"/>
<path fill-rule="evenodd" clip-rule="evenodd" d="M29.3867 11.5548C29.5152 11.6569 29.6926 11.7555 29.748 11.8245C29.748 11.8245 29.8275 11.9588 29.8789 12.0283C29.9552 12.1231 30.0371 12.1957 30.0868 12.2605C30.1125 12.1957 30.1944 12.0936 30.2145 12.0283C30.1687 12.0283 29.9094 11.7555 29.748 11.6569C29.6453 11.6212 29.5433 11.588 29.4638 11.5548H29.3867ZM30.0871 12.3162C30.0871 12.3162 30.0068 12.2534 29.86 12.0877C29.7973 11.9539 29.7483 11.9539 29.6929 11.8535C29.595 11.7851 29.3356 11.553 29.2554 11.4531H29.2305V11.3842V11.3162L29.31 11.3842C29.31 11.3842 29.387 11.4531 29.489 11.5216C29.5685 11.553 29.6929 11.553 29.7973 11.5859C29.9555 11.6873 30.2413 12.0229 30.2413 12.0229C30.2148 12.1526 30.1128 12.2858 30.0871 12.3162Z" fill="#6C6666"/>
<path fill-rule="evenodd" clip-rule="evenodd" d="M29.2305 11.1103C29.2305 11.1103 29.7973 11.5009 30.0069 11.6562C30.169 11.8136 30.2148 12.0472 30.2148 12.0472C30.2719 12.0472 30.5303 11.9971 30.5046 11.9971C30.5046 11.9971 30.397 11.5523 30.169 11.3692C29.8792 11.2419 29.2305 11.1103 29.2305 11.1103Z" fill="#F1C326"/>
<path fill-rule="evenodd" clip-rule="evenodd" d="M29.3867 11.163C29.5682 11.3203 29.8789 11.5079 30.0065 11.6395C30.1382 11.7459 30.1687 11.88 30.2145 12.0117C30.2145 12.0117 30.241 12.0117 30.2716 12.0341C30.2716 12.0341 30.4233 12.0117 30.4739 12.0117V11.9828C30.4529 11.88 30.3157 11.534 30.1382 11.4288C29.9817 11.3203 29.5947 11.2449 29.3867 11.163ZM30.2413 12.0878C30.2413 12.0878 30.2148 12.0621 30.169 12.0112C30.169 11.9308 30.0871 11.8249 29.982 11.6651C29.7973 11.5073 29.2554 11.1624 29.2305 11.1363V11.0878V11.1106V11.0878C29.2554 11.0878 29.9097 11.2443 30.169 11.3736C30.3457 11.5073 30.4742 11.8249 30.5303 11.9822V12.0112C30.5303 12.0112 30.5303 12.0336 30.5046 12.0336C30.4236 12.0621 30.2413 12.0878 30.2413 12.0878Z" fill="#6C6666"/>
<path fill-rule="evenodd" clip-rule="evenodd" d="M31.874 10.201C31.874 10.201 31.7584 10.5896 31.7215 10.696C31.6966 10.8257 31.6476 11.0601 31.6476 11.0601C31.6476 11.0601 31.1547 11.0878 31.2093 11.0316C31.2093 10.9806 31.9053 10.201 31.9053 10.201H31.874Z" fill="#F1C326"/>
<path fill-rule="evenodd" clip-rule="evenodd" d="M31.3364 11.1448C31.3364 11.1448 31.7684 11.1188 31.8398 11.1188C31.7684 11.1188 31.8744 10.9108 31.9079 10.7634C31.9425 10.7033 31.9938 10.5244 32.0206 10.409C31.9938 10.466 31.8398 10.5883 31.7684 10.7033C31.5898 10.8825 31.3364 11.1188 31.2305 11.1448H31.3364ZM31.401 11.201C31.2302 11.201 31.2302 11.201 31.1543 11.1698C31.2302 11.1118 31.401 10.9367 31.6889 10.6393C31.8742 10.464 32.0203 10.3183 32.0919 10.201H32.1543V10.2323C32.1276 10.3183 32.0203 10.6705 31.9936 10.7882C31.9423 10.9367 31.8742 11.1698 31.8742 11.1698C31.8742 11.1698 31.6252 11.201 31.401 11.201Z" fill="#6C6666"/>
<path fill-rule="evenodd" clip-rule="evenodd" d="M29.3086 10.6687C29.3086 10.6687 29.8586 11.1103 30.036 11.3162C30.2134 11.6057 30.3957 12.0472 30.3957 12.0472C30.4222 12.0472 30.895 11.9408 30.895 11.9408C30.895 11.9686 30.3146 11.2143 30.0552 11.0087C29.7959 10.8257 29.3086 10.696 29.3086 10.6687Z" fill="#F1C326"/>
<path fill-rule="evenodd" clip-rule="evenodd" d="M29.4102 10.7462C29.5924 10.8774 29.928 11.1624 30.054 11.3174C30.1665 11.5278 30.2885 11.8148 30.376 11.9697C30.376 11.9697 30.3945 11.9982 30.421 12.0203C30.421 12.0203 30.4507 11.9982 30.502 11.9982C30.6346 11.9697 30.7606 11.942 30.7606 11.942L30.7815 11.9192V11.8148C30.6346 11.6574 30.2387 11.1624 30.054 11.0328C29.8766 10.9031 29.5924 10.8269 29.4102 10.7462ZM30.3956 12.0725C30.3956 12.0725 30.3771 12.0725 30.3145 11.9685C30.2704 11.8136 30.1675 11.5523 30.0054 11.3692C29.8585 11.1356 29.3599 10.745 29.3085 10.696H29.278L29.2539 10.5896L29.3342 10.6687H29.3085H29.3342C29.3342 10.6687 29.3855 10.696 29.4112 10.696C29.5935 10.745 29.8777 10.8534 30.0856 11.0087C30.2704 11.1613 30.6357 11.6057 30.7826 11.8136C30.8629 11.8674 30.8949 11.918 30.919 11.918L30.9399 11.997L30.8949 11.9685C30.8187 11.9685 30.6357 12.0191 30.5288 12.0472L30.3956 12.0725Z" fill="#6C6666"/>
<path fill-rule="evenodd" clip-rule="evenodd" d="M29.8789 10.5418C29.8789 10.5418 30.1687 11.0601 30.1687 11.2143C30.2145 11.3692 30.3783 11.8674 30.3783 11.8674H30.7838C30.7838 11.8674 30.6007 11.3162 30.3454 11.0087C30.1687 10.745 29.8789 10.5896 29.8789 10.5418Z" fill="#F1C326"/>
<path fill-rule="evenodd" clip-rule="evenodd" d="M29.9629 10.6697C30.0515 10.8267 30.194 11.0888 30.2435 11.1879C30.3053 11.3702 30.4407 11.8146 30.4407 11.8146H30.8369C30.7821 11.7106 30.5849 11.2429 30.3851 11.0097C30.2435 10.8543 30.0723 10.7459 29.9629 10.6697ZM30.8594 11.8674H30.4206C30.385 11.8674 30.2433 11.3692 30.1938 11.2143C30.1608 11.0601 29.8802 10.6173 29.8594 10.5639L29.8802 10.5418C29.8802 10.5418 29.9358 10.5639 29.9627 10.5896C30.0721 10.6687 30.2433 10.8257 30.4406 11.0087C30.7004 11.2677 30.8594 11.8136 30.8594 11.8136V11.8674Z" fill="#6C6666"/>
<path fill-rule="evenodd" clip-rule="evenodd" d="M30.0059 10.305C30.0059 10.305 30.396 10.745 30.4732 11.0316C30.555 11.3162 30.6361 11.6819 30.6361 11.6819L31.0014 11.58C31.0014 11.58 30.6602 10.8534 30.4732 10.643C30.2709 10.4627 30.0364 10.305 30.0364 10.305H30.0059Z" fill="#F1C326"/>
<path fill-rule="evenodd" clip-rule="evenodd" d="M30.1367 10.3851C30.2134 10.5428 30.4529 10.8543 30.5045 11.0097C30.5804 11.2686 30.6376 11.5533 30.6376 11.6572L31.0045 11.5533C30.9432 11.5276 30.6376 10.8543 30.4529 10.6697C30.3448 10.5428 30.2134 10.4637 30.1367 10.3851ZM30.6389 11.7353V11.6819C30.6389 11.6819 30.5317 11.3162 30.4542 11.0316C30.3978 10.8534 30.1688 10.5639 30.0865 10.4122L30.0059 10.305L30.0365 10.2524C30.0365 10.2524 30.0865 10.305 30.1123 10.305C30.1688 10.3841 30.3462 10.4856 30.5058 10.643C30.6889 10.8534 31.0059 11.5266 31.0059 11.58L30.6389 11.7353Z" fill="#6C6666"/>
<path fill-rule="evenodd" clip-rule="evenodd" d="M33.0537 11.4764C33.0537 11.4764 32.3006 11.5528 32.0108 11.6576C31.7579 11.7373 31.5957 12.0516 31.5957 12.0516C31.5957 12.0516 31.9594 12.2336 31.9594 12.2077C31.9594 12.2077 32.2251 11.9213 32.4226 11.8162C32.7125 11.7114 33.0987 11.5011 33.0537 11.4764Z" fill="#F1C326"/>
<path fill-rule="evenodd" clip-rule="evenodd" d="M33.032 11.4899C32.9212 11.5203 32.2701 11.6505 32.0372 11.7133C31.7771 11.8116 31.5957 12.2305 31.5957 12.2305C31.7209 12.26 31.9047 12.3567 31.9594 12.3567C32.0108 12.2978 32.2251 11.9756 32.4034 11.9088C32.6314 11.7452 32.9461 11.5203 33.032 11.4899ZM31.9594 12.423C31.9047 12.423 31.6471 12.2973 31.5957 12.2594C31.5957 12.1986 31.7579 11.7791 32.0108 11.6809C32.2701 11.5517 33.032 11.423 33.0537 11.423C33.0987 11.5517 32.6105 11.8419 32.4227 11.9083C32.2251 12.0664 32.0372 12.3562 31.9594 12.423Z" fill="#6C6666"/>
<path fill-rule="evenodd" clip-rule="evenodd" d="M33.0319 10.8534C33.0319 10.8534 32.3767 11.5009 32.225 11.6562C32.0107 11.8674 31.8285 12.0962 31.8285 12.0962C31.777 12.1267 31.4414 12.0472 31.4414 11.997C31.4414 11.997 31.9593 11.423 32.3423 11.187C32.7124 10.9806 33.0319 10.8534 33.0319 10.8534Z" fill="#F1C326"/>
<path fill-rule="evenodd" clip-rule="evenodd" d="M31.4925 12.0197C31.5383 12.0197 31.7575 12.0731 31.7976 12.0731V12.0968V12.0731C31.7976 12.0731 31.8538 12.0197 31.9043 11.9692C31.959 11.868 32.0618 11.7608 32.1894 11.6569C32.3211 11.5015 32.7121 11.1109 32.9208 10.9331C32.8125 11.0093 32.5588 11.0884 32.342 11.2149C31.9855 11.5015 31.4925 11.9977 31.4668 12.0197H31.4925ZM31.7979 12.1516C31.777 12.1516 31.4414 12.0725 31.4414 12.0191C31.4414 11.9971 31.9593 11.423 32.3423 11.1613C32.6105 11.0087 32.8489 10.9019 32.946 10.8534H33.0319H33.0536C33.0319 10.8763 32.4033 11.5009 32.225 11.6819C32.0869 11.8136 32.0107 11.918 31.9593 11.9971C31.8734 12.0962 31.8541 12.1267 31.8541 12.1267L31.7979 12.1516Z" fill="#6C6666"/>
<path fill-rule="evenodd" clip-rule="evenodd" d="M32.8703 10.4343C32.8495 10.5114 32.2256 11.0878 32.0626 11.3162C31.9052 11.5266 31.6211 11.918 31.6211 11.918C31.6211 11.918 31.332 11.7096 31.332 11.6562C31.381 11.5799 31.7776 11.1103 32.0626 10.8762C32.3773 10.643 32.9217 10.4343 32.8703 10.4343Z" fill="#F1C326"/>
<path fill-rule="evenodd" clip-rule="evenodd" d="M32.7698 10.5436H32.7128C32.5353 10.6448 32.2704 10.7468 32.0625 10.9037C31.7774 11.1631 31.3809 11.6075 31.3809 11.658C31.3809 11.658 31.4932 11.8154 31.596 11.8692C31.6964 11.8154 31.9051 11.5027 32.0376 11.318C32.1139 11.1631 32.3771 10.9037 32.5595 10.7235C32.6317 10.6448 32.7128 10.5914 32.7698 10.5436ZM31.6474 11.9408H31.596C31.539 11.8674 31.2853 11.7353 31.3318 11.6562C31.3318 11.5522 31.7774 11.0878 32.0625 10.8534C32.2447 10.7217 32.504 10.5896 32.7128 10.5113C32.7883 10.4627 32.8493 10.4342 32.8702 10.4122V10.4342V10.4122V10.4342H32.8493H32.8702V10.4122L32.9215 10.305V10.4342H32.8702V10.4627C32.8493 10.5113 32.7128 10.6173 32.6109 10.745C32.3771 10.9549 32.1652 11.187 32.0625 11.3162C31.9051 11.5266 31.6474 11.918 31.6474 11.918V11.9408Z" fill="#6C6666"/>
<path fill-rule="evenodd" clip-rule="evenodd" d="M32.2447 10.3841C32.2447 10.3841 31.905 10.8534 31.8288 10.9549C31.7773 11.0878 31.5389 11.6562 31.5389 11.6562C31.5389 11.6562 31.209 11.3162 31.209 11.2677C31.209 11.2419 31.6208 10.7727 31.8737 10.5639C32.0624 10.3841 32.2704 10.4122 32.2704 10.4122L32.2447 10.3841Z" fill="#F1C326"/>
<path fill-rule="evenodd" clip-rule="evenodd" d="M32.19 10.4353C32.0624 10.4353 31.9861 10.4866 31.8737 10.5906C31.6473 10.7736 31.2852 11.243 31.2852 11.3172C31.2852 11.3172 31.4417 11.4774 31.5389 11.6067C31.5959 11.4774 31.7581 11.0326 31.7982 10.9559C31.8737 10.8544 32.0624 10.5906 32.1651 10.4353H32.19ZM31.5654 11.6819L31.5389 11.6563C31.209 11.3162 31.209 11.3162 31.209 11.2677C31.209 11.242 31.6473 10.696 31.8545 10.5419C31.9861 10.4122 32.1387 10.3841 32.2253 10.3841H32.2447L32.3009 10.305L32.2703 10.4122C32.2253 10.4857 31.905 10.8534 31.8737 10.9806C31.7773 11.0878 31.5959 11.6563 31.5959 11.6563L31.5654 11.6819Z" fill="#6C6666"/>
<path fill-rule="evenodd" clip-rule="evenodd" d="M31.4429 11.0328C31.4429 11.112 31.3329 11.1893 31.2863 11.1893C31.1555 11.1893 31.0977 11.112 31.0977 11.0328C31.0977 10.9555 31.1555 10.8762 31.2863 10.8762C31.3329 10.8762 31.4429 10.9555 31.4429 11.0328Z" fill="#F1C326"/>
<path fill-rule="evenodd" clip-rule="evenodd" d="M31.6498 11C31.4457 11 31.1445 11.2378 31.1445 11.3918C31.1445 11.7834 31.9059 11.7834 31.9059 11.3918C31.9059 11.2378 31.7747 11 31.6498 11ZM31.649 11.8534C31.2986 11.8534 31.0684 11.6994 31.0684 11.3877C31.0684 11.0905 31.2986 10.8534 31.649 10.8534C31.7739 10.8534 32.0684 11.0905 32.0684 11.3877C32.0684 11.6994 31.7739 11.8534 31.649 11.8534Z" fill="#6C6666"/>
<path fill-rule="evenodd" clip-rule="evenodd" d="M31.647 11.2429C31.647 11.3178 31.5956 11.3712 31.5386 11.3712C31.4671 11.3712 31.4414 11.3178 31.4414 11.2429C31.4414 11.1616 31.4671 11.1103 31.5386 11.1103C31.5956 11.1103 31.647 11.1616 31.647 11.2429Z" fill="#F1C326"/>
<path fill-rule="evenodd" clip-rule="evenodd" d="M31.9233 11.1554C31.678 11.1554 31.5898 11.3087 31.5898 11.5511C31.5898 11.9337 32.2043 11.9337 32.2043 11.5511C32.2043 11.3087 32.1189 11.1554 31.9233 11.1554ZM31.9236 12.0878C31.5901 12.0878 31.3809 11.7692 31.3809 11.5476C31.3809 11.307 31.5901 11.0878 31.9236 11.0878C32.1192 11.0878 32.3809 11.307 32.3809 11.5476C32.3809 11.7692 32.1192 12.0878 31.9236 12.0878Z" fill="#6C6666"/>
<path fill-rule="evenodd" clip-rule="evenodd" d="M31.0466 11.0888C31.0466 11.1628 30.9695 11.2162 30.8948 11.2162C30.7825 11.2162 30.7109 11.1628 30.7109 11.0888C30.7109 11.0091 30.7825 10.9549 30.8948 10.9549C30.9695 10.9549 31.0466 11.0091 31.0466 11.0888Z" fill="#F1C326"/>
<path fill-rule="evenodd" clip-rule="evenodd" d="M31.26 11.0893C30.9253 11.0893 30.7891 11.1807 30.7891 11.4382C30.7891 11.7611 31.5757 11.7611 31.5757 11.4382C31.5757 11.1807 31.394 11.0893 31.26 11.0893ZM31.2587 11.9325C30.924 11.9325 30.7109 11.6718 30.7109 11.4344C30.7109 11.1788 30.924 10.9325 31.2587 10.9325C31.5744 10.9325 31.7109 11.1788 31.7109 11.4344C31.7109 11.6718 31.5744 11.9325 31.2587 11.9325Z" fill="#6C6666"/>
<path fill-rule="evenodd" clip-rule="evenodd" d="M31.5151 11.3712C31.5151 11.5297 31.4429 11.6604 31.3329 11.6604C31.2101 11.6604 31.0977 11.5297 31.0977 11.3712C31.0977 11.215 31.2101 11.1103 31.3329 11.1103C31.4429 11.1103 31.5151 11.215 31.5151 11.3712Z" fill="#F1C326"/>
<path fill-rule="evenodd" clip-rule="evenodd" d="M31.6288 11.1259C31.3678 11.1259 31.1289 11.3475 31.1289 11.5618C31.1289 11.8266 31.3678 12.0449 31.6288 12.0449C31.8625 12.0449 31.9717 11.8266 31.9717 11.5618C31.9717 11.3475 31.8625 11.1259 31.6288 11.1259ZM31.6281 12.0878C31.3671 12.0878 31.0684 11.8696 31.0684 11.5615C31.0684 11.2547 31.3671 11.0878 31.6281 11.0878C31.8618 11.0878 32.0684 11.2547 32.0684 11.5615C32.0684 11.8696 31.8618 12.0878 31.6281 12.0878Z" fill="#6C6666"/>
<path fill-rule="evenodd" clip-rule="evenodd" d="M30.9707 11.3708C30.9707 11.5035 30.896 11.6091 30.7837 11.6091C30.6865 11.6091 30.6367 11.5035 30.6367 11.3708C30.6367 11.2685 30.6865 11.1613 30.7837 11.1613C30.896 11.1613 30.9707 11.2685 30.9707 11.3708Z" fill="#F1C326"/>
<path fill-rule="evenodd" clip-rule="evenodd" d="M31.0556 11.2164C30.8774 11.2164 30.6895 11.4919 30.6895 11.4919C30.6895 11.8854 30.8774 12.1087 31.0556 12.1087C31.3355 12.1087 31.4476 11.8854 31.4476 11.6048C31.4476 11.6048 31.3355 11.2164 31.0556 11.2164ZM31.0557 12.1613C30.7495 12.1613 30.5996 11.9397 30.5996 11.6044C30.5996 11.3332 30.7495 11.1613 31.0557 11.1613C31.3956 11.1613 31.5996 11.3332 31.5996 11.6044C31.5996 11.9397 31.3956 12.1613 31.0557 12.1613Z" fill="#6C6666"/>
<path fill-rule="evenodd" clip-rule="evenodd" d="M30.7124 11.5537C30.7124 11.6584 30.637 11.7381 30.6009 11.7381C30.5302 11.7381 30.4531 11.6584 30.4531 11.5537C30.4531 11.4772 30.5302 11.3692 30.6009 11.3692C30.637 11.3692 30.7124 11.4772 30.7124 11.5537Z" fill="#F1C326"/>
<path fill-rule="evenodd" clip-rule="evenodd" d="M30.9722 11.4365C30.7242 11.4365 30.5273 11.7331 30.5273 11.8488C30.5273 12.083 30.7242 12.2612 30.9722 12.2612C31.0989 12.2612 31.3634 12.083 31.3634 11.8488C31.3634 11.7331 31.0989 11.4365 30.9722 11.4365ZM30.9714 12.3162C30.6333 12.3162 30.4531 12.0821 30.4531 11.8479C30.4531 11.5567 30.6333 11.3162 30.9714 11.3162C31.1825 11.3162 31.4531 11.5567 31.4531 11.8479C31.4531 12.0821 31.1825 12.3162 30.9714 12.3162Z" fill="#6C6666"/>
<path fill-rule="evenodd" clip-rule="evenodd" d="M31.7776 11.5541C31.7776 11.6588 31.6724 11.7636 31.5657 11.7636C31.442 11.7636 31.332 11.6588 31.332 11.5541C31.332 11.4238 31.442 11.3162 31.5657 11.3162C31.6724 11.3162 31.7776 11.4238 31.7776 11.5541Z" fill="#F1C326"/>
<path fill-rule="evenodd" clip-rule="evenodd" d="M31.8558 11.3162C31.6359 11.3162 31.4414 11.5309 31.4414 11.7908C31.4414 11.9998 31.6359 12.1589 31.8558 12.1589C32.0396 12.1589 32.2883 11.9998 32.2883 11.7908C32.2883 11.5309 32.0396 11.3162 31.8558 11.3162ZM31.8564 12.3162C31.5789 12.3162 31.332 11.9998 31.332 11.7908C31.332 11.4228 31.5789 11.3162 31.8564 11.3162C32.1502 11.3162 32.332 11.4228 32.332 11.7908C32.332 11.9998 32.1502 12.3162 31.8564 12.3162Z" fill="#6C6666"/>
<path fill-rule="evenodd" clip-rule="evenodd" d="M31.2841 11.1877C31.2841 11.318 31.1533 11.318 31.0457 11.318C30.9685 11.318 30.918 11.318 30.918 11.1877C30.918 11.1359 30.9685 11.0878 31.0457 11.0878C31.1533 11.0878 31.2841 11.1359 31.2841 11.1877Z" fill="#F1C326"/>
<path fill-rule="evenodd" clip-rule="evenodd" d="M31.2843 11.2237C31.1669 11.2237 30.957 11.3899 30.957 11.3899C30.957 11.895 31.6999 11.895 31.6999 11.4737C31.6999 11.4737 31.56 11.2237 31.2843 11.2237ZM31.2836 12.0601C31.0099 12.0601 30.8945 11.8887 30.8945 11.4705C30.8945 11.3043 31.0099 11.0601 31.2836 11.0601C31.5593 11.0601 31.8945 11.3043 31.8945 11.4705C31.8945 11.8887 31.5593 12.0601 31.2836 12.0601Z" fill="#6C6666"/>
<path fill-rule="evenodd" clip-rule="evenodd" d="M31.2838 11.5282C31.2838 11.6329 31.153 11.7126 31.0196 11.7126C30.9177 11.7126 30.7812 11.6329 30.7812 11.5282C30.7812 11.3696 30.9177 11.3163 31.0196 11.3163C31.153 11.3163 31.2838 11.3696 31.2838 11.5282Z" fill="#F1C326"/>
<path fill-rule="evenodd" clip-rule="evenodd" d="M31.2153 11.3162C31.0297 11.3162 30.7812 11.571 30.7812 11.8181C30.7812 12.0662 31.0297 12.1887 31.2153 12.1887C31.4582 12.1887 31.6964 12.0662 31.6964 11.8181C31.6964 11.571 31.4582 11.3162 31.2153 11.3162ZM31.2153 12.3162C30.9858 12.3162 30.7812 12.1275 30.7812 11.8181C30.7812 11.4427 30.9858 11.3162 31.2153 11.3162C31.4582 11.3162 31.7812 11.4427 31.7812 11.8181C31.7812 12.1275 31.4582 12.3162 31.2153 12.3162Z" fill="#6C6666"/>
<path fill-rule="evenodd" clip-rule="evenodd" d="M31.875 11.8692C31.875 11.9998 31.7786 12.0997 31.6735 12.0997C31.5403 12.0997 31.4688 11.9998 31.4688 11.8692C31.4688 11.7361 31.5403 11.6306 31.6735 11.6306C31.7786 11.6306 31.875 11.7361 31.875 11.8692Z" fill="#F1C326"/>
<path fill-rule="evenodd" clip-rule="evenodd" d="M31.9394 11.699C31.7088 11.699 31.5527 11.8439 31.5527 12.0858C31.5527 12.3233 31.7088 12.5049 31.9394 12.5049C32.1663 12.5049 32.3744 12.3233 32.3744 12.0858C32.3744 11.8439 32.1663 11.699 31.9394 11.699ZM31.9389 12.6057C31.6512 12.6057 31.4414 12.3226 31.4414 12.0851C31.4414 11.7961 31.6512 11.6057 31.9389 11.6057C32.1658 11.6057 32.4414 11.7961 32.4414 12.0851C32.4414 12.3226 32.1658 12.6057 31.9389 12.6057Z" fill="#6C6666"/>
<path fill-rule="evenodd" clip-rule="evenodd" d="M30.6595 11.8148C30.6595 11.869 30.6354 11.9709 30.5543 11.9709C30.4725 11.9709 30.4219 11.869 30.4219 11.8148C30.4219 11.7101 30.4725 11.6562 30.5543 11.6562C30.6354 11.6562 30.6595 11.7101 30.6595 11.8148Z" fill="#F1C326"/>
<path fill-rule="evenodd" clip-rule="evenodd" d="M30.9254 11.7012C30.7302 11.7012 30.5352 11.9186 30.5352 12.1339C30.5352 12.5598 31.2336 12.5598 31.2336 12.1339C31.2336 11.9186 31.2336 11.7012 30.9254 11.7012ZM30.9247 12.6306C30.614 12.6306 30.4219 12.4148 30.4219 12.1301C30.4219 11.8464 30.614 11.6306 30.9247 11.6306C31.2329 11.6306 31.4219 11.8464 31.4219 12.1301C31.4219 12.4148 31.2329 12.6306 30.9247 12.6306Z" fill="#6C6666"/>
<path fill-rule="evenodd" clip-rule="evenodd" d="M31.5653 11.8154C31.5653 11.8696 31.4931 12.0002 31.3807 12.0002C31.2851 12.0002 31.1543 11.8696 31.1543 11.8154C31.1543 11.6568 31.2851 11.58 31.3807 11.58C31.4931 11.58 31.5653 11.6568 31.5653 11.8154Z" fill="#F1C326"/>
<path fill-rule="evenodd" clip-rule="evenodd" d="M31.6664 11.6733C31.4499 11.6733 31.2773 11.7869 31.2773 12.1408C31.2773 12.2617 31.4499 12.4892 31.6664 12.4892C31.9208 12.4892 32.0246 12.2617 32.0246 12.1408C32.0246 11.7869 31.9208 11.6733 31.6664 11.6733ZM31.667 12.5523C31.4506 12.5523 31.1543 12.3745 31.1543 12.1399C31.1543 11.786 31.4506 11.5523 31.667 11.5523C31.9688 11.5523 32.1543 11.786 32.1543 12.1399C32.1543 12.3745 31.9688 12.5523 31.667 12.5523Z" fill="#6C6666"/>
<path fill-rule="evenodd" clip-rule="evenodd" d="M30.941 11.7614C30.941 11.8694 30.864 11.9714 30.7837 11.9714C30.6608 11.9714 30.6367 11.8694 30.6367 11.7614C30.6367 11.6566 30.6608 11.6057 30.7837 11.6057C30.864 11.6057 30.941 11.6566 30.941 11.7614Z" fill="#F1C326"/>
<path fill-rule="evenodd" clip-rule="evenodd" d="M31.1387 11.7112C30.8532 11.7112 30.707 11.7773 30.707 12.0447C30.707 12.3206 30.8532 12.5096 31.1387 12.5096C31.2992 12.5096 31.5395 12.3206 31.5395 12.0447C31.5395 11.7773 31.2992 11.7112 31.1387 11.7112ZM31.1374 12.58C30.7763 12.58 30.5996 12.3196 30.5996 12.0438C30.5996 11.7763 30.7763 11.58 31.1374 11.58C31.4674 11.58 31.5996 11.7763 31.5996 12.0438C31.5996 12.3196 31.4674 12.58 31.1374 12.58Z" fill="#6C6666"/>
<path fill-rule="evenodd" clip-rule="evenodd" d="M31.2847 11.815C31.2847 11.9432 31.1539 12.0221 31.0463 12.0221C30.9395 12.0221 30.8945 11.9432 30.8945 11.815C30.8945 11.7103 30.9395 11.6306 31.0463 11.6306C31.1539 11.6306 31.2847 11.7103 31.2847 11.815Z" fill="#F1C326"/>
<path fill-rule="evenodd" clip-rule="evenodd" d="M31.2985 11.721C31.1159 11.721 30.9961 11.9015 30.9961 12.0802C30.9961 12.3706 31.1159 12.4988 31.2985 12.4988C31.5533 12.4988 31.6826 12.3706 31.6826 12.0802C31.6826 11.9015 31.5533 11.721 31.2985 11.721ZM31.2987 12.6057C31.0457 12.6057 30.8633 12.3648 30.8633 12.0766C30.8633 11.7784 31.0457 11.6057 31.2987 11.6057C31.5534 11.6057 31.8633 11.7784 31.8633 12.0766C31.8633 12.3648 31.5534 12.6057 31.2987 12.6057Z" fill="#6C6666"/>
<path fill-rule="evenodd" clip-rule="evenodd" d="M30.4727 10.6687C30.5288 10.6687 30.7826 10.8008 30.7826 10.8008C30.7826 10.8008 30.4517 10.9549 30.5288 10.9325C30.5786 10.9019 30.919 10.8534 30.919 10.8534C30.8629 10.8534 30.5995 11.187 30.6597 11.1613C30.7617 11.1613 30.919 10.9549 30.919 10.9549C30.919 10.9549 31.1543 11.3162 31.1543 11.242V10.9325C31.2089 10.9325 31.5389 11.1356 31.5389 11.1356C31.514 11.1103 31.2851 10.8534 31.3317 10.8534C31.3317 10.8534 31.7772 10.9019 31.758 10.8763C31.7211 10.8763 31.4674 10.7217 31.4674 10.7217C31.4674 10.7217 31.6472 10.5114 31.5959 10.5114C31.5653 10.5114 31.2089 10.7217 31.2851 10.696L31.5959 10.201L31.2851 10.4343L31.3317 10.1508C31.2851 10.1753 31.0209 10.5419 31.0009 10.5419L30.9399 10.1753C30.9399 10.1753 30.9399 10.5639 30.8629 10.5896C30.7826 10.5896 30.4727 10.6687 30.4727 10.6687Z" fill="#F1C326"/>
<path fill-rule="evenodd" clip-rule="evenodd" d="M30.9404 10.9325L31.0472 11.0601C31.0472 11.1103 31.097 11.1613 31.1548 11.1869V11.0878V10.9019C31.1548 10.9019 31.2094 10.9019 31.4422 11.0601C31.3812 10.9806 31.2856 10.8762 31.2856 10.8762C31.3322 10.8534 31.3322 10.8534 31.3812 10.8534C31.4936 10.8534 31.6477 10.8762 31.7216 10.8762C31.6477 10.8534 31.4422 10.745 31.4422 10.745C31.5145 10.643 31.5964 10.5418 31.5964 10.5113C31.5964 10.5418 31.3322 10.6687 31.2856 10.7217V10.696C31.3322 10.6173 31.5145 10.3841 31.5964 10.201L31.2856 10.4627C31.2856 10.305 31.3322 10.201 31.3322 10.1753C31.3322 10.201 31.2094 10.305 31.1548 10.3841C31.0215 10.5418 31.0215 10.5418 31.0014 10.5418L30.9404 10.3841C30.9404 10.4856 30.9404 10.5896 30.8634 10.6173L30.7831 10.643C30.7115 10.643 30.6361 10.6687 30.5293 10.6687C30.6361 10.6687 30.8192 10.7727 30.8192 10.7727C30.7621 10.8257 30.6602 10.8534 30.6602 10.8534C30.6602 10.8534 30.7115 10.8762 30.7621 10.8534H30.8954H30.8634C30.7831 10.9549 30.6602 11.1356 30.6602 11.1613C30.7115 11.1356 30.7831 11.0316 30.8634 10.9806L30.9195 10.9325H30.9404ZM31.1551 11.3162C31.0973 11.3162 31.0973 11.2677 31.0017 11.0878C31.0017 11.0316 30.9407 11.0087 30.9407 10.9806L30.9198 11.0087C30.7834 11.0878 30.7118 11.1613 30.6605 11.1869C30.6364 11.1356 30.7624 10.9806 30.8195 10.8762L30.7834 10.9019C30.6605 10.9325 30.5553 10.9549 30.5553 10.9549C30.4735 10.9325 30.4735 10.9019 30.7834 10.7727C30.7376 10.7727 30.5553 10.696 30.5039 10.696C30.5296 10.643 30.6605 10.5896 30.7834 10.5896L30.8637 10.5639C30.9198 10.5418 30.9198 10.3841 30.9198 10.1753C31.0017 10.305 31.0017 10.4856 31.0218 10.5113C31.0017 10.5113 31.0692 10.4342 31.0973 10.3841C31.2859 10.201 31.2859 10.1508 31.3325 10.1508C31.3325 10.1508 31.3815 10.1753 31.3325 10.4342L31.5967 10.201C31.5967 10.201 31.4682 10.5113 31.3325 10.643C31.4425 10.5639 31.5967 10.4856 31.5967 10.4856C31.648 10.5113 31.648 10.5418 31.4939 10.745L31.7781 10.8762L31.7589 10.9325C31.697 10.9325 31.5148 10.9019 31.3815 10.8762H31.3325C31.3325 10.8762 31.5148 11.0878 31.5397 11.1103L31.5148 11.0878C31.3815 11.0601 31.2097 10.9806 31.1551 10.9549C31.2097 10.9806 31.2097 11.0316 31.2097 11.0878C31.2097 11.2419 31.2097 11.2419 31.1551 11.2677V11.3162Z" fill="#6C6666"/>
<path fill-rule="evenodd" clip-rule="evenodd" d="M29.543 13.5025C29.543 13.5025 29.7967 14.1532 30.1684 14.1275C30.504 14.1018 30.6365 13.9954 30.6365 13.9954C30.6365 13.9954 30.4526 13.8686 30.378 13.6855C30.2905 13.4266 30.2712 13.3226 30.2712 13.3226L29.543 13.5025Z" fill="#273B92"/>
<path fill-rule="evenodd" clip-rule="evenodd" d="M30.7812 13.2182C30.7812 13.2182 31.0454 13.8686 31.2076 13.9448C31.3304 14.0239 31.5946 14.1018 31.6949 14.0761H31.9582C31.9582 14.0761 31.8531 14.0239 31.7567 13.7132C31.6459 13.3732 31.5946 13.2182 31.5946 13.2182H30.7812Z" fill="#273B92"/>
<path fill-rule="evenodd" clip-rule="evenodd" d="M32.3786 13.4776C32.3786 13.4776 32.3442 13.9219 32.3786 14.0239C32.4244 14.1532 32.7143 14.3354 32.7143 14.3354C32.7143 14.3354 33.0338 14.3073 33.0338 14.0239C33.0338 13.7365 32.923 13.5024 32.923 13.5024L32.3786 13.4776Z" fill="#273B92"/>
<path fill-rule="evenodd" clip-rule="evenodd" d="M29.3086 12.6723V12.7995C29.3086 12.8549 29.1777 12.9846 29.1777 13.0866C29.1777 13.2182 29.3086 13.5534 29.7959 13.5819C30.1934 13.5819 30.737 13.2688 30.737 13.2688L29.6916 12.439C29.6442 12.4639 29.3086 12.6723 29.3086 12.6723Z" fill="#245328"/>
<path fill-rule="evenodd" clip-rule="evenodd" d="M29.3088 12.6984L29.3345 12.8C29.3088 12.828 29.3088 12.8553 29.2783 12.8786C29.2293 12.932 29.1973 13.0336 29.1973 13.087C29.1973 13.1909 29.3345 13.5538 29.7962 13.5538V13.5823V13.5538C30.2136 13.5538 30.6857 13.2692 30.6857 13.2692C30.6857 13.2692 29.7472 12.4643 29.6918 12.4643L29.6444 12.4872C29.3859 12.647 29.3345 12.6727 29.3345 12.6727L29.3088 12.6984ZM29.7962 13.6096C29.3089 13.5819 29.1523 13.2182 29.1523 13.0865C29.1523 13.0332 29.2294 12.9083 29.2543 12.8549L29.2784 12.7762C29.3089 12.7486 29.2784 12.6723 29.2784 12.6723C29.3346 12.6189 29.5145 12.5173 29.5939 12.4639L29.6918 12.4109C29.7472 12.4109 30.7373 13.2182 30.7373 13.2435C30.7115 13.2969 30.2137 13.6096 29.7962 13.6096Z" fill="#020303"/>
<path fill-rule="evenodd" clip-rule="evenodd" d="M32.2266 13.2435C32.2266 13.2435 32.323 13.5819 32.3438 13.6353L32.3783 13.7132C32.4048 13.7132 33.0335 13.8686 33.0335 13.8686C33.0335 13.8686 33.0744 13.6855 33.0038 13.5306C32.9227 13.3732 32.5607 12.9573 32.5607 12.9573L32.2266 13.2435Z" fill="#245328"/>
<path fill-rule="evenodd" clip-rule="evenodd" d="M32.6226 12.9583L32.2266 13.2819C32.2799 13.4458 32.3656 13.6072 32.3656 13.6072C32.4065 13.6626 32.4065 13.7148 32.4379 13.7435L33.1832 13.9049C33.1832 13.8199 33.209 13.6856 33.1481 13.5776C32.991 13.3903 32.6226 12.9583 32.6226 12.9583ZM33.1832 13.9316C33.1832 13.9316 32.4608 13.7677 32.4065 13.7677C32.4065 13.7435 32.3656 13.6856 32.3656 13.6856C32.3161 13.636 32.2266 13.3378 32.2266 13.2556L32.6226 12.9316C32.6836 12.9583 33.0519 13.3903 33.1832 13.5538C33.2623 13.7148 33.209 13.9049 33.209 13.9049L33.1832 13.9316Z" fill="#020303"/>
<path fill-rule="evenodd" clip-rule="evenodd" d="M32.6328 12.9101C32.6585 12.9101 32.8504 13.0667 32.9226 12.9595C33.0334 12.9101 33.2069 12.6723 33.2069 12.6723C33.2069 12.6723 33.0551 12.7491 32.9476 12.7204C32.8504 12.7204 32.6328 12.9101 32.6328 12.9101Z" fill="#245328"/>
<path fill-rule="evenodd" clip-rule="evenodd" d="M32.6699 13.3774C32.795 13.3774 33.0055 13.6542 33.1168 13.5142C33.2419 13.3774 33.3904 13.0086 33.5165 12.8517C33.3904 12.8517 33.321 13.0086 33.1873 13.0086C33.0375 13.0086 32.8828 13.2283 32.795 13.3774H32.7095H32.6699ZM33.0054 13.6466C32.8828 13.6466 32.795 13.5076 32.7095 13.3718H32.5586L32.6699 13.2884C32.795 13.0704 33.0375 12.8501 33.1551 12.8501C33.3507 12.8501 33.5549 12.6466 33.5549 12.6466C33.5933 12.7889 33.321 13.3718 33.1167 13.5832C33.1167 13.5832 33.0375 13.6466 33.0054 13.6466Z" fill="#020303"/>
<path fill-rule="evenodd" clip-rule="evenodd" d="M29.2784 12.698C29.2784 12.698 29.2294 12.5655 29.1219 12.543C29.0151 12.543 28.812 12.5932 28.7606 12.4868C28.6554 12.439 28.6554 12.2841 28.608 12.2841H28.4707C28.4707 12.2841 28.4523 12.1517 28.5277 12.0726C28.6346 11.9971 28.7301 12.0726 28.7606 11.9971C28.8369 11.9686 28.9188 11.9409 29.0456 11.918C29.1219 11.918 29.3346 12.0962 29.386 12.1517C29.488 12.1741 29.6919 12.2279 29.7963 12.1741C29.8589 12.1517 30.2403 11.9686 30.3776 11.9409H30.9404C31.0472 11.9409 31.5394 11.9971 31.6726 12.0962C31.7987 12.1741 32.5357 12.4639 32.6321 12.543C32.7132 12.6189 32.9468 12.698 32.9468 12.698C32.9468 12.698 32.5598 13.1649 32.3431 13.2182C32.1656 13.3226 31.5658 13.4776 31.1548 13.4266C30.7831 13.3732 30.5036 13.3732 30.2138 13.1906C29.9545 13.0075 29.6446 12.8549 29.6446 12.7763C29.5939 12.6723 29.5939 12.5655 29.5939 12.5655L29.2784 12.698Z" fill="#245328"/>
<path fill-rule="evenodd" clip-rule="evenodd" d="M29.5939 12.5436C29.6445 12.5661 29.6445 12.6728 29.6445 12.7768C29.6918 12.8001 29.8781 12.9579 30.1117 13.0643L30.2402 13.1654C30.5035 13.3232 30.7621 13.3737 31.1547 13.3737C31.5393 13.4548 32.1655 13.2975 32.343 13.2188C32.5356 13.1654 32.8704 12.7768 32.9218 12.6985C32.9218 12.6985 32.7131 12.6194 32.632 12.5436C32.5598 12.5179 32.3221 12.4115 32.0628 12.3071C31.9053 12.2284 31.7215 12.1522 31.6477 12.1273C31.5393 12.0478 31.0471 11.9691 30.9194 11.9691H30.3775C30.2708 11.9691 29.8589 12.1522 29.7962 12.2027C29.6918 12.2565 29.4879 12.2027 29.3859 12.1522C29.3859 12.1522 29.3346 12.1273 29.3089 12.0968C29.2294 11.9976 29.1218 11.9414 29.0455 11.9414C28.9187 11.9691 28.8633 11.9976 28.7902 12.0197C28.7605 12.0478 28.73 12.0478 28.6794 12.0478C28.6345 12.0478 28.608 12.0478 28.5526 12.0968C28.4707 12.1522 28.4707 12.2565 28.4707 12.2846H28.5734H28.608C28.6553 12.2846 28.6553 12.3071 28.6794 12.3605C28.7043 12.4115 28.73 12.4645 28.73 12.4645C28.7902 12.5436 28.9187 12.5436 28.9965 12.5436H29.0455H29.1218C29.2543 12.5436 29.3089 12.6985 29.3089 12.6985L29.5939 12.5436ZM31.286 13.4776H31.1551C30.7625 13.4266 30.4735 13.3732 30.2141 13.1906L30.0865 13.0866C29.7966 12.9316 29.5943 12.8276 29.5943 12.7762V12.5655L29.3093 12.72C29.2547 12.72 29.2298 12.5932 29.1222 12.5932H29.0459L28.9969 12.543V12.5932C28.9192 12.5932 28.761 12.5655 28.761 12.5173C28.6798 12.4639 28.6558 12.4109 28.6558 12.36L28.6084 12.3066H28.4711C28.4527 12.2279 28.4527 12.1267 28.5281 12.0472C28.5739 12.0191 28.6349 12.0191 28.6558 11.997H28.761C28.8373 11.9408 28.9192 11.918 29.0459 11.8674C29.1222 11.8674 29.2298 11.997 29.3093 12.0472C29.3607 12.0725 29.3864 12.0962 29.3864 12.1267C29.4884 12.1741 29.6923 12.2022 29.7966 12.1741C29.8272 12.1267 30.2406 11.9408 30.3779 11.9408C30.5296 11.918 30.7834 11.918 30.9408 11.918C31.0218 11.9408 31.5397 11.997 31.6971 12.0725C31.7589 12.1267 31.9058 12.1741 32.088 12.2841C32.3434 12.3856 32.5859 12.4868 32.6324 12.5173C32.7705 12.5932 32.968 12.6723 32.968 12.6723C32.9472 12.7486 32.5602 13.1906 32.3778 13.2435C32.1908 13.3732 31.673 13.4776 31.286 13.4776Z" fill="#020303"/>
<path fill-rule="evenodd" clip-rule="evenodd" d="M28.8625 12.1516C28.8361 12.1743 28.7598 12.2026 28.7598 12.2285C28.7894 12.2285 28.8361 12.2851 28.918 12.2851C28.9693 12.2851 29.0817 12.2026 29.0817 12.2026C29.0817 12.2026 28.9693 12.1516 28.8625 12.1516Z" fill="#245328"/>
<path fill-rule="evenodd" clip-rule="evenodd" d="M29.1354 12.2976C28.9113 12.4804 28.8477 12.4804 28.8477 12.6474C28.8477 12.6474 28.9845 12.8302 29.2251 12.8302V13.0129V12.8302C29.2841 12.8302 29.5081 12.6474 29.5976 12.4804C29.5081 12.4804 29.2841 12.2976 29.1354 12.2976ZM29.2244 13.1516C28.9106 13.1516 28.7598 12.825 28.7598 12.825C28.7598 12.2965 28.7598 12.2965 28.9838 12.1516C29.4529 12.1516 29.7055 12.2965 29.7598 12.2965C29.7055 12.6437 29.4529 13.1516 29.2244 13.1516Z" fill="#020303"/>
<path fill-rule="evenodd" clip-rule="evenodd" d="M28.8633 12.1741V12.2841H28.9494C28.9494 12.256 28.9806 12.1741 28.9494 12.1741H28.8633Z" fill="#020303"/>
<path fill-rule="evenodd" clip-rule="evenodd" d="M29.8594 12.2582C29.8786 12.1757 29.8594 12.128 30.0063 12.0196C30.1684 11.9407 30.3964 11.9686 30.3964 11.9686C30.3964 11.9686 30.3154 12.0196 30.3154 12.0972V12.204C30.3154 12.204 30.1684 12.1531 30.0865 12.1757C30.0063 12.2299 29.8594 12.2582 29.8594 12.2582Z" fill="#102015"/>
<path fill-rule="evenodd" clip-rule="evenodd" d="M30.6741 12.1059C30.5442 12.1059 30.3206 12.1059 30.1362 12.2532C29.9672 12.397 29.9141 12.5597 29.9141 12.7081V12.7835C29.9672 12.7835 30.1362 12.6256 30.2759 12.6256C30.4184 12.5597 30.5973 12.6256 30.5973 12.6256C30.5973 12.6256 30.6308 12.5597 30.6308 12.397C30.6308 12.2532 30.6741 12.1059 30.6741 12.1059ZM29.8821 12.9409L29.8262 12.859L29.8821 12.7023C29.8821 12.555 29.9155 12.3935 30.1377 12.1046C30.4198 11.9409 30.8166 11.9409 30.8166 11.9409C30.8628 12.1046 30.7272 12.2508 30.7272 12.3935V12.7023C30.6756 12.7771 30.5456 12.7023 30.4198 12.7023H30.2773C30.1377 12.7771 29.9155 12.9409 29.9155 12.9409H29.8821Z" fill="#0D0D14"/>
<path fill-rule="evenodd" clip-rule="evenodd" d="M30.5045 11.9408C30.474 11.9688 30.3784 12.0974 30.3969 12.1532C30.3969 12.2042 30.5302 12.3094 30.6008 12.3094C30.637 12.3094 30.8642 12.1532 30.8642 12.0974C30.8963 12.0197 30.8963 11.9408 30.8963 11.9408C30.8963 11.9408 30.5045 11.9688 30.5045 11.9408Z" fill="#102015"/>
<path fill-rule="evenodd" clip-rule="evenodd" d="M31.255 12.0359C31.1138 12.0359 30.8978 12.099 30.8978 12.099H30.6225C30.6225 12.099 30.4334 12.4591 30.4801 12.5159C30.4801 12.567 30.6676 12.8174 30.7919 12.8174V12.8687V12.8174C30.8555 12.8174 31.2098 12.5159 31.2098 12.3896C31.255 12.1639 31.255 12.0359 31.255 12.0359ZM30.7926 12.8674C30.6683 12.8674 30.4016 12.6297 30.3438 12.5146C30.3438 12.3884 30.5697 12.0346 30.5697 12.0346C30.6683 11.9826 30.7135 11.9826 30.8562 11.9826C30.8562 11.9826 31.1145 11.8674 31.2105 11.8674L31.312 11.9826C31.3543 12.0346 31.3543 12.1626 31.312 12.3884C31.312 12.5657 30.8562 12.8674 30.7926 12.8674Z" fill="#0D0D14"/>
<path fill-rule="evenodd" clip-rule="evenodd" d="M30.9695 11.9181C30.9399 11.9691 30.9399 12.1284 30.9695 12.1535C30.9695 12.1535 31.1542 12.3634 31.2088 12.3893C31.2851 12.3893 31.5388 12.3634 31.5653 12.3096C31.5958 12.287 31.6721 12.1284 31.6472 12.0977C31.5958 12.0483 31.5653 11.9978 31.3806 11.9691C31.1542 11.8671 31.0466 11.9181 30.9695 11.9181Z" fill="#102015"/>
<path fill-rule="evenodd" clip-rule="evenodd" d="M31.0907 11.9937H31.0271C30.9837 12.0463 31.0271 12.2885 31.0271 12.3464L31.3157 12.7889H31.4214C31.4861 12.7889 31.7735 12.6876 31.7735 12.6876C31.8525 12.5916 31.9238 12.3464 31.8525 12.2885C31.8525 12.2885 31.7735 12.1423 31.554 12.0463C31.4214 11.9937 31.2399 11.9937 31.0907 11.9937ZM31.4204 12.8825H31.3146C31.2388 12.8346 30.9414 12.3918 30.9414 12.3918V11.9496C31.1196 11.8539 31.3146 11.8539 31.553 11.9929C31.7724 12.0454 31.886 12.1411 31.9227 12.2421C31.9907 12.3918 31.8514 12.685 31.8514 12.7321C31.8091 12.8346 31.485 12.8825 31.4204 12.8825Z" fill="#0D0D14"/>
<path fill-rule="evenodd" clip-rule="evenodd" d="M31.7227 12.1267C31.7788 12.1518 32.039 12.3079 32.1915 12.4414C32.3441 12.5462 32.4051 12.7023 32.4051 12.7023C32.5054 12.7246 32.7142 12.5967 32.7142 12.5462C32.7142 12.5462 32.4508 12.3079 32.3232 12.2286C32.1666 12.1518 31.7227 12.1518 31.7227 12.1518V12.1267Z" fill="#102015"/>
<path fill-rule="evenodd" clip-rule="evenodd" d="M31.7598 12.1807C31.857 12.2173 32.0666 12.4332 32.231 12.6032C32.3072 12.7269 32.3493 12.8551 32.384 12.942C32.4108 12.9872 32.4302 13.029 32.4302 13.029C32.512 13.029 32.7225 12.9002 32.7225 12.8184C32.7225 12.8184 32.4302 12.4737 32.3072 12.3507C32.1954 12.2173 31.9347 12.2173 31.8003 12.1807H31.7598ZM32.4303 13.1063C32.4303 13.1063 32.3841 13.0285 32.3841 12.9414C32.3283 12.8996 32.2506 12.776 32.1704 12.689C32.0416 12.4732 31.8004 12.2625 31.7599 12.1802H31.7227H31.7599C31.7599 12.0899 31.7793 12.0899 31.8004 12.1396C31.9631 12.1396 32.2311 12.1802 32.3283 12.3044C32.4303 12.396 32.7227 12.7263 32.7227 12.8178C32.7227 12.9414 32.5436 13.1063 32.4303 13.1063Z" fill="#0D0D14"/>
<path fill-rule="evenodd" clip-rule="evenodd" d="M31.6966 12.256C31.6476 12.2843 31.9599 12.9133 32.0113 12.9368C32.0627 12.9627 32.4039 12.8037 32.4039 12.8037C32.3774 12.7236 32.322 12.6216 32.0875 12.4655C31.9053 12.332 31.7215 12.256 31.7215 12.256H31.6966Z" fill="#102015"/>
<path fill-rule="evenodd" clip-rule="evenodd" d="M31.7109 12.3055C31.7109 12.3055 32.0504 13.1613 32.1167 13.1613H32.1509C32.215 13.1613 32.5886 13.0122 32.5886 13.0122C32.5886 13.0122 32.5886 12.8377 32.183 12.5835C31.9149 12.3704 31.743 12.3055 31.743 12.3055H31.7109ZM32.1515 13.2279H32.0853C32.0511 13.1927 31.7116 12.4441 31.6484 12.3049L31.7116 12.2279C31.8161 12.2279 32.1174 12.4788 32.2156 12.5515C32.4186 12.6599 32.6235 12.8371 32.6484 12.9797C32.5893 13.0875 32.2156 13.2279 32.1515 13.2279Z" fill="#0D0D14"/>
<path fill-rule="evenodd" clip-rule="evenodd" d="M31.2858 12.4874C31.2096 12.5181 31.155 13.0917 31.2096 13.1168C31.2858 13.1447 31.8743 13.0687 31.8743 12.989C31.9056 12.9121 31.6479 12.4109 31.566 12.4109C31.4938 12.4109 31.3324 12.4643 31.2858 12.4874Z" fill="#102015"/>
<path fill-rule="evenodd" clip-rule="evenodd" d="M31.6993 12.4843H31.3893C31.3275 12.5929 31.1539 13.3079 31.2264 13.3393H31.3275C31.5352 13.3393 32.0488 13.266 32.1084 13.1993C32.1084 13.1265 31.955 12.7704 31.808 12.5576C31.7398 12.4843 31.6993 12.4843 31.6993 12.4843ZM31.3279 13.4109H31.2268C31.1543 13.3729 31.1543 13.3388 31.1543 13.3074C31.1543 13.094 31.2268 12.5571 31.3279 12.4837C31.3897 12.4109 31.6315 12.4109 31.6997 12.4109C31.7402 12.4109 31.7402 12.4109 31.8414 12.5152C31.9809 12.6965 32.1855 13.094 32.1503 13.2302C32.1088 13.3074 31.4547 13.4109 31.3279 13.4109Z" fill="#0D0D14"/>
<path fill-rule="evenodd" clip-rule="evenodd" d="M30.6372 12.3599C30.601 12.439 30.6372 12.9573 30.6372 13.0075C30.6372 13.0332 31.0024 13.1391 31.0483 13.0866C31.0699 13.0637 31.1558 12.4639 31.098 12.4109C31.0483 12.3856 30.9415 12.2841 30.8964 12.256C30.7841 12.256 30.6612 12.3599 30.6612 12.3599H30.6372Z" fill="#102015"/>
<path fill-rule="evenodd" clip-rule="evenodd" d="M31.1624 12.29C30.9532 12.29 30.8201 12.342 30.7245 12.3732C30.6797 12.46 30.6797 13.0006 30.6797 13.0587C30.6797 13.0587 31.2072 13.1707 31.3596 13.1707H31.397C31.445 13.1455 31.5376 12.4874 31.5376 12.4874C31.445 12.4014 31.2461 12.3147 31.1624 12.29ZM31.3611 13.2279C31.2086 13.2279 30.6811 13.1451 30.6811 13.0834C30.5751 13.0283 30.5301 12.4596 30.6811 12.3728C30.8215 12.3142 30.9547 12.2279 31.1042 12.2279C31.3611 12.2587 31.539 12.4288 31.539 12.4288C31.6466 12.4869 31.539 13.1451 31.4464 13.1975L31.3611 13.2279Z" fill="#0D0D14"/>
<path fill-rule="evenodd" clip-rule="evenodd" d="M29.8778 12.3603C29.7959 12.4117 29.7959 12.5448 29.8778 12.5954C29.9292 12.6212 30.0858 12.675 30.2134 12.7798C30.3772 12.8316 30.4519 12.9129 30.5032 12.9129C30.5289 12.9129 30.5788 12.4117 30.5289 12.3603C30.5032 12.3316 30.3443 12.3066 30.2399 12.3066C30.1371 12.3066 29.9292 12.3316 29.8778 12.3603Z" fill="#102015"/>
<path fill-rule="evenodd" clip-rule="evenodd" d="M30.4003 12.3467C30.1981 12.3467 29.9665 12.3922 29.9011 12.4333C29.9011 12.4333 29.8359 12.5586 29.8767 12.644C29.8767 12.644 29.9011 12.6851 29.9011 12.7211C29.9665 12.7654 30.1266 12.8065 30.2695 12.9331L30.3614 13.014C30.4564 13.0583 30.4941 13.0956 30.5931 13.1841C30.6308 13.2214 30.6574 13.2696 30.6574 13.2696H30.6961C30.7288 13.2214 30.7614 12.4738 30.7614 12.4738C30.6961 12.3922 30.5594 12.3467 30.4003 12.3467ZM30.6959 13.3066C30.6959 13.3066 30.6307 13.2693 30.5592 13.2211C30.4939 13.1838 30.4245 13.0953 30.3275 13.058L30.2694 13.0137C30.102 12.8916 29.9398 12.8062 29.901 12.7651C29.8357 12.7651 29.7969 12.7208 29.7969 12.6437C29.7969 12.5583 29.7969 12.433 29.8766 12.3464C29.9979 12.3066 30.2694 12.3066 30.3612 12.3066C30.5592 12.3066 30.6959 12.3066 30.7286 12.3464C30.8644 12.433 30.7612 13.0953 30.7286 13.2693L30.6959 13.3066Z" fill="#0D0D14"/>
<mask id="mask1_2454_35987" style="mask-type:alpha" maskUnits="userSpaceOnUse" x="26" y="18" width="3" height="3">
<path fill-rule="evenodd" clip-rule="evenodd" d="M26.9414 18.9122H28.4186V20.4742H26.9414V18.9122Z" fill="white"/>
</mask>
<g mask="url(#mask1_2454_35987)">
<path fill-rule="evenodd" clip-rule="evenodd" d="M27.2304 19.2506C27.3018 19.1467 27.4841 18.9379 27.692 18.9122C27.9008 18.8898 28.1361 19.0933 28.1361 19.0933C28.1361 19.0933 28.4508 20.0556 28.4187 20.0556L27.9466 20.3168C27.9466 20.3168 27.7989 19.9544 27.6616 19.9761C27.5612 20.0298 27.5612 20.5228 27.5356 20.4742L26.9414 19.7457C26.9872 19.7457 27.2304 19.2784 27.2304 19.2506Z" fill="#C12026"/>
</g>
<mask id="mask2_2454_35987" style="mask-type:alpha" maskUnits="userSpaceOnUse" x="33" y="18" width="2" height="3">
<path fill-rule="evenodd" clip-rule="evenodd" d="M33.3633 18.9122H34.7137V20.2635H33.3633V18.9122Z" fill="white"/>
</mask>
<g mask="url(#mask2_2454_35987)">
<path fill-rule="evenodd" clip-rule="evenodd" d="M33.3633 19.1467C33.4396 19.123 33.7495 18.8898 33.9623 18.9122C34.2208 18.9379 34.3541 19.017 34.4761 19.123C34.6175 19.2225 34.7137 19.4582 34.7137 19.4582C34.7137 19.4582 34.4553 20.2378 34.4038 20.2378C34.4038 20.2378 34.2987 20.3168 34.2208 20.2378C34.2208 20.2105 34.1196 20.0298 33.9879 20.0298C33.8314 19.9761 33.8097 20.2378 33.8097 20.2378L33.3633 19.1467Z" fill="#C12026"/>
</g>
<mask id="mask3_2454_35987" style="mask-type:alpha" maskUnits="userSpaceOnUse" x="33" y="19" width="4" height="3">
<path fill-rule="evenodd" clip-rule="evenodd" d="M33.0039 19.3819H36.0404V21.8002H33.0039V19.3819Z" fill="white"/>
</mask>
<g mask="url(#mask3_2454_35987)">
<path fill-rule="evenodd" clip-rule="evenodd" d="M33.5149 19.3819C33.5149 19.4582 33.9629 20.5228 34.663 20.7335C35.3953 20.9134 35.5984 20.5228 35.6498 20.3674C35.7317 20.2378 36.04 20.2378 36.04 20.2378C36.04 20.2378 35.991 21.3052 35.8882 21.4092C35.7317 21.5389 35.6498 21.8002 34.9785 21.8002C34.3547 21.8002 33.6996 21.198 33.5478 21.021C33.3431 20.8351 33.0999 20.3429 33.0035 20.1314C32.871 19.8981 33.5478 19.4056 33.5478 19.4056L33.5149 19.3819Z" fill="#F4DB60"/>
</g>
<mask id="mask4_2454_35987" style="mask-type:alpha" maskUnits="userSpaceOnUse" x="25" y="19" width="4" height="3">
<path fill-rule="evenodd" clip-rule="evenodd" d="M25.8613 19.1992H28.7602V21.8002H25.8613V19.1992Z" fill="white"/>
</mask>
<g mask="url(#mask4_2454_35987)">
<path fill-rule="evenodd" clip-rule="evenodd" d="M25.9309 21.5131C25.9309 21.5131 26.2416 21.8483 26.6784 21.8002C27.1449 21.772 27.8779 21.5131 28.2625 21.0684C28.6077 20.5762 28.7602 20.1085 28.7602 20.1085L28.2625 19.1992C28.2111 19.1992 28.1372 19.5116 28.0858 19.6926C27.9477 19.8982 27.7237 20.4188 27.303 20.5762C26.8301 20.7837 26.8301 20.8351 26.7081 20.8351C26.5009 20.7837 26.053 20.5228 26.053 20.5228C26.053 20.4742 25.8755 21.0684 25.8755 21.0684C25.8755 21.0684 25.8193 21.4092 25.9309 21.5131Z" fill="#F4DB60"/>
</g>
<mask id="mask5_2454_35987" style="mask-type:alpha" maskUnits="userSpaceOnUse" x="26" y="19" width="10" height="4">
<path fill-rule="evenodd" clip-rule="evenodd" d="M26.3633 19.0419H35.4206V22.8391H26.3633V19.0419Z" fill="white"/>
</mask>
<g mask="url(#mask5_2454_35987)">
<path fill-rule="evenodd" clip-rule="evenodd" d="M27.2318 19.2506C27.1708 19.2506 26.3374 19.6926 26.3639 19.8981C26.3984 20.0556 27.7753 22.8102 30.762 22.8391C33.699 22.8648 35.5729 20.3674 35.4212 19.9544C35.2838 19.5373 34.3541 19.0419 34.3541 19.0419C34.3541 19.0419 34.6175 19.2506 34.6175 19.5116C34.5508 19.7457 33.4951 21.9551 30.9194 21.9038C28.3911 21.8483 27.1451 19.8981 27.1451 19.6412C27.1451 19.4056 27.2784 19.2784 27.2318 19.2506Z" fill="#F4DB60"/>
</g>
<mask id="mask6_2454_35987" style="mask-type:alpha" maskUnits="userSpaceOnUse" x="35" y="20" width="2" height="2">
<path fill-rule="evenodd" clip-rule="evenodd" d="M35.2617 20.0298H36.1714V21.4092H35.2617V20.0298Z" fill="white"/>
</mask>
<g mask="url(#mask6_2454_35987)">
<path fill-rule="evenodd" clip-rule="evenodd" d="M35.2617 21.2542C35.3348 21.1755 35.7307 19.9761 35.99 20.0298C36.2533 20.0556 36.1714 20.3932 36.1714 20.4742C36.116 20.5762 35.8871 21.4092 35.8871 21.4092C35.8871 21.4092 35.8871 21.2257 35.7307 21.1755C35.5725 21.1478 35.2834 21.2799 35.2617 21.2542Z" fill="#C12026"/>
</g>
<mask id="mask7_2454_35987" style="mask-type:alpha" maskUnits="userSpaceOnUse" x="25" y="20" width="2" height="2">
<path fill-rule="evenodd" clip-rule="evenodd" d="M25.5645 20.0556H26.47V21.5389H25.5645V20.0556Z" fill="white"/>
</mask>
<g mask="url(#mask7_2454_35987)">
<path fill-rule="evenodd" clip-rule="evenodd" d="M25.9305 21.5389C25.9305 21.457 25.7137 21.2542 25.9562 21.1756C26.1849 21.1222 26.47 21.2542 26.47 21.2542C26.47 21.2542 26.3174 20.7336 26.1343 20.3674C25.9305 19.9761 25.875 20.0298 25.7137 20.1086C25.529 20.1619 25.529 20.343 25.6414 20.5763C25.7417 20.8351 25.9305 21.5895 25.9305 21.5389Z" fill="#C12026"/>
</g>
<path fill-rule="evenodd" clip-rule="evenodd" d="M28.6546 19.304L28.918 18.341L28.1367 17.7416L29.1211 17.716L29.4623 16.7533L29.7955 17.716L30.7613 17.7416L30.005 18.341L30.27 19.304L29.4623 18.7549L28.6546 19.304Z" fill="#F0C225"/>
<path fill-rule="evenodd" clip-rule="evenodd" d="M34.0091 14.2599V18.0287C34.038 19.819 32.1649 21.4345 30.9188 21.7463C29.6912 21.4345 27.8262 19.819 27.8262 18.0287V14.2599H34.0091Z" fill="white"/>
<mask id="mask8_2454_35987" style="mask-type:alpha" maskUnits="userSpaceOnUse" x="27" y="14" width="8" height="4">
<path fill-rule="evenodd" clip-rule="evenodd" d="M27.8262 14.2599H34.0091V17.1174H27.8262V14.2599Z" fill="white"/>
</mask>
<g mask="url(#mask8_2454_35987)">
<path fill-rule="evenodd" clip-rule="evenodd" d="M27.8262 14.2599V16.596C27.8262 16.596 27.8776 16.5715 28.2621 16.5715C28.7037 16.596 28.7599 17.0917 29.1774 17.0917C29.5932 17.0917 29.5932 16.5715 30.0549 16.5715C30.4724 16.5715 30.4724 17.0917 30.9188 17.0917C31.4415 17.0917 31.4415 16.5715 31.8285 16.5715C32.2444 16.5715 32.2444 17.0917 32.7125 17.1174C33.1291 17.0917 33.1291 16.5715 33.5715 16.5715H34.0091V14.2599H27.8262Z" fill="#C12026"/>
</g>
<path fill-rule="evenodd" clip-rule="evenodd" d="M31.8305 16.5715C32.0641 16.5715 32.1668 16.7007 32.272 16.8304C32.3787 16.962 32.5056 17.0917 32.7144 17.0917C32.9231 17.0917 33.0339 16.962 33.1311 16.8304C33.2323 16.7007 33.3438 16.5715 33.5735 16.5458L34.011 16.5715L33.9893 14.2599L27.8281 14.2828L27.849 16.5715C27.8795 16.5715 28.0104 16.5458 28.2641 16.5715C28.4985 16.5715 28.6093 16.7007 28.7618 16.8304C28.8646 16.962 28.9401 17.0636 29.1793 17.0636C29.3873 17.0636 29.4893 16.962 29.5952 16.8304C29.6932 16.7007 29.8281 16.5715 30.0568 16.5715C30.2721 16.5715 30.3973 16.7007 30.5048 16.8304C30.6373 16.962 30.7128 17.0636 30.9207 17.0636C31.0982 17.0636 31.2869 16.962 31.3825 16.8304C31.4948 16.7007 31.5976 16.5715 31.8305 16.5715ZM32.7136 17.1419C32.4502 17.1419 32.3435 16.9845 32.2262 16.8601C32.1395 16.7288 32.0383 16.596 31.8296 16.596C31.5968 16.596 31.5149 16.7288 31.4426 16.8601C31.286 16.9845 31.1552 17.1174 30.9199 17.1174C30.6606 17.1174 30.5796 16.9845 30.4736 16.8601C30.3451 16.7288 30.2713 16.596 30.056 16.596C29.8594 16.596 29.7477 16.7288 29.5944 16.8601C29.4884 16.9845 29.3864 17.1174 29.1785 17.1174C28.9192 17.1174 28.8124 16.9845 28.7048 16.8601C28.6085 16.7288 28.4712 16.6236 28.2633 16.596C27.9027 16.5715 27.8481 16.596 27.8481 16.596L27.8008 14.2599L34.0102 14.2343L34.0391 16.5715H33.5727C33.3638 16.5715 33.2555 16.7288 33.1816 16.8601C33.0548 16.9845 32.9223 17.1419 32.7136 17.1419Z" fill="#020303"/>
<mask id="mask9_2454_35987" style="mask-type:alpha" maskUnits="userSpaceOnUse" x="27" y="17" width="8" height="2">
<path fill-rule="evenodd" clip-rule="evenodd" d="M27.8262 17.3506H34.0091V18.6533H27.8262V17.3506Z" fill="white"/>
</mask>
<g mask="url(#mask9_2454_35987)">
<path fill-rule="evenodd" clip-rule="evenodd" d="M27.8262 17.3506V18.1559H28.2621C28.7037 18.1841 28.7599 18.6534 29.1774 18.6534C29.5932 18.6534 29.5932 18.1559 30.0549 18.1559C30.4724 18.1559 30.4724 18.6534 30.9188 18.6534C31.4415 18.6534 31.4415 18.1559 31.8285 18.1559C32.2444 18.1559 32.2251 18.6252 32.7125 18.6534C33.0987 18.6252 33.1291 18.1841 33.5715 18.1559H34.0091V17.3506H33.5715C33.1291 17.3506 33.1291 17.8733 32.7125 17.8733C32.2444 17.8733 32.2444 17.3506 31.8285 17.3506C31.4415 17.3506 31.4415 17.8733 30.9188 17.8733C30.4724 17.8733 30.4724 17.3506 30.0549 17.3506C29.5932 17.3506 29.5932 17.8733 29.1774 17.8733C28.7599 17.8733 28.7599 17.3506 28.2621 17.3506H27.8262Z" fill="#3960AC"/>
</g>
<mask id="mask10_2454_35987" style="mask-type:alpha" maskUnits="userSpaceOnUse" x="27" y="18" width="7" height="3">
<path fill-rule="evenodd" clip-rule="evenodd" d="M27.9473 18.8898H33.8307V20.1876H27.9473V18.8898Z" fill="white"/>
</mask>
<g mask="url(#mask10_2454_35987)">
<path fill-rule="evenodd" clip-rule="evenodd" d="M27.9473 18.9122L28.262 19.6925C28.7036 19.717 28.7598 20.1876 29.1773 20.1876C29.5932 20.1876 29.5932 19.6925 30.0548 19.6925C30.4723 19.6925 30.4723 20.1876 30.9187 20.1876C31.4414 20.1876 31.4414 19.6925 31.8284 19.6925C32.2443 19.6925 32.225 20.1619 32.7124 20.1876C33.0986 20.1619 33.129 19.717 33.5714 19.6925L33.8307 18.8897L33.5714 18.9122C33.129 18.9122 33.129 19.4056 32.7124 19.4056C32.2443 19.4056 32.2443 18.9122 31.8284 18.9122C31.4414 18.9122 31.4414 19.4056 30.9187 19.4056C30.4723 19.4056 30.4723 18.9122 30.0548 18.9122C29.5932 18.9122 29.5932 19.4056 29.1773 19.4056C28.7598 19.4056 28.7598 18.9122 28.262 18.9122H27.9473Z" fill="#3960AC"/>
</g>
<mask id="mask11_2454_35987" style="mask-type:alpha" maskUnits="userSpaceOnUse" x="29" y="20" width="4" height="2">
<path fill-rule="evenodd" clip-rule="evenodd" d="M29.4883 20.4188H32.3777V21.7464H29.4883V20.4188Z" fill="white"/>
</mask>
<g mask="url(#mask11_2454_35987)">
<path fill-rule="evenodd" clip-rule="evenodd" d="M30.9198 21.7464C31.4425 21.7464 32.3778 20.9668 32.3778 20.9668C32.3778 20.9668 32.2454 20.4188 31.8295 20.4188C31.4425 20.4188 31.4425 20.9668 30.9198 20.9668C30.4734 20.9668 30.4734 20.4188 30.0559 20.4188C29.5942 20.4188 29.4883 20.9668 29.4883 20.9668C29.4883 20.9668 30.4734 21.7464 30.9198 21.7464Z" fill="#3960AC"/>
</g>
<mask id="mask12_2454_35987" style="mask-type:alpha" maskUnits="userSpaceOnUse" x="28" y="15" width="3" height="2">
<path fill-rule="evenodd" clip-rule="evenodd" d="M28.4023 15.8979H30.3898V16.3953H28.4023V15.8979Z" fill="white"/>
</mask>
<g mask="url(#mask12_2454_35987)">
<path fill-rule="evenodd" clip-rule="evenodd" d="M28.6536 16.0547C28.7283 16.0547 29.1506 16.1054 29.4613 16.0795C29.7945 16.0795 29.9278 15.9489 29.9278 15.9489V15.8979H30.3429C30.3429 15.8979 30.4208 16.1569 30.3758 16.182C30.3132 16.2364 30.212 16.3162 30.1662 16.3162V16.182C30.0843 16.2364 30.0538 16.3162 30.0538 16.3162L30.0041 16.2364C29.9527 16.2364 29.9069 16.3162 29.9069 16.3162C29.9069 16.3162 29.9069 16.2364 29.8764 16.2364L29.7455 16.3446L29.5922 16.2619C29.5922 16.2619 29.5127 16.3953 29.4862 16.3953L29.3329 16.2903L29.0808 16.3953L29.0438 16.2364C28.9684 16.2619 28.7283 16.2619 28.7283 16.2619C28.7283 16.2619 28.6536 16.3953 28.6062 16.3953C28.6062 16.3953 28.469 16.2903 28.526 16.2903C28.526 16.2903 28.6062 16.2364 28.5717 16.182C28.5509 16.1569 28.4505 16.182 28.4505 16.1569C28.4505 16.1569 28.3686 16.0264 28.4184 16.0264C28.4505 16.0264 28.526 16.0547 28.526 16.0547V15.9201H28.6536V16.0547Z" fill="#F0C225"/>
</g>
<path fill-rule="evenodd" clip-rule="evenodd" d="M29.0149 16.5092C29.0824 16.5092 29.1008 16.6483 29.1008 16.7861L29.3088 16.5537C29.3858 16.6483 29.4878 16.7861 29.4878 16.7861C29.4878 16.6978 29.5424 16.6483 29.5937 16.5537L29.7471 16.6978C29.7961 16.6483 29.8587 16.5092 29.8587 16.5092C29.9085 16.5092 29.9085 16.5537 29.9293 16.6032C29.9293 16.5537 29.9543 16.5092 30.0056 16.5092C30.0056 16.5092 30.0554 16.5537 30.0554 16.6032C30.0554 16.5537 30.0859 16.5092 30.1373 16.4146C30.1678 16.3708 30.1678 16.5092 30.1678 16.5092C30.1935 16.6032 30.2401 16.5537 30.2706 16.5092C30.3148 16.5092 30.3444 16.4146 30.3444 16.4146C30.3958 16.4146 30.3773 16.1434 30.3444 15.9196H29.9293L29.9543 15.9584C29.9543 16.0573 29.7961 16.2359 29.4628 16.2359C29.2292 16.2811 28.9185 16.2359 28.7604 16.2359H28.6552L28.6343 15.9584H28.5275V16.1928H28.4199L28.4521 16.2811V16.3708H28.4705C28.5275 16.3708 28.5733 16.3708 28.5733 16.4146C28.5733 16.5537 28.5524 16.6032 28.5524 16.6032L28.6078 16.7861C28.6343 16.7861 28.6552 16.6483 28.7042 16.5537C28.7901 16.5092 28.9699 16.5092 29.0149 16.5092ZM29.0826 16.8697V16.7857C29.0826 16.648 29.0456 16.5088 29.0456 16.5088C28.9702 16.5533 28.7606 16.5533 28.7606 16.5533C28.6795 16.648 28.6554 16.7857 28.6081 16.7857L28.4972 16.6028C28.5277 16.5533 28.5527 16.5088 28.5735 16.5088C28.5277 16.3302 28.4202 16.5088 28.4202 16.3705C28.3913 16.2356 28.3704 16.143 28.3913 16.143C28.4523 16.0978 28.4972 16.143 28.5277 16.143L28.4972 15.958L28.6554 15.9192L28.6795 16.1925H28.7606C28.9188 16.2356 29.2295 16.2356 29.4631 16.2356C29.7963 16.1925 29.9087 16.0081 29.9087 16.0081V15.9192L30.3447 15.8698C30.3776 16.0081 30.4226 16.4142 30.3776 16.4693C30.3447 16.5088 30.315 16.5088 30.2901 16.5533C30.168 16.6974 30.168 16.648 30.168 16.5533V16.4693C30.1118 16.5088 30.0861 16.648 30.0861 16.648C30.0058 16.5088 29.981 16.5088 29.9087 16.648C29.8782 16.5533 29.8782 16.5088 29.8782 16.5088C29.8782 16.5088 29.7963 16.648 29.7473 16.7857L29.594 16.5533C29.5675 16.648 29.5145 16.7857 29.488 16.7857L29.309 16.6028L29.0826 16.8697Z" fill="#020303"/>
<mask id="mask13_2454_35987" style="mask-type:alpha" maskUnits="userSpaceOnUse" x="28" y="14" width="2" height="3">
<path fill-rule="evenodd" clip-rule="evenodd" d="M28.4531 14.6735H29.7481V16.0432H28.4531V14.6735Z" fill="white"/>
</mask>
<g mask="url(#mask13_2454_35987)">
<path fill-rule="evenodd" clip-rule="evenodd" d="M29.101 14.8031C29.0825 14.8031 28.9187 15.0115 28.9187 15.1941C28.9388 15.3751 29.3602 15.661 29.3602 15.661C29.3602 15.661 29.5939 15.5855 29.6918 15.661C29.7962 15.7657 29.7962 15.9994 29.7472 15.9994C29.6918 15.9994 29.3859 16.0777 29.3859 16.0251V15.9199C29.3346 15.9199 29.0825 15.9484 29.0825 15.9484L29.101 15.8978L28.8633 15.8444L28.9388 15.7657L28.608 15.6084L28.7605 15.5068L28.4707 15.3238H28.6553C28.6553 15.3238 28.4201 15.1664 28.4522 15.1664L28.5734 15.1941L28.4707 15.0115H28.5734L28.4707 14.8818L28.608 14.8031L28.6794 14.9866L28.6553 14.6734L28.8368 14.6991V14.9608L28.9187 14.7778L29.101 14.8031Z" fill="#F0C225"/>
</g>
<path fill-rule="evenodd" clip-rule="evenodd" d="M29.3592 15.9199C29.3592 15.9199 29.3849 15.9761 29.3849 16.0251H29.4106C29.4869 16.0251 29.5928 15.9994 29.6908 15.9994H29.7462C29.7462 15.9994 29.7462 15.7658 29.6908 15.661C29.5928 15.6084 29.3849 15.661 29.3849 15.661C29.3335 15.661 28.9377 15.3752 28.9176 15.1941C28.9176 15.0115 29.014 14.8818 29.0815 14.8031H28.9955C28.9377 14.8031 28.9176 14.7779 28.9176 14.7779C28.9176 14.7779 28.8871 14.8818 28.8622 14.9609L28.8358 14.6992L28.6543 14.6735L28.7033 14.9866L28.6069 14.8288L28.4961 14.8818L28.5724 15.0115L28.4696 15.0391L28.5724 15.1941H28.4512C28.4512 15.1941 28.5515 15.2756 28.6543 15.3238L28.4696 15.3495L28.7595 15.4792C28.7595 15.5293 28.6334 15.6084 28.6069 15.6084C28.6543 15.6084 28.8622 15.6895 28.9377 15.7401L28.8871 15.8444L29.0999 15.8697V15.9484C29.0999 15.9484 29.3335 15.9199 29.3592 15.9199ZM29.4115 16.0532H29.3858V15.9484C29.3344 15.9484 29.0824 15.9761 29.0824 15.9761L29.1008 15.8979L28.8631 15.8444L28.9386 15.7401L28.5733 15.6084C28.5733 15.6084 28.6792 15.5293 28.7604 15.4792L28.4705 15.3495L28.6552 15.3238L28.4199 15.1941C28.4521 15.1427 28.5733 15.1941 28.5733 15.1941L28.4705 15.0115H28.5733L28.4705 14.8818L28.6078 14.8031L28.7042 14.9609L28.6552 14.6735H28.8631V14.9609C28.8631 14.8288 28.9185 14.7779 28.9185 14.7779H29.0149C29.0454 14.7779 29.0824 14.8031 29.1008 14.8031C29.0454 14.8818 28.9185 15.0115 28.9386 15.1941C28.9699 15.3752 29.3601 15.6341 29.3601 15.6341C29.3601 15.6341 29.5937 15.5855 29.6917 15.661C29.796 15.7401 29.796 15.9484 29.7471 15.9994C29.7471 16.0251 29.6917 16.0251 29.6917 16.0251C29.5937 16.0532 29.4878 16.0532 29.4115 16.0532Z" fill="#020303"/>
<mask id="mask14_2454_35987" style="mask-type:alpha" maskUnits="userSpaceOnUse" x="32" y="16" width="2" height="1">
<path fill-rule="evenodd" clip-rule="evenodd" d="M32.8711 16.1646H33.345V16.5337H32.8711V16.1646Z" fill="white"/>
</mask>
<g mask="url(#mask14_2454_35987)">
<path fill-rule="evenodd" clip-rule="evenodd" d="M33.2126 16.1646C33.0677 16.3382 32.8711 16.5338 32.8711 16.5338H33.345L33.2126 16.1646Z" fill="#020303"/>
</g>
<mask id="mask15_2454_35987" style="mask-type:alpha" maskUnits="userSpaceOnUse" x="33" y="16" width="1" height="1">
<path fill-rule="evenodd" clip-rule="evenodd" d="M33.1602 16.2599H33.6122V16.727H33.1602V16.2599Z" fill="white"/>
</mask>
<g mask="url(#mask15_2454_35987)">
<path fill-rule="evenodd" clip-rule="evenodd" d="M33.3456 16.2599L33.1602 16.727C33.3456 16.6029 33.6123 16.3328 33.6123 16.3328L33.3456 16.2599Z" fill="#020303"/>
</g>
<mask id="mask16_2454_35987" style="mask-type:alpha" maskUnits="userSpaceOnUse" x="33" y="16" width="1" height="1">
<path fill-rule="evenodd" clip-rule="evenodd" d="M33.4648 16.2609H33.8683V16.7412H33.4648V16.2609Z" fill="white"/>
</mask>
<g mask="url(#mask16_2454_35987)">
<path fill-rule="evenodd" clip-rule="evenodd" d="M33.4648 16.2609C33.6078 16.4565 33.9326 16.9148 33.8683 16.7411C33.8683 16.7411 33.8063 16.2609 33.7421 16.2609C33.7421 16.2609 33.5166 16.3631 33.4648 16.2609Z" fill="#020303"/>
</g>
<mask id="mask17_2454_35987" style="mask-type:alpha" maskUnits="userSpaceOnUse" x="30" y="16" width="2" height="1">
<path fill-rule="evenodd" clip-rule="evenodd" d="M30.7383 16.1065H31.2147V16.5091H30.7383V16.1065Z" fill="white"/>
</mask>
<g mask="url(#mask17_2454_35987)">
<path fill-rule="evenodd" clip-rule="evenodd" d="M31.0669 16.1065C31.0235 16.1065 30.7383 16.5091 30.7383 16.5091L31.2147 16.3388L31.0669 16.1065Z" fill="#020303"/>
</g>
<mask id="mask18_2454_35987" style="mask-type:alpha" maskUnits="userSpaceOnUse" x="31" y="16" width="1" height="1">
<path fill-rule="evenodd" clip-rule="evenodd" d="M31.0273 16.2399H31.4227V16.7167H31.0273V16.2399Z" fill="white"/>
</mask>
<g mask="url(#mask18_2454_35987)">
<path fill-rule="evenodd" clip-rule="evenodd" d="M31.1451 16.2398C31.1451 16.2398 30.8698 16.7167 31.027 16.7167C31.0787 16.7167 31.4224 16.4016 31.4224 16.4016L31.1451 16.2398Z" fill="#020303"/>
</g>
<mask id="mask19_2454_35987" style="mask-type:alpha" maskUnits="userSpaceOnUse" x="30" y="15" width="2" height="2">
<path fill-rule="evenodd" clip-rule="evenodd" d="M30.8027 15.9796H31.2404V16.3619H30.8027V15.9796Z" fill="white"/>
</mask>
<g mask="url(#mask19_2454_35987)">
<path fill-rule="evenodd" clip-rule="evenodd" d="M31.1776 16.3619C31.1182 16.3619 30.8027 16.0831 30.8027 16.0831C30.8751 16.0831 31.2404 15.9796 31.2404 15.9796L31.1776 16.3619Z" fill="#020303"/>
</g>
<mask id="mask20_2454_35987" style="mask-type:alpha" maskUnits="userSpaceOnUse" x="28" y="15" width="1" height="2">
<path fill-rule="evenodd" clip-rule="evenodd" d="M28.3652 15.8315H28.8238V16.3028H28.3652V15.8315Z" fill="white"/>
</mask>
<g mask="url(#mask20_2454_35987)">
<path fill-rule="evenodd" clip-rule="evenodd" d="M28.7321 16.3028L28.3652 15.8314L28.8238 16.119L28.7321 16.3028Z" fill="#020303"/>
</g>
<mask id="mask21_2454_35987" style="mask-type:alpha" maskUnits="userSpaceOnUse" x="28" y="16" width="1" height="1">
<path fill-rule="evenodd" clip-rule="evenodd" d="M28.0898 16.0596H28.5617V16.4512H28.0898V16.0596Z" fill="white"/>
</mask>
<g mask="url(#mask21_2454_35987)">
<path fill-rule="evenodd" clip-rule="evenodd" d="M28.4561 16.0595L28.0898 16.4513H28.5617C28.5617 16.4513 28.483 16.1447 28.4561 16.0595Z" fill="#020303"/>
</g>
<mask id="mask22_2454_35987" style="mask-type:alpha" maskUnits="userSpaceOnUse" x="28" y="16" width="1" height="1">
<path fill-rule="evenodd" clip-rule="evenodd" d="M28.2695 16.2399H28.7144V16.7167H28.2695V16.2399Z" fill="white"/>
</mask>
<g mask="url(#mask22_2454_35987)">
<path fill-rule="evenodd" clip-rule="evenodd" d="M28.6109 16.2398C28.5375 16.2398 28.2695 16.7167 28.2695 16.7167H28.7144C28.7144 16.5646 28.6109 16.2398 28.6109 16.2398Z" fill="#020303"/>
</g>
<mask id="mask23_2454_35987" style="mask-type:alpha" maskUnits="userSpaceOnUse" x="28" y="14" width="1" height="2">
<path fill-rule="evenodd" clip-rule="evenodd" d="M28.4805 14.7536H28.8818V15.1632H28.4805V14.7536Z" fill="white"/>
</mask>
<g mask="url(#mask23_2454_35987)">
<path fill-rule="evenodd" clip-rule="evenodd" d="M28.528 15.1632L28.4805 14.7535L28.8818 15.0256L28.528 15.1632Z" fill="#020303"/>
</g>
<mask id="mask24_2454_35987" style="mask-type:alpha" maskUnits="userSpaceOnUse" x="28" y="14" width="2" height="2">
<path fill-rule="evenodd" clip-rule="evenodd" d="M28.707 14.5778H29.1217V15.0479H28.707V14.5778Z" fill="white"/>
</mask>
<g mask="url(#mask24_2454_35987)">
<path fill-rule="evenodd" clip-rule="evenodd" d="M28.707 14.9545V14.5778L29.1217 15.0479C29.1217 15.0479 28.707 15.0479 28.707 14.9545Z" fill="#020303"/>
</g>
<mask id="mask25_2454_35987" style="mask-type:alpha" maskUnits="userSpaceOnUse" x="28" y="14" width="2" height="2">
<path fill-rule="evenodd" clip-rule="evenodd" d="M28.9336 14.6476H29.3446V15.0681H28.9336V14.6476Z" fill="white"/>
</mask>
<g mask="url(#mask25_2454_35987)">
<path fill-rule="evenodd" clip-rule="evenodd" d="M28.9336 14.9468L28.9789 14.6476L29.3446 15.0681C29.303 15.0681 28.9789 15.0107 28.9336 14.9468Z" fill="#020303"/>
</g>
<mask id="mask26_2454_35987" style="mask-type:alpha" maskUnits="userSpaceOnUse" x="30" y="15" width="3" height="2">
<path fill-rule="evenodd" clip-rule="evenodd" d="M30.8633 15.7124H32.3774V16.3167H30.8633V15.7124Z" fill="white"/>
</mask>
<g mask="url(#mask26_2454_35987)">
<path fill-rule="evenodd" clip-rule="evenodd" d="M31.4678 15.7124C31.4678 15.7124 31.6966 15.8993 31.7215 15.9502C31.7215 16.0016 31.2093 16.0016 31.2093 16.0016C31.2093 16.0016 31.0471 15.8993 31.0214 15.9215C31.0013 15.9215 30.9403 16.0016 30.9403 16.0016L31.0688 16.0805H30.8633L30.9194 16.1577H31.0969L31.0471 16.2625C31.0471 16.2625 31.1547 16.3167 31.2093 16.3167C31.2093 16.3167 31.2855 16.2144 31.3321 16.1828C31.4421 16.1577 31.5144 16.1577 31.5144 16.1577L31.4678 16.2908C31.4935 16.2908 31.6476 16.1577 31.6476 16.1577L31.6966 16.2908L31.8291 16.1347V16.2625L32.0114 16.1063L32.1655 16.2625C32.1904 16.2625 32.2257 16.0805 32.2257 16.0805H32.3774C32.3774 16.0805 32.3012 16.0275 32.2707 15.9502C32.2707 15.8993 32.3012 15.7124 32.3012 15.7124H31.4678Z" fill="#F0C225"/>
</g>
<path fill-rule="evenodd" clip-rule="evenodd" d="M31.095 16.3996L31.0452 16.6034C31.095 16.6034 31.1528 16.6898 31.1528 16.6898C31.2836 16.5627 31.2836 16.4763 31.3302 16.4763C31.3792 16.4364 31.4915 16.4364 31.4915 16.4364C31.4915 16.5627 31.4658 16.6034 31.4658 16.6485C31.4915 16.6485 31.5944 16.5627 31.6457 16.4364C31.6947 16.5627 31.6947 16.6034 31.6947 16.6034C31.6947 16.6034 31.7757 16.4763 31.7967 16.3996C31.8272 16.4763 31.8272 16.5627 31.8272 16.5627C31.8272 16.5627 31.958 16.4763 32.0094 16.3545C32.0608 16.4763 32.1636 16.5627 32.1636 16.5627C32.1636 16.5627 32.1885 16.5627 32.1885 16.4763C32.2237 16.3545 32.2237 16.3132 32.2237 16.3132H32.341C32.341 16.3132 32.2687 16.2288 32.2687 16.1056C32.2431 16.0244 32.2687 15.8974 32.2687 15.8123V15.7265C32.1371 15.7265 31.5944 15.771 31.4915 15.7265C31.5124 15.771 31.5124 15.8123 31.5373 15.8123C31.6457 15.9386 31.7196 16.0599 31.7196 16.0599C31.6947 16.1875 31.3302 16.1875 31.2074 16.1875C31.1528 16.1875 31.0452 16.0599 31.0452 16.0599C30.9994 16.0599 30.9994 16.1875 30.9994 16.1875L31.0668 16.2739L30.8613 16.3132L30.9384 16.4364L31.095 16.3996ZM31.153 16.6895C31.153 16.6895 31.0455 16.6482 31.0455 16.6031L31.0671 16.4361L30.9177 16.476L30.8359 16.313L31.0671 16.2736L30.9387 16.2285C30.9387 16.1872 30.9683 16.0241 31.0197 16.0241C31.0671 16.0241 31.2077 16.1499 31.2077 16.1499C31.4661 16.1499 31.695 16.1054 31.695 16.1054C31.695 16.1054 31.5641 15.8971 31.5127 15.812L31.4404 15.7262H31.5641C31.776 15.7262 32.1638 15.6895 32.2433 15.6895C32.2995 15.6895 32.2995 15.7262 32.2995 15.812C32.2995 15.8971 32.269 16.0241 32.2995 16.1054C32.2995 16.1872 32.3413 16.2736 32.3757 16.313L32.224 16.3542V16.476C32.224 16.5624 32.1887 16.6031 32.1887 16.6031C32.1374 16.6031 32.0611 16.476 32.0097 16.3994C31.9583 16.476 31.8532 16.6031 31.8532 16.6031C31.8532 16.6031 31.7969 16.6031 31.7969 16.3994L31.695 16.6482L31.646 16.4361C31.6195 16.5264 31.4918 16.6895 31.4661 16.6895C31.4404 16.6031 31.4661 16.5624 31.4918 16.476C31.4661 16.476 31.3795 16.476 31.3305 16.5264C31.3305 16.5624 31.2839 16.6031 31.2077 16.6482L31.153 16.6895Z" fill="#020303"/>
<mask id="mask27_2454_35987" style="mask-type:alpha" maskUnits="userSpaceOnUse" x="29" y="14" width="5" height="3">
<path fill-rule="evenodd" clip-rule="evenodd" d="M29.8789 14.4932H33.6484V16.3402H29.8789V14.4932Z" fill="white"/>
</mask>
<g mask="url(#mask27_2454_35987)">
<path fill-rule="evenodd" clip-rule="evenodd" d="M30.1133 15.3752H32.5372C32.8512 15.3752 33.0342 15.2981 33.0342 15.1664C33.0342 15.0391 32.6335 15.0115 32.4513 15.0649C32.3236 15.1163 31.6982 15.3495 31.4437 15.3238C31.0985 15.3238 30.8648 15.1664 30.8206 15.0115C30.7846 14.8288 30.9419 14.724 31.2871 14.724C31.5409 14.724 31.9069 14.8031 31.9615 14.7778C32.0394 14.7778 32.2272 14.5943 32.2723 14.5699C32.3446 14.5418 32.5613 14.4932 32.5613 14.4932L32.4513 14.5943L32.8512 14.4932C32.8512 14.4932 32.5372 14.7778 32.3028 14.8031C32.0643 14.9328 31.5409 14.8818 31.3337 14.8818C31.0985 14.8818 31.0029 14.8288 31.0229 15.0115C31.0487 15.1427 31.2109 15.2198 31.3827 15.1941C31.5159 15.1664 31.8756 15.0649 31.8756 15.0649L31.7792 15.0115L32.2272 14.9866C32.2272 14.9866 32.1671 14.9328 32.2272 14.9328L32.4248 14.9609L32.3236 14.8288C32.3446 14.8288 32.4248 14.8288 32.6592 14.8818C32.872 14.9328 33.2831 14.9866 33.2566 15.1427C33.2325 15.3238 33.0751 15.4534 32.9234 15.4534C32.7147 15.4534 32.5613 15.4301 32.5613 15.4791C32.5613 15.557 32.815 15.6084 32.9234 15.6084C33.0342 15.6084 33.1827 15.5068 33.2076 15.5068L33.2831 15.6341C33.32 15.6341 33.4967 15.6084 33.4967 15.6084L33.3649 15.8445L33.5488 15.8979C33.5488 15.8979 33.4412 15.9484 33.4967 15.9484C33.4967 15.9484 33.6492 15.9484 33.6492 15.9762L33.4412 16.1315L33.5978 16.233C33.5978 16.233 33.4967 16.3904 33.4967 16.3402C33.4412 16.3121 33.3441 16.233 33.3441 16.233C33.3441 16.233 33.32 16.3121 33.2831 16.3121C33.2325 16.3121 33.1313 16.2864 33.1313 16.2864C33.1313 16.2864 33.2076 16.1315 33.1827 16.1315L33.0342 16.233L32.9483 16.1315C32.9483 16.1315 33.1827 16.0777 33.1827 15.9762C33.1827 15.8979 33.0751 15.7658 32.7147 15.7658C32.3446 15.7658 32.3446 15.8445 32.0643 15.8188C31.8002 15.8188 31.8002 15.7124 31.5978 15.7124C31.4437 15.7124 30.7636 15.9199 30.4746 15.9199C30.2153 15.9199 29.8604 15.9199 29.8797 15.8979L30.1133 15.3752Z" fill="#F0C225"/>
</g>
<path fill-rule="evenodd" clip-rule="evenodd" d="M33.3433 16.233C33.3642 16.233 33.4605 16.3121 33.4959 16.3402C33.4959 16.3402 33.5481 16.2864 33.573 16.233C33.4405 16.1792 33.4405 16.1544 33.4405 16.1544C33.4405 16.1544 33.4605 16.1034 33.5481 16.0532C33.573 16.0251 33.622 15.9994 33.622 15.9994C33.622 15.9994 33.573 15.9762 33.4959 15.9762C33.4605 15.9484 33.4605 15.9199 33.5481 15.8698L33.3642 15.8445L33.4605 15.6084C33.4405 15.6084 33.3193 15.661 33.2824 15.661C33.2824 15.661 33.2824 15.6341 33.2318 15.5855C33.2318 15.5855 33.2068 15.5293 33.1819 15.5293V15.557C33.1001 15.5855 33.0334 15.6084 32.9226 15.6084C32.8143 15.6084 32.5606 15.5855 32.5606 15.4791C32.5606 15.4535 32.6328 15.4535 32.6585 15.4535H32.7709H32.9226C33.0551 15.4535 33.2068 15.2981 33.2318 15.1427C33.2558 15.1427 33.2318 15.1163 33.2068 15.0878C33.1305 14.9866 32.8504 14.9328 32.6585 14.8818H32.3782C32.3782 14.8818 32.4048 14.8818 32.4241 14.9328C32.4241 14.9609 32.2265 14.9328 32.2265 14.9328V14.9866L31.7785 15.0115L31.8749 15.0649C31.8749 15.0649 31.5152 15.1941 31.382 15.1941C31.2101 15.1941 31.048 15.1163 31.0021 15.0115C31.0021 14.9866 31.0021 14.9609 31.0222 14.9328C31.048 14.8818 31.0977 14.8818 31.2101 14.8818H31.6974C31.9608 14.8818 32.1663 14.8288 32.302 14.8031C32.5364 14.7497 32.8504 14.4932 32.8504 14.4932L32.4505 14.618L32.5606 14.4932C32.5051 14.5418 32.3438 14.5699 32.2715 14.5699C32.2715 14.5699 32.1912 14.6486 32.115 14.6735C32.0636 14.7497 31.9873 14.7778 31.9608 14.8031C31.8749 14.8031 31.7785 14.8031 31.6974 14.7778C31.4429 14.7497 31.0021 14.6991 30.8961 14.8818C30.8384 14.9328 30.8384 14.9866 30.8384 15.0115C30.8641 15.1427 31.0977 15.2981 31.4429 15.3238C31.6974 15.3238 32.0636 15.1941 32.3229 15.1163C32.3782 15.0878 32.4241 15.0649 32.4505 15.0392C32.5051 15.0392 32.5863 15.0115 32.7139 15.0115C32.8504 15.0115 33.0551 15.0649 33.0551 15.1664C33.0551 15.2981 32.8504 15.3997 32.5364 15.3997H30.1125C30.1125 15.3997 29.8789 15.8979 29.8789 15.9199C29.8789 15.8979 30.2145 15.9199 30.4739 15.9199C30.6368 15.9199 30.9202 15.8445 31.1555 15.7883C31.382 15.7658 31.5401 15.7124 31.5971 15.7124C31.7224 15.7124 31.7785 15.7401 31.83 15.7658C31.8749 15.7658 31.9608 15.7883 32.0636 15.8188C32.2265 15.8188 32.2458 15.7883 32.3438 15.7658H32.6328H32.7139C33.0334 15.7658 33.1819 15.8445 33.1819 15.9762C33.1819 16.0777 32.9684 16.1544 32.9684 16.1544L33.0334 16.2106C33.0551 16.2106 33.0743 16.1792 33.1001 16.1792C33.1305 16.1315 33.1819 16.1315 33.1819 16.1315C33.1819 16.1315 33.1819 16.233 33.1515 16.2864C33.1819 16.2583 33.2318 16.2864 33.2824 16.2864C33.3193 16.2864 33.3433 16.233 33.3433 16.233ZM33.4956 16.3904H33.4602C33.4401 16.3402 33.3638 16.2583 33.343 16.233C33.343 16.233 33.319 16.3121 33.282 16.3121C33.2314 16.3121 33.1302 16.2864 33.1302 16.2864C33.1511 16.233 33.1816 16.1544 33.1816 16.1544L33.0998 16.1792C33.074 16.233 33.0548 16.233 33.0331 16.233L32.9472 16.1544C32.9472 16.1544 33.1302 16.0777 33.1302 15.9762C33.1302 15.8445 33.0331 15.7883 32.7136 15.7658H32.6325C32.4502 15.7658 32.4045 15.7883 32.3435 15.7883C32.2712 15.8188 32.2262 15.8445 32.0881 15.8445C31.9324 15.8445 31.8745 15.7883 31.7991 15.7658C31.7589 15.7658 31.6971 15.7401 31.5968 15.7401C31.5398 15.7401 31.3326 15.7658 31.1552 15.8188C30.9199 15.8979 30.6365 15.9484 30.504 15.9484C30.2905 15.9199 29.8786 15.9199 29.8594 15.8979C29.8594 15.8979 30.0865 15.3997 30.1122 15.3752H32.5361C32.8501 15.3752 33.0331 15.2981 33.0331 15.1664C33.0331 15.0649 32.6325 15.0392 32.4502 15.0649C32.4237 15.0878 32.3779 15.1163 32.3226 15.1427C32.0632 15.2198 31.6971 15.3495 31.4683 15.3495C31.0974 15.3238 30.8381 15.1941 30.7835 15.0115C30.7835 14.9866 30.7835 14.8818 30.8638 14.8288C31.0018 14.6735 31.4426 14.6991 31.722 14.7497C31.7782 14.7778 31.8745 14.7778 31.9324 14.7778C31.9324 14.7778 32.0632 14.724 32.0881 14.6735C32.166 14.618 32.2262 14.5699 32.2712 14.5699C32.3435 14.5418 32.5603 14.4932 32.5603 14.4932L32.4502 14.618L32.8501 14.4932C32.8501 14.5418 32.5603 14.7778 32.3017 14.8288C32.1909 14.8818 31.9604 14.8818 31.6971 14.8818H31.2098C31.0974 14.8818 31.0476 14.8818 31.0476 14.9328V15.0115C31.0476 15.1163 31.2098 15.1941 31.3326 15.1941C31.5149 15.1427 31.8745 15.0392 31.8745 15.0392L31.759 15.0115L32.2262 14.9866C32.2262 14.9866 32.166 14.9328 32.1909 14.9328C32.2262 14.8818 32.4237 14.9328 32.4237 14.9328C32.3017 14.8818 32.3017 14.8818 32.3226 14.8288C32.3435 14.8288 32.4237 14.8288 32.6581 14.8818C32.8709 14.8818 33.1816 14.9866 33.2314 15.0649C33.2555 15.0878 33.282 15.1427 33.282 15.1427C33.2314 15.3238 33.074 15.4791 32.9223 15.4791C32.8501 15.4791 32.8501 15.4535 32.7706 15.4535C32.6325 15.4535 32.586 15.4791 32.586 15.4791C32.586 15.5293 32.789 15.5855 32.9223 15.5855C33.0034 15.5855 33.0998 15.557 33.1511 15.5068C33.2314 15.4535 33.2314 15.4791 33.282 15.5855V15.6341C33.319 15.6341 33.3888 15.6084 33.4956 15.5855L33.3638 15.8445L33.5477 15.8698C33.5148 15.9199 33.4956 15.9484 33.4956 15.9484C33.6481 15.9484 33.6481 15.9484 33.6481 15.9762C33.6481 15.9762 33.6481 16.0251 33.5477 16.0777L33.4602 16.1544C33.4602 16.1544 33.5477 16.2106 33.5967 16.233L33.4956 16.3904Z" fill="#020303"/>
<mask id="mask28_2454_35987" style="mask-type:alpha" maskUnits="userSpaceOnUse" x="29" y="14" width="2" height="2">
<path fill-rule="evenodd" clip-rule="evenodd" d="M29.3594 14.5699H30.5283V15.9484H29.3594V14.5699Z" fill="white"/>
</mask>
<g mask="url(#mask28_2454_35987)">
<path fill-rule="evenodd" clip-rule="evenodd" d="M29.593 15.2756C29.593 15.2756 29.3851 15.2981 29.3594 15.4791C29.3594 15.6895 29.3851 15.6895 29.3851 15.6895C29.4108 15.661 29.4871 15.4791 29.4871 15.4791C29.4871 15.4791 29.3851 15.7401 29.4871 15.7882C29.5666 15.8444 29.691 15.8697 29.691 15.8697V15.661C29.691 15.661 29.6436 15.8444 29.7953 15.9199C29.9535 15.9994 30.0049 15.9199 30.0049 15.8979C30.0049 15.8444 29.9286 15.7124 29.9286 15.7124L30.0546 15.8444C30.0546 15.8444 30.1365 15.9199 30.2699 15.8979C30.3951 15.8697 30.2891 15.7658 30.2891 15.7658L30.1365 15.661C30.1365 15.661 30.2891 15.8188 30.3766 15.7658C30.4513 15.7124 30.3141 15.5855 30.3141 15.5855C30.3141 15.5855 30.4513 15.7658 30.4722 15.6341C30.5283 15.5293 30.4216 15.4791 30.3766 15.3997C30.3437 15.2981 30.3141 15.2981 30.3437 15.2198C30.3951 15.1427 30.3951 15.0115 30.3951 15.0115C30.3951 15.0115 30.5283 15.0649 30.5283 14.9609C30.5283 14.8031 30.3766 14.7778 30.3437 14.7778C30.3437 14.7778 30.3141 14.6486 30.2891 14.6734L30.1928 14.7497L30.1109 14.5699C30.0852 14.5699 30.0049 14.6734 29.9077 14.6734C29.8259 14.6734 29.7953 14.7778 29.7953 14.7778C29.7953 14.7778 29.4871 14.6734 29.5136 14.8288C29.5136 15.0391 29.691 15.0115 29.691 15.0115C29.691 15.0115 29.6436 15.2455 29.593 15.2756Z" fill="#F0C225"/>
</g>
<path fill-rule="evenodd" clip-rule="evenodd" d="M29.9086 15.9484H29.8267C29.7472 15.9199 29.6918 15.8979 29.6918 15.8445V15.8698C29.6445 15.8979 29.5425 15.8445 29.4879 15.7882C29.4116 15.7658 29.4116 15.7124 29.4116 15.6341C29.4116 15.6895 29.3859 15.6895 29.3859 15.6895C29.3603 15.661 29.3346 15.6341 29.3603 15.4791C29.3603 15.2981 29.5425 15.2756 29.5939 15.2455C29.6445 15.2455 29.6445 15.0649 29.6445 15.0115C29.6918 15.0877 29.6445 15.2756 29.6445 15.2756C29.5425 15.2981 29.3859 15.3238 29.3859 15.4791C29.3603 15.6341 29.3859 15.661 29.3859 15.661C29.3859 15.661 29.4116 15.6084 29.463 15.5069C29.463 15.6084 29.4365 15.7658 29.4879 15.7658C29.5674 15.8445 29.6918 15.8445 29.6918 15.8445V15.7658V15.661V15.7658C29.6918 15.8445 29.7472 15.8979 29.7962 15.9199C29.8781 15.9484 29.9544 15.9484 29.9544 15.9484C29.9544 15.8445 29.9086 15.7124 29.9086 15.7124C30.0058 15.7658 30.0555 15.8188 30.0555 15.8188C30.0555 15.8188 30.1679 15.9199 30.2708 15.8979C30.2708 15.8979 30.3149 15.8698 30.3149 15.8445L30.29 15.7882L30.2137 15.7658C30.1679 15.7124 30.1374 15.661 30.1374 15.661C30.1679 15.6341 30.1679 15.6895 30.2402 15.7124H30.2708C30.2708 15.7658 30.3149 15.7658 30.3149 15.7658C30.3959 15.7401 30.4225 15.7124 30.3775 15.661C30.3446 15.6341 30.3446 15.6084 30.3446 15.6084H30.3149V15.5855V15.6084C30.3149 15.6084 30.3959 15.6084 30.3959 15.6341C30.4225 15.661 30.4521 15.661 30.4521 15.661C30.5035 15.5855 30.4731 15.557 30.4521 15.4791C30.4225 15.4534 30.3959 15.4534 30.3775 15.3997C30.3446 15.3752 30.3446 15.3238 30.3446 15.3238C30.3149 15.2981 30.3149 15.2455 30.3149 15.2455C30.3775 15.1427 30.3775 15.0115 30.3775 15.0115H30.4521H30.5292V14.9866C30.5292 14.8288 30.3959 14.8031 30.3446 14.8031C30.3446 14.8031 30.3149 14.7497 30.29 14.6991C30.29 14.6734 30.2137 14.7497 30.2137 14.7497C30.1679 14.6734 30.1117 14.5944 30.1117 14.5944C30.0363 14.6486 29.9809 14.6734 29.9086 14.6734C29.8267 14.6734 29.7962 14.7778 29.7962 14.7778C29.7962 14.7778 29.6918 14.7497 29.5939 14.7497L29.5425 14.7778L29.5144 14.8031C29.5144 14.9609 29.5674 15.0115 29.6445 15.0115C29.5425 15.0115 29.4879 14.9866 29.4879 14.8288C29.4879 14.8288 29.4879 14.7778 29.5144 14.7778C29.5939 14.6991 29.7962 14.7497 29.7962 14.7497C29.7962 14.7497 29.8267 14.6734 29.9086 14.6486C29.9544 14.6486 30.0363 14.618 30.086 14.5699C30.1117 14.5699 30.1374 14.5699 30.2137 14.7241L30.29 14.6486H30.3149V14.6991L30.3446 14.7778C30.4225 14.7778 30.5292 14.8031 30.5292 14.9609V15.0115C30.5292 15.0115 30.4731 15.0391 30.4521 15.0391H30.3959C30.4225 15.0391 30.3959 15.1427 30.3446 15.2198V15.2981C30.3775 15.3238 30.3959 15.3495 30.3959 15.3997C30.4225 15.4301 30.4521 15.4534 30.4521 15.4791C30.5035 15.5293 30.5292 15.5855 30.5035 15.661C30.4731 15.7124 30.4521 15.7124 30.4521 15.7124C30.4225 15.7401 30.4225 15.7658 30.3959 15.7658H30.3446H30.3149L30.3446 15.8445C30.3446 15.8979 30.3149 15.8979 30.2708 15.9199C30.1374 15.9484 30.0555 15.8979 30.0363 15.8445C30.0363 15.8445 30.0058 15.7882 29.9544 15.7658C29.9544 15.7658 30.0058 15.8445 30.0058 15.8979V15.9199C30.0058 15.9199 29.9544 15.9484 29.9086 15.9484Z" fill="#020303"/>
<mask id="mask29_2454_35987" style="mask-type:alpha" maskUnits="userSpaceOnUse" x="29" y="14" width="2" height="2">
<path fill-rule="evenodd" clip-rule="evenodd" d="M29.8008 14.9913H30.2734V15.4237H29.8008V14.9913Z" fill="white"/>
</mask>
<g mask="url(#mask29_2454_35987)">
<path fill-rule="evenodd" clip-rule="evenodd" d="M29.8008 15.1471C29.8008 15.1471 29.9422 14.9913 30.0543 14.9913C30.1575 15.1471 30.3422 15.1471 30.2734 15.298C30.1575 15.4656 30.1013 15.4656 29.9855 15.298C29.8697 15.298 29.8008 15.298 29.8008 15.1471Z" fill="#020303"/>
</g>
<mask id="mask30_2454_35987" style="mask-type:alpha" maskUnits="userSpaceOnUse" x="30" y="14" width="1" height="2">
<path fill-rule="evenodd" clip-rule="evenodd" d="M30.0742 14.9913H30.5214V15.298H30.0742V14.9913Z" fill="white"/>
</mask>
<g mask="url(#mask30_2454_35987)">
<path fill-rule="evenodd" clip-rule="evenodd" d="M30.5214 15.1471C30.5214 15.1471 30.3926 14.9913 30.2894 14.9913C30.2206 14.9913 29.9926 15.1471 30.1047 15.298C30.1627 15.298 30.2894 15.4656 30.2894 15.4656C30.3926 15.298 30.5214 15.298 30.5214 15.1471Z" fill="#020303"/>
</g>
<mask id="mask31_2454_35987" style="mask-type:alpha" maskUnits="userSpaceOnUse" x="29" y="15" width="2" height="1">
<path fill-rule="evenodd" clip-rule="evenodd" d="M29.8828 15.3088H30.3585V15.7759H29.8828V15.3088Z" fill="white"/>
</mask>
<g mask="url(#mask31_2454_35987)">
<path fill-rule="evenodd" clip-rule="evenodd" d="M29.8828 15.3088C29.8828 15.3608 29.9746 15.8319 29.9746 15.8319C30.1122 15.7306 30.3585 15.3088 30.3585 15.3088H29.8828Z" fill="#101138"/>
</g>
<path fill-rule="evenodd" clip-rule="evenodd" d="M29.8789 15.2981C30.0949 15.3981 30.0949 15.3981 30.0949 15.5981C30.0949 15.812 30.2422 16.0027 30.2422 16.0027C30.4184 15.9027 30.7816 15.3981 30.7816 15.2981H30.4184H29.8789ZM30.2422 16.2981C30.2422 16.2981 30.0949 16.191 29.8789 15.5958V15.2981H30.4184H30.7816C31.1334 15.2981 30.4184 16.191 30.4184 16.191L30.2422 16.2981Z" fill="#020303"/>
<path fill-rule="evenodd" clip-rule="evenodd" d="M29.9888 15.4988L29.9336 15.668V15.8618H30.3556C30.4985 15.8618 30.6601 15.8618 30.7338 15.668C30.7338 15.668 30.4985 15.668 30.3556 15.4988H29.9888ZM30.3543 16.2415H30.283C30.2067 16.0493 30.0753 16.0493 29.9875 16.0493C29.9875 16.0493 29.7522 16.0493 29.8399 15.6647C29.8399 15.0795 29.9875 15.2717 30.3543 15.2717C30.585 15.2717 30.7326 15.6647 30.8203 15.6647C30.7326 16.0493 30.4972 16.2415 30.3543 16.2415Z" fill="#020303"/>
<path fill-rule="evenodd" clip-rule="evenodd" d="M30.3965 15.0129C30.3965 14.9878 30.4309 14.9619 30.4309 14.9619C30.4694 14.9336 30.3965 14.8822 30.3965 14.8822V14.8288C30.4309 14.8288 30.4965 14.8822 30.4965 14.9619C30.4694 14.9878 30.3965 15.0129 30.3965 15.0129Z" fill="#020303"/>
<path fill-rule="evenodd" clip-rule="evenodd" d="M30.0066 15.1664C29.9552 15.1664 29.8789 15.1427 29.8789 15.1427V15.0649L29.9303 15.0877L29.9094 15.1162C29.9094 15.1162 29.9094 15.1427 30.0066 15.1427H30.0371V15.0649L30.0868 15.1427L30.0066 15.1664Z" fill="#020303"/>
<path fill-rule="evenodd" clip-rule="evenodd" d="M30.2409 21.0989L30.4737 20.2105L29.7969 19.6926L30.6367 19.6645L30.941 18.8083L31.2862 19.6645L32.1662 19.6926L31.4941 20.2105L31.7222 21.0684L30.941 20.5762L30.2409 21.0989Z" fill="#F0C225"/>
<mask id="mask32_2454_35987" style="mask-type:alpha" maskUnits="userSpaceOnUse" x="30" y="19" width="2" height="2">
<path fill-rule="evenodd" clip-rule="evenodd" d="M30.0059 19.0676H31.96V20.8351H30.0059V19.0676Z" fill="white"/>
</mask>
<g mask="url(#mask32_2454_35987)">
<path fill-rule="evenodd" clip-rule="evenodd" d="M30.3447 20.8351L30.555 20.1619L30.0059 19.7457H30.7116L30.9404 19.0676L31.2094 19.7457H31.9601L31.4422 20.1619L31.5964 20.8351L30.9404 20.4188L30.3447 20.8351Z" fill="#16341D"/>
</g>
<path fill-rule="evenodd" clip-rule="evenodd" d="M28.7595 19.3265L29.014 18.5465L28.2617 18.0515L29.1963 18.0287L29.462 17.1953L29.7952 18.0287H30.635L29.9799 18.5465L30.2127 19.3265L29.4869 18.862L28.7595 19.3265Z" fill="#F0C225"/>
<mask id="mask33_2454_35987" style="mask-type:alpha" maskUnits="userSpaceOnUse" x="28" y="17" width="3" height="3">
<path fill-rule="evenodd" clip-rule="evenodd" d="M28.4961 17.4069H30.4511V19.1229H28.4961V17.4069Z" fill="white"/>
</mask>
<g mask="url(#mask33_2454_35987)">
<path fill-rule="evenodd" clip-rule="evenodd" d="M28.8871 19.1229L29.0999 18.4991L28.4961 18.1073L29.2283 18.0788L29.4619 17.4069L29.7462 18.0788L30.4511 18.1073L29.8771 18.4991L30.1107 19.1229L29.4869 18.7549L28.8871 19.1229Z" fill="#16341D"/>
</g>
<path fill-rule="evenodd" clip-rule="evenodd" d="M31.7581 19.3265L32.011 18.5465L31.2852 18.0515L32.19 18.0287L32.4493 17.1953L32.8131 18.0287H33.6472L32.9672 18.5465L33.2305 19.3265L32.4493 18.862L31.7581 19.3265Z" fill="#F0C225"/>
<mask id="mask34_2454_35987" style="mask-type:alpha" maskUnits="userSpaceOnUse" x="31" y="17" width="3" height="3">
<path fill-rule="evenodd" clip-rule="evenodd" d="M31.5137 17.4069H33.4944V19.1229H31.5137V17.4069Z" fill="white"/>
</mask>
<g mask="url(#mask34_2454_35987)">
<path fill-rule="evenodd" clip-rule="evenodd" d="M31.8733 19.1229L32.0621 18.4991L31.5137 18.1073L32.225 18.0788L32.449 17.4069L32.7124 18.0788L33.4944 18.1073L32.8697 18.4991L33.0986 19.1229L32.449 18.7549L31.8733 19.1229Z" fill="#16341D"/>
</g>
<path fill-rule="evenodd" clip-rule="evenodd" d="M34.9463 20.2139L34.9776 20.1342C34.9776 20.1649 35.0242 20.1649 35.0242 20.1649C35.0796 20.1649 35.0796 20.1649 35.0796 20.1342V20.0578H35.0242V20.0318C34.9776 20.0318 34.9776 20.0578 34.9776 20.0578L34.9022 20.0861C34.842 20.1111 34.842 20.1342 34.7906 20.1342L34.7649 20.1111C34.7135 20.0861 34.6886 20.0578 34.6621 20.0318C34.6621 20.0318 34.6621 19.9558 34.6886 19.8991C34.7135 19.8733 34.7649 19.8194 34.7649 19.8194C34.7906 19.8194 34.842 19.8194 34.9022 19.8474L34.842 19.9299C34.842 19.9299 34.7906 19.8991 34.7649 19.8991V19.9558V20.0064V20.0318H34.842V20.0064L34.9463 19.9776L34.9776 19.9299C35.0242 19.9299 35.0796 19.9299 35.0796 19.9558C35.1005 19.9776 35.1615 20.0064 35.1615 20.0578V20.1649L35.0796 20.2414C35.0242 20.2673 34.9776 20.2414 34.9776 20.2139H34.9463ZM34.842 20.6847L34.5312 20.2414L34.6172 20.1342L35.0243 20.3473L34.9777 20.4238L34.9022 20.372L34.842 20.4796L34.9464 20.5824L34.842 20.6847ZM34.7644 20.4237L34.7901 20.3473L34.6367 20.2414L34.7644 20.4237ZM34.6625 20.9222L34.2988 20.5824L34.4762 20.3473L34.5316 20.3979L34.4039 20.5286L34.5068 20.6362L34.6176 20.4796L34.6377 20.5286L34.5887 20.6847L34.6625 20.7915L34.7653 20.6362L34.8423 20.6847L34.6625 20.9222ZM34.2986 21.1257L34.354 21.0238C34.4037 21.0716 34.4037 21.0716 34.4552 21.1023C34.4552 21.1257 34.476 21.0716 34.476 21.0716L34.5065 21.0238L34.476 20.9692H34.4552H34.354H34.2986H34.171C34.1444 20.9692 34.1195 20.9692 34.1195 20.9154C34.1195 20.8644 34.0898 20.8365 34.0898 20.8365C34.0898 20.7847 34.1195 20.7341 34.1195 20.6779C34.1195 20.6779 34.2207 20.6294 34.2207 20.6779C34.2986 20.6779 34.354 20.6779 34.354 20.7083V20.7341L34.2986 20.7847L34.2207 20.7341L34.171 20.7568C34.171 20.7568 34.1444 20.7847 34.1444 20.8106L34.171 20.8365C34.2207 20.8644 34.2207 20.8644 34.2986 20.8365H34.354H34.476L34.5314 20.8644C34.5884 20.9154 34.6174 20.9692 34.6174 21.0238C34.6174 21.0716 34.5884 21.1257 34.5314 21.1516C34.5065 21.1795 34.476 21.1795 34.4037 21.1795C34.354 21.1795 34.354 21.1795 34.2986 21.1257ZM34.0093 21.5712L33.6777 21.1492L33.9314 20.9668L33.9619 21.0214L33.8094 21.1492L33.9066 21.2564L34.0382 21.1492L34.0647 21.1998L33.9619 21.3328L34.0382 21.4381L34.1442 21.3328L34.2205 21.3843L34.0093 21.5712ZM33.646 21.8049L33.3867 21.3312L33.4935 21.3062L33.5946 21.4591L33.6765 21.3827L33.5946 21.1982L33.646 21.1755L33.9608 21.6185L33.8299 21.6723L33.7223 21.4591L33.646 21.5416L33.748 21.7507L33.646 21.8049ZM33.4589 21.934L33.2807 21.5405L33.1803 21.5914L33.1289 21.4862L33.3875 21.3301L33.4388 21.4353L33.3417 21.4862L33.5464 21.883L33.4589 21.934ZM32.8702 22.1935L32.7129 21.6948L32.8132 21.6693L33.0324 21.9581L32.9216 21.6155L33.0027 21.5666L33.1809 22.0884L33.0991 22.111L32.8494 21.802L32.9674 22.1676L32.8702 22.1935ZM32.4035 22.1096C32.377 22.0353 32.377 21.9826 32.377 21.9567V21.8491L32.4035 21.8006C32.4035 21.8006 32.4228 21.7723 32.5039 21.7723C32.5351 21.7464 32.5593 21.7464 32.5593 21.7464C32.6107 21.7464 32.6315 21.7723 32.6572 21.7723C32.6572 21.7723 32.7126 21.8006 32.7126 21.8491V21.9826C32.7696 22.0353 32.7881 22.087 32.7881 22.087V22.1921C32.7881 22.1921 32.7696 22.2439 32.7126 22.2681L32.6572 22.2989H32.5593C32.5593 22.2989 32.5351 22.2989 32.5039 22.2681C32.5039 22.2681 32.4493 22.2439 32.4228 22.218C32.4228 22.218 32.4228 22.138 32.4035 22.1096ZM32.5038 22.0605C32.5351 22.1374 32.5593 22.1915 32.5593 22.1915C32.585 22.2433 32.6107 22.2433 32.6315 22.2174C32.6572 22.2174 32.7126 22.1915 32.7126 22.1915C32.7126 22.1374 32.7126 22.1091 32.6572 22.0071C32.6315 21.9303 32.6107 21.8793 32.585 21.8485L32.5351 21.8231C32.5351 21.8231 32.4492 21.8485 32.4492 21.9044C32.4492 21.9303 32.4492 21.9561 32.5038 22.0605ZM32.1652 22.426L32.0625 21.9042L32.1901 21.8484C32.2448 21.8484 32.2704 21.8484 32.301 21.8791C32.3427 21.9042 32.3427 21.9301 32.3772 21.9818V22.0862C32.3427 22.1372 32.3218 22.1655 32.2448 22.1655L32.1901 22.1914L32.2448 22.426H32.1652ZM32.1651 22.1081H32.2253H32.2447C32.2703 22.0595 32.2703 22.0337 32.2703 22.0061L32.2447 21.9551H32.2253H32.1387L32.1651 22.1081ZM31.6953 21.9812L31.7763 21.9553L31.8535 22.321C31.8535 22.3752 31.8727 22.3979 31.8727 22.3979L31.904 22.4254C31.9586 22.4254 31.9586 22.3979 31.9586 22.3752V22.2667L31.904 21.9553L31.9586 21.9294L32.0614 22.2667V22.3493V22.3979C32.0614 22.3979 32.0101 22.4512 31.9851 22.4804C31.9586 22.4804 31.9586 22.5305 31.9586 22.5305C31.8727 22.5305 31.8278 22.5305 31.7973 22.4804C31.7763 22.4512 31.7763 22.4254 31.7571 22.3493L31.6953 21.9812ZM31.3808 22.6101L31.3318 22.1077H31.209V22.0333L31.5389 22.0057V22.1077H31.4418L31.4674 22.6101H31.3808ZM31.0685 22.6101L31.0469 22.0333L31.1545 22.0057L31.2091 22.6101H31.0685ZM30.5293 22.6101L30.555 22.0057L30.6859 22.0333H30.7621C30.7621 22.0333 30.7831 22.0591 30.7831 22.085C30.8192 22.1077 30.8377 22.1077 30.8377 22.136C30.8377 22.136 30.8634 22.216 30.8377 22.2662V22.3973C30.8192 22.4798 30.7831 22.5299 30.7831 22.5299V22.6101H30.6361H30.5293ZM30.6367 22.5292C30.6367 22.5292 30.7122 22.5292 30.7122 22.4791C30.7379 22.4499 30.7379 22.424 30.7628 22.424V22.2962V22.1894C30.7628 22.1635 30.7379 22.1352 30.7379 22.1069H30.7122H30.6608H30.6367V22.5292ZM30.2148 22.5844L30.2719 21.9808L30.5304 22.0059L30.5047 22.1079H30.3457V22.2162L30.4742 22.2421V22.3207L30.3161 22.2972V22.4509L30.4742 22.48V22.6103L30.2148 22.5844ZM29.8262 22.4802L29.9081 21.9551H30.0549C30.1112 21.9551 30.1368 21.981 30.1674 21.981V22.0061C30.1674 22.0337 30.193 22.0595 30.193 22.1081C30.193 22.1081 30.193 22.1647 30.1674 22.2164V22.3491C30.1674 22.4252 30.1674 22.4252 30.1368 22.4511C30.1112 22.4802 30.1112 22.5303 30.0855 22.5303H29.9803L29.8262 22.4802ZM29.9531 22.3971L30.0045 22.4246H30.035L30.0543 22.3971L30.0848 22.3486C30.0848 22.3203 30.0848 22.266 30.1105 22.2417V22.1075C30.1105 22.1075 30.1105 22.0848 30.0848 22.0589C30.0848 22.0589 30.0543 22.0331 30.035 22.0331H30.0045L29.9531 22.3971ZM29.4102 22.3758L29.541 21.8484L29.643 21.8791L29.6904 22.2674L29.7947 21.9042L29.8766 21.9301L29.7458 22.4519L29.643 22.426L29.5924 22.0345L29.513 22.3985L29.4102 22.3758ZM29.2287 21.7464L29.3082 21.7723L29.2287 22.1096C29.1966 22.1663 29.1966 22.1921 29.1966 22.1921L29.2287 22.2439H29.2777C29.3082 22.218 29.3082 22.1921 29.3082 22.1663L29.3853 21.8006L29.4872 21.8491L29.3853 22.1921V22.2681C29.3853 22.2681 29.3596 22.2989 29.3339 22.2989C29.3339 22.2989 29.3082 22.3224 29.2777 22.3224H29.2287C29.1516 22.2989 29.1211 22.2681 29.1211 22.2681C29.1003 22.218 29.1003 22.1663 29.1211 22.1096L29.2287 21.7464ZM28.7894 21.8499C28.8111 21.8014 28.8361 21.773 28.8361 21.7225C28.8625 21.6942 28.8874 21.6687 28.8874 21.6687C28.918 21.6449 28.918 21.6449 28.938 21.6449H29.0143C29.0447 21.6687 29.0817 21.6687 29.1002 21.6942C29.1002 21.7225 29.121 21.7471 29.121 21.773V21.8499C29.121 21.8807 29.1002 21.9316 29.0817 21.9834C29.0817 22.0361 29.0447 22.0878 29.0447 22.0878C29.0143 22.1388 28.9958 22.167 28.9693 22.167C28.938 22.1929 28.918 22.1929 28.918 22.1929H28.8625C28.8111 22.167 28.7894 22.167 28.7598 22.1388V22.1104V22.0085C28.7598 21.9575 28.7598 21.9316 28.7894 21.8499ZM28.8873 21.9051C28.8624 21.9828 28.8359 22.0354 28.8359 22.0354C28.8359 22.0871 28.8624 22.1098 28.8873 22.1098H28.9178C28.9379 22.0871 28.9379 22.0354 28.9957 21.9569C29.0142 21.8493 29.0446 21.8008 29.0446 21.8008C29.0446 21.7465 29.0142 21.7465 29.0142 21.7465C28.9692 21.7219 28.9379 21.7219 28.9178 21.7465C28.9178 21.7724 28.9178 21.8008 28.8873 21.9051ZM28.4531 21.9587L28.6354 21.485L28.8641 21.5902L28.8377 21.6699L28.6562 21.5902L28.6354 21.7237L28.7614 21.8026V21.8511L28.6088 21.8026L28.498 22.0097L28.4531 21.9587ZM27.8789 21.6483L28.1382 21.198L28.2635 21.2547L28.1382 21.4363L28.2635 21.4872L28.3711 21.3311L28.4714 21.359L28.1382 21.8533L28.0868 21.8048L28.2121 21.5694L28.0868 21.4872L27.9487 21.7259L27.8789 21.6483ZM27.6934 21.489L27.9222 21.1492L27.8476 21.0692L27.9021 20.9668L28.1374 21.1998L28.086 21.2823L28.009 21.1998L27.7753 21.5712L27.6934 21.489ZM27.334 21.1781L27.7451 20.8351L27.827 20.914L27.6142 21.4391L27.5162 21.3618L27.6142 21.2287L27.5162 21.1781L27.4303 21.2574L27.334 21.1781ZM27.5938 21.1233L27.6147 21.1771L27.7246 20.9668L27.5938 21.1233ZM27.1191 20.8712L27.4604 20.4796L27.5158 20.5824L27.3785 20.715L27.4604 20.8432L27.6138 20.6847L27.6378 20.7409L27.303 21.1583L27.2316 21.0783L27.4299 20.8712L27.303 20.7915L27.1449 20.976L27.1191 20.8712ZM26.8047 20.4238L27.231 20.1111L27.3595 20.3473L27.3025 20.372L27.2005 20.2414L27.1444 20.321L27.2005 20.4517L27.1444 20.5286L27.0488 20.372L26.942 20.4517L27.0182 20.5824L26.9669 20.6847L26.8047 20.4238ZM26.627 20.0318L27.095 19.7686L27.1449 19.8733L26.9425 19.9776L26.9883 20.0861L27.1449 20.0064L27.2315 20.0578L26.7594 20.321L26.708 20.2414L26.912 20.1342L26.8301 20.0318L26.6784 20.1111L26.627 20.0318Z" fill="#020303"/>
</g>
</g>
<defs>
<filter id="filter0_d_2454_35987" x="0" y="0" width="42" height="32" filterUnits="userSpaceOnUse" color-interpolation-filters="sRGB">
<feFlood flood-opacity="0" result="BackgroundImageFix"/>
<feColorMatrix in="SourceAlpha" type="matrix" values="0 0 0 0 0 0 0 0 0 0 0 0 0 0 0 0 0 0 127 0" result="hardAlpha"/>
<feOffset dy="1"/>
<feGaussianBlur stdDeviation="2"/>
<feColorMatrix type="matrix" values="0 0 0 0 0 0 0 0 0 0 0 0 0 0 0 0 0 0 0.1 0"/>
<feBlend mode="normal" in2="BackgroundImageFix" result="effect1_dropShadow_2454_35987"/>
<feBlend mode="normal" in="SourceGraphic" in2="effect1_dropShadow_2454_35987" result="shape"/>
</filter>
</defs>
</svg>
