<svg width="42" height="32" viewBox="0 0 42 32" fill="none" xmlns="http://www.w3.org/2000/svg">
<g filter="url(#filter0_d_2454_35934)">
<rect x="4" y="3" width="34" height="24" rx="3" fill="#D8D8D8"/>
<mask id="mask0_2454_35934" style="mask-type:alpha" maskUnits="userSpaceOnUse" x="4" y="3" width="34" height="24">
<rect x="4" y="3" width="34" height="24" rx="3" fill="white"/>
</mask>
<g mask="url(#mask0_2454_35934)">
<rect x="21" y="3" width="18" height="24" fill="#D8D8D8"/>
<mask id="mask1_2454_35934" style="mask-type:alpha" maskUnits="userSpaceOnUse" x="21" y="3" width="18" height="24">
<rect x="21" y="3" width="18" height="24" fill="white"/>
</mask>
<g mask="url(#mask1_2454_35934)">
<path fill-rule="evenodd" clip-rule="evenodd" d="M3 27H38V3H3V27Z" fill="white"/>
<path fill-rule="evenodd" clip-rule="evenodd" d="M18.1038 10.323C18.1038 10.323 18.9491 10.6489 19.1223 10.6591C19.1223 10.6591 19.2446 10.7304 19.4889 10.6591C19.4889 10.6591 19.7335 10.6308 19.8352 10.6909C19.8352 10.6909 20.0186 10.7428 20.1204 10.6909C20.1204 10.6909 20.1816 10.598 20.4769 10.7712C20.4769 10.7712 20.5788 10.8221 20.7315 10.7712C20.7315 10.7712 21.139 10.761 21.2101 10.8425C21.2101 10.8425 21.4547 10.8526 21.5566 10.8425C21.5566 10.8425 21.8621 10.8628 21.8723 10.8934C21.8723 10.8934 22.3001 10.873 22.4224 10.8221C22.4224 10.8221 22.6973 10.8425 22.8503 10.7813C22.8503 10.7813 23.1046 10.7304 23.1963 10.6795C23.1963 10.6795 23.3491 10.6489 23.7157 10.6591C23.7157 10.6591 23.94 10.5878 24.388 10.1804C24.388 10.1804 25.1825 10.2416 25.5083 10.0276C25.5083 10.0276 26.2212 9.77306 26.5778 9.53877C26.5778 9.53877 27.0361 9.27395 27.1585 9.27395C27.1585 9.27395 27.3417 9.17207 27.3925 9.07018C27.3925 9.07018 27.5862 8.83598 27.6472 8.74432C27.6472 8.74432 28.0444 8.79522 28.3094 8.59154C28.3094 8.59154 28.5944 8.46936 28.686 8.42861C28.686 8.42861 28.8084 8.30635 28.8492 8.25545C28.8492 8.25545 28.9714 8.13327 29.0222 8.07205C29.0222 8.07205 29.2667 8.00078 29.3686 7.99063C29.3686 7.99063 29.4704 8.00078 29.4908 7.83785C29.4908 7.83785 29.6639 7.85822 29.8269 7.78695C29.8269 7.78695 30.0305 7.8277 30.6722 7.43048L30.5195 7.8786C30.5195 7.8786 30.0612 8.00078 29.9899 8.06191C29.9899 8.06191 29.7351 8.22484 29.6537 8.26559C29.6537 8.26559 29.4704 8.39809 29.399 8.58139C29.399 8.58139 29.3278 8.79522 29.1038 8.83598C29.1038 8.83598 28.8796 8.95824 28.7981 9.03975C28.7981 9.03975 28.6353 9.20268 28.5741 9.27395C28.5741 9.27395 28.5639 9.27395 28.513 9.37584C28.513 9.37584 28.3806 9.37584 28.2481 9.44712C28.2481 9.44712 27.9122 9.5999 27.8205 9.64056C27.8205 9.64056 27.7694 9.69155 27.7083 9.71184C27.7083 9.71184 27.5862 9.77306 27.515 9.85448C27.515 9.85448 27.1789 10.1398 27.1482 10.1907C27.1482 10.1907 27.0057 10.3128 26.9038 10.4961C26.9038 10.4961 26.8324 10.6285 26.8019 10.6998C26.8019 10.6998 26.7409 10.8934 26.4963 10.8934C26.4963 10.8934 26.2723 10.8425 26.1194 10.8934C26.1194 10.8934 26.0483 10.9137 25.9361 10.9646C25.9361 10.9646 25.7937 11.1073 25.7833 11.2193C25.7833 11.2193 25.7528 11.2906 25.6918 11.3416C25.6918 11.3416 25.4879 11.6063 25.5186 11.8508C25.5186 11.8508 25.5186 12.472 25.8343 12.6452C25.8343 12.6452 26.089 12.9202 26.0992 12.9915C26.0992 12.9915 26.2316 13.3072 26.4352 13.3684C26.4352 13.3684 26.6084 13.5314 26.6084 13.5823C26.6084 13.5823 26.6898 13.6739 26.7612 13.786C26.7612 13.786 26.8324 13.8369 26.8427 13.8878C26.8427 13.8878 26.9241 14.1832 26.9038 14.2442C26.9038 14.2442 26.4659 14.0202 26.3233 14.01C26.3233 14.01 25.9158 13.9999 25.8648 14.0304C25.8648 14.0304 25.7732 14.0711 25.6 14.0609C25.6 14.0609 25.651 14.3971 25.3557 14.3665C25.3557 14.3665 25.2946 14.4378 24.9685 14.1527C24.9685 14.1527 24.7242 13.9896 24.388 14.0508C24.388 14.0508 23.95 14.0609 23.7157 14.2646C23.7157 14.2646 23.5835 14.4174 23.5631 14.8452C23.5631 14.8452 23.5835 15.0693 23.5732 15.1406C23.5732 15.1406 23.5427 15.2628 23.5018 15.2832C23.5018 15.2832 23.4611 15.2933 23.4204 15.3952C23.4204 15.3952 23.3491 15.5378 23.3186 15.5784C23.3186 15.5784 22.962 15.548 22.9113 15.5784C22.9113 15.5784 22.7075 15.7313 22.6259 15.8025C22.6259 15.8025 22.6259 15.8841 22.4326 15.8942C22.4326 15.8942 22.2696 15.9349 22.178 15.9655C22.178 15.9655 21.9335 16.0878 21.8824 16.1387C21.8824 16.1387 21.6787 16.3221 21.5157 16.3322C21.5157 16.3322 21.2917 16.4749 21.251 16.4749C21.2101 16.4749 21.1491 16.5054 21.0371 16.4749C21.0371 16.4749 20.8844 16.4713 20.8436 16.4884C20.8436 16.4884 20.7519 16.5869 20.6093 16.6174C20.6093 16.6174 20.4566 16.6683 20.1917 16.5665C20.1917 16.5665 19.8149 16.5613 19.6316 16.6301C19.6316 16.6301 19.1631 16.8007 19.0612 16.8822C19.0612 16.8822 18.939 16.9739 18.8371 17.1164C18.8371 17.1164 18.5315 17.473 18.939 17.9006L18.2361 17.8497C18.2361 17.8497 18.3075 17.6462 18.1955 17.4526C18.1955 17.4526 17.9815 17.1368 17.8084 17.0248C17.8084 17.0248 17.5334 16.9535 17.4723 16.9739C17.4723 16.9739 17.2075 17.035 17.1362 17.0044C17.1362 17.0044 17.0649 16.984 16.9733 17.0452C16.9733 17.0452 16.9019 17.0961 16.7899 17.1368C16.7899 17.1368 16.6168 17.1674 16.5557 17.1368C16.5557 17.1368 16.4844 17.2387 16.3112 17.1776C16.3112 17.1776 16.077 17.1063 15.8835 17.0145C15.8835 17.0145 15.5982 16.8618 15.5372 16.8007C15.5372 16.8007 15.4149 16.709 15.3436 16.6988C15.3436 16.6988 15.252 16.6888 14.977 16.5869C14.977 16.5869 14.7325 16.536 14.6307 16.4341C14.6307 16.4341 14.4881 16.2915 14.3556 16.2303L14.2335 16.1692C14.2335 16.1692 14.1622 16.1285 14.1418 16.0165C14.1418 16.0165 14.0399 15.5073 14.0094 15.4665C14.0094 15.4665 13.938 15.2832 13.826 15.2323C13.826 15.2323 13.6835 15.2119 13.5918 14.9776C13.5918 14.9776 13.5613 14.9471 13.5002 14.835C13.5002 14.835 13.4492 14.7434 13.4492 14.6211C13.4492 14.6211 13.4085 14.2748 13.4492 14.1832C13.4492 14.1832 13.49 13.8776 13.3779 13.7656C13.3779 13.7656 13.1641 13.5314 13.1641 13.4091C13.1641 13.4091 13.1844 13.2665 13.2761 13.0017C13.2761 13.0017 13.4594 13.2563 13.5205 13.2971C13.5205 13.2971 13.6733 13.46 13.7242 13.4804C13.7242 13.4804 13.8871 13.623 14.0399 13.5924C14.0399 13.5924 14.3047 13.5823 14.4168 13.4499C14.4168 13.4499 14.7427 13.2868 14.814 13.185C14.814 13.185 14.926 13.1035 15.0585 12.7165C15.0585 12.7165 15.1807 12.4924 15.2316 12.472C15.2316 12.472 15.2723 12.411 15.4149 12.3906C15.4149 12.3906 15.6899 12.2989 15.7917 12.2378C15.7917 12.2378 16.0668 12.1462 16.2399 12.1971C16.2399 12.1971 16.5048 12.248 17.0139 12.4823C17.0139 12.4823 17.1871 12.5943 17.3297 12.6147C17.3297 12.6147 17.5742 12.6147 17.7168 12.523C17.7168 12.523 18.1038 12.3498 18.1446 11.8711C18.1852 11.3925 18.2464 10.9036 18.1038 10.323Z" fill="#FF8309"/>
<path fill-rule="evenodd" clip-rule="evenodd" d="M22.0151 21.5776C22.0151 21.5776 21.8725 20.559 22.7076 20.121C22.7076 20.121 22.8708 20.9053 22.0151 21.5776Z" fill="#006850"/>
<path fill-rule="evenodd" clip-rule="evenodd" d="M22.943 21.2822C22.943 21.2822 22.5457 20.7423 23.4827 19.8664C23.4827 19.8664 23.717 20.5183 22.943 21.2822Z" fill="#006850"/>
<path fill-rule="evenodd" clip-rule="evenodd" d="M23.7776 20.9053C23.7776 20.9053 23.3601 20.1618 24.2156 19.4692C24.2156 19.4692 24.4906 20.3043 23.7776 20.9053Z" fill="#006850"/>
<path fill-rule="evenodd" clip-rule="evenodd" d="M24.6021 20.3655C24.6021 20.3655 24.2049 19.785 24.9076 18.9702C24.9076 18.9702 25.3659 19.4998 24.6021 20.3655Z" fill="#006850"/>
<path fill-rule="evenodd" clip-rule="evenodd" d="M25.2853 19.8664C25.2853 19.8664 24.9391 19.1636 25.7028 18.3387C25.7028 18.3387 25.9678 19.3673 25.2853 19.8664Z" fill="#006850"/>
<path fill-rule="evenodd" clip-rule="evenodd" d="M25.8242 19.6678C25.8242 19.6678 25.8242 18.9498 27.0566 18.6035C27.0566 18.6035 27.0669 19.4489 25.8242 19.6678Z" fill="#006850"/>
<path fill-rule="evenodd" clip-rule="evenodd" d="M22.25 21.8424C22.25 21.8424 23.0751 21.7499 23.5945 22.5094C23.5945 22.5094 22.9268 22.5403 22.7208 22.3966C22.7208 22.3966 22.5353 22.3043 22.4539 22.1296C22.4539 22.1296 22.3621 22.0066 22.25 21.8424Z" fill="#006850"/>
<path fill-rule="evenodd" clip-rule="evenodd" d="M22.9961 21.6119C22.9961 21.6119 23.777 21.3177 24.3813 21.9747C24.3813 21.9747 23.4647 22.4329 22.9961 21.6119Z" fill="#006850"/>
<path fill-rule="evenodd" clip-rule="evenodd" d="M23.8516 21.1367C23.8516 21.1367 24.2523 21.8346 25.2369 21.5815C25.2369 21.5815 24.7685 20.8425 23.8516 21.1367Z" fill="#006850"/>
<path fill-rule="evenodd" clip-rule="evenodd" d="M24.6934 20.7639C24.6934 20.7639 24.9375 20.723 25.206 20.6477C25.206 20.6477 25.6916 20.4526 26.0786 20.8512C26.0786 20.8512 25.6711 21.2361 24.9922 20.9487C24.9922 20.9487 24.8565 20.8734 24.6934 20.7639Z" fill="#006850"/>
<path fill-rule="evenodd" clip-rule="evenodd" d="M25.2969 20.3107C25.2969 20.3107 25.8537 19.7703 26.8858 19.9617C26.8858 19.9617 26.166 20.8922 25.2969 20.3107Z" fill="#006850"/>
<path fill-rule="evenodd" clip-rule="evenodd" d="M22.0254 22.2758C21.3822 22.1417 21.957 22.285 21.0992 22.0501C21.0992 22.0501 20.5368 22.1938 20.1777 22.2758C20.1777 22.2758 20.4908 22.0774 20.7828 21.9749C20.7828 21.9749 20.3414 21.8324 19.7031 21.6198C19.7031 21.6198 20.3088 21.7696 21.0992 21.8996C21.0992 21.8996 21.9439 21.7765 22.4667 21.5918C22.4667 21.5918 22.2019 21.7422 21.4211 21.9816C21.4211 21.9816 21.8351 22.1253 22.0254 22.2758Z" fill="#006850"/>
</g>
<rect x="3" y="3" width="18" height="24" fill="#D8D8D8"/>
<mask id="mask2_2454_35934" style="mask-type:alpha" maskUnits="userSpaceOnUse" x="3" y="3" width="18" height="24">
<rect x="3" y="3" width="18" height="24" fill="white"/>
</mask>
<g mask="url(#mask2_2454_35934)">
<path fill-rule="evenodd" clip-rule="evenodd" d="M3 27H39V3H3V27Z" fill="#003399"/>
<path fill-rule="evenodd" clip-rule="evenodd" d="M20.5142 7.15738L20.2148 8.0787L20.9985 7.5093L21.7823 8.0787L21.4829 7.15738L22.2666 6.58798H21.2979L20.9986 5.66666L20.6992 6.58798H19.7305L20.5142 7.15738Z" fill="#FFCC00"/>
<path fill-rule="evenodd" clip-rule="evenodd" d="M21.2979 22.588L20.9986 21.6667L20.6993 22.588H19.7305L20.5142 23.1574L20.2149 24.0788L20.9986 23.5093L21.7823 24.0788L21.4829 23.1574L22.2667 22.588H21.2979Z" fill="#FFCC00"/>
<path fill-rule="evenodd" clip-rule="evenodd" d="M13.2979 14.588L12.9986 13.6667L12.6992 14.588H11.7305L12.5142 15.1574L12.2149 16.0787L12.9986 15.5093L13.7823 16.0787L13.4829 15.1574L14.2666 14.588H13.2979Z" fill="#FFCC00"/>
<path fill-rule="evenodd" clip-rule="evenodd" d="M14.38 18.5746L14.0806 17.6533L13.7813 18.5746H12.8125L13.5963 19.1441L13.2969 20.0654L14.0806 19.496L14.8643 20.0654L14.565 19.1441L15.3487 18.5746H14.38Z" fill="#FFCC00"/>
<path fill-rule="evenodd" clip-rule="evenodd" d="M17.3136 21.508L17.0142 20.5867L16.7149 21.508H15.7461L16.5299 22.0774L16.2305 22.9987L17.0142 22.4293L17.7979 22.9987L17.4986 22.0774L18.2823 21.508H17.3136Z" fill="#FFCC00"/>
<path fill-rule="evenodd" clip-rule="evenodd" d="M17.3057 7.65975L17.0064 6.73843L16.707 7.65975H15.7383L16.522 8.22915L16.2226 9.15047L17.0064 8.58107L17.79 9.15047L17.4907 8.22919L18.2744 7.65975H17.3057Z" fill="#FFCC00"/>
<path fill-rule="evenodd" clip-rule="evenodd" d="M14.3917 10.5931L14.0923 9.67178L13.793 10.5931H12.8242L13.608 11.1625L13.3086 12.0838L14.0923 11.5144L14.876 12.0838L14.5767 11.1625L15.3604 10.5931H14.3917Z" fill="#FFCC00"/>
</g>
</g>
</g>
<defs>
<filter id="filter0_d_2454_35934" x="0" y="0" width="42" height="32" filterUnits="userSpaceOnUse" color-interpolation-filters="sRGB">
<feFlood flood-opacity="0" result="BackgroundImageFix"/>
<feColorMatrix in="SourceAlpha" type="matrix" values="0 0 0 0 0 0 0 0 0 0 0 0 0 0 0 0 0 0 127 0" result="hardAlpha"/>
<feOffset dy="1"/>
<feGaussianBlur stdDeviation="2"/>
<feColorMatrix type="matrix" values="0 0 0 0 0 0 0 0 0 0 0 0 0 0 0 0 0 0 0.1 0"/>
<feBlend mode="normal" in2="BackgroundImageFix" result="effect1_dropShadow_2454_35934"/>
<feBlend mode="normal" in="SourceGraphic" in2="effect1_dropShadow_2454_35934" result="shape"/>
</filter>
</defs>
</svg>
