<svg width="61" height="60" viewBox="0 0 61 60" fill="none" xmlns="http://www.w3.org/2000/svg">
<g filter="url(#filter0_d_3152_15248)">
<path d="M30.5 4C47.27 4 52.5 10.033 52.5 26C52.5 41.967 47.27 48 30.5 48C13.73 48 8.5 41.967 8.5 26C8.5 10.033 13.73 4 30.5 4Z" fill="#F4F4F4"/>
</g>
<mask id="mask0_3152_15248" style="mask-type:alpha" maskUnits="userSpaceOnUse" x="8" y="4" width="45" height="44">
<path d="M30.5 4C47.27 4 52.5 10.033 52.5 26C52.5 41.967 47.27 48 30.5 48C13.73 48 8.5 41.967 8.5 26C8.5 10.033 13.73 4 30.5 4Z" fill="#F4F4F4"/>
</mask>
<g mask="url(#mask0_3152_15248)">
<path fill-rule="evenodd" clip-rule="evenodd" d="M39.5 26C35.082 26 31.5 29.582 31.5 34C31.5 38.418 35.082 42 39.5 42C43.918 42 47.5 38.418 47.5 34C47.5 29.582 43.918 26 39.5 26Z" fill="#BC002D"/>
</g>
<g filter="url(#filter1_d_3152_15248)">
<path d="M30.5 4C40.9675 4 46.939 6.35045 49.949 12C40 17 39 18 35.2 21C31.4 24 29 27 26 31C23.5 34.5 21 39 19.0024 46.5C11.2144 43.85 8.5 37.5029 8.5 26C8.5 10.033 13.73 4 30.5 4Z" fill="white"/>
</g>
<mask id="mask1_3152_15248" style="mask-type:alpha" maskUnits="userSpaceOnUse" x="8" y="4" width="42" height="43">
<path d="M30.5 4C40.9675 4 46.939 6.35045 49.949 12C40 17 39 18 35.2 21C31.4 24 29 27 26 31C23.5 34.5 21 39 19.0024 46.5C11.2144 43.85 8.5 37.5029 8.5 26C8.5 10.033 13.73 4 30.5 4Z" fill="white"/>
</mask>
<g mask="url(#mask1_3152_15248)">
<path d="M63.5 -1H-0.5V49H63.5V-1Z" fill="#D54242"/>
<path d="M63.0005 24.9084H24.8794V53.0011H22.5977H17.3467H15.065V24.9084H-0.000488281V22.6254V17.3757V15.0926H15.065V-1H17.3467H22.5977H24.8794V15.0926H63.0005V17.3757V22.6254V24.9084Z" fill="#F0F0F0"/>
<path d="M63.0005 17.3757V22.6254H22.5977V55.0011H17.3467V22.6254H-0.000488281V17.3757H17.3467V-1H22.5977V17.3757H63.0005Z" fill="#264495"/>
</g>
<defs>
<filter id="filter0_d_3152_15248" x="0.5" y="0" width="60" height="60" filterUnits="userSpaceOnUse" color-interpolation-filters="sRGB">
<feFlood flood-opacity="0" result="BackgroundImageFix"/>
<feColorMatrix in="SourceAlpha" type="matrix" values="0 0 0 0 0 0 0 0 0 0 0 0 0 0 0 0 0 0 127 0" result="hardAlpha"/>
<feOffset dy="4"/>
<feGaussianBlur stdDeviation="4"/>
<feColorMatrix type="matrix" values="0 0 0 0 0 0 0 0 0 0 0 0 0 0 0 0 0 0 0.15 0"/>
<feBlend mode="normal" in2="BackgroundImageFix" result="effect1_dropShadow_3152_15248"/>
<feBlend mode="normal" in="SourceGraphic" in2="effect1_dropShadow_3152_15248" result="shape"/>
</filter>
<filter id="filter1_d_3152_15248" x="7.5" y="3" width="45.4492" height="46.5" filterUnits="userSpaceOnUse" color-interpolation-filters="sRGB">
<feFlood flood-opacity="0" result="BackgroundImageFix"/>
<feColorMatrix in="SourceAlpha" type="matrix" values="0 0 0 0 0 0 0 0 0 0 0 0 0 0 0 0 0 0 127 0" result="hardAlpha"/>
<feOffset dx="1" dy="1"/>
<feGaussianBlur stdDeviation="1"/>
<feColorMatrix type="matrix" values="0 0 0 0 0 0 0 0 0 0 0 0 0 0 0 0 0 0 0.2 0"/>
<feBlend mode="normal" in2="BackgroundImageFix" result="effect1_dropShadow_3152_15248"/>
<feBlend mode="normal" in="SourceGraphic" in2="effect1_dropShadow_3152_15248" result="shape"/>
</filter>
</defs>
</svg>
