<svg width="61" height="60" viewBox="0 0 61 60" fill="none" xmlns="http://www.w3.org/2000/svg">
<g filter="url(#filter0_d_3152_12966)">
<path d="M30.5 4C47.27 4 52.5 10.033 52.5 26C52.5 41.967 47.27 48 30.5 48C13.73 48 8.5 41.967 8.5 26C8.5 10.033 13.73 4 30.5 4Z" fill="#F4F4F4"/>
</g>
<mask id="mask0_3152_12966" style="mask-type:alpha" maskUnits="userSpaceOnUse" x="8" y="4" width="45" height="44">
<path d="M30.5 4C47.27 4 52.5 10.033 52.5 26C52.5 41.967 47.27 48 30.5 48C13.73 48 8.5 41.967 8.5 26C8.5 10.033 13.73 4 30.5 4Z" fill="#F4F4F4"/>
</mask>
<g mask="url(#mask0_3152_12966)">
<path d="M15.5 7H99.5V52H15.5V7Z" fill="white"/>
<path d="M15.5 7H99.5V10.462H15.5V7ZM15.5 13.923H99.5V17.385H15.5V13.923ZM15.5 20.846H99.5V24.308H15.5V20.846ZM15.5 27.769H99.5V31.231H15.5V27.769ZM15.5 34.692H99.5V38.154H15.5V34.692ZM15.5 41.615H99.5V45.077H15.5V41.615ZM15.5 48.538H99.5V52H15.5V48.538Z" fill="#B22234"/>
<path d="M15.5 7H47.5V32H15.5V7Z" fill="#3C3B6E"/>
<path d="M18.7758 8L19.5578 10.618L17.5098 9H20.0408L17.9928 10.618L18.7758 8Z" fill="white"/>
<path d="M18.7758 13.0649L19.5578 15.6829L17.5098 14.0649H20.0408L17.9928 15.6829L18.7758 13.0649Z" fill="white"/>
<path d="M18.7758 18.1299L19.5578 20.7479L17.5098 19.1299H20.0408L17.9928 20.7479L18.7758 18.1299Z" fill="white"/>
<path d="M18.7758 23.196L19.5578 25.814L17.5098 24.196H20.0408L17.9928 25.814L18.7758 23.196Z" fill="white"/>
<path d="M18.7758 28.262L19.5578 30.88L17.5098 29.262H20.0408L17.9928 30.88L18.7758 28.262Z" fill="white"/>
<path d="M21.516 10.533L22.298 13.151L20.25 11.533H22.781L20.733 13.151L21.516 10.533Z" fill="white"/>
<path d="M21.516 15.5979L22.298 18.2159L20.25 16.5979H22.781L20.733 18.2159L21.516 15.5979Z" fill="white"/>
<path d="M21.516 20.6631L22.298 23.2811L20.25 21.6631H22.781L20.733 23.2811L21.516 20.6631Z" fill="white"/>
<path d="M21.516 25.729L22.298 28.347L20.25 26.729H22.781L20.733 28.347L21.516 25.729Z" fill="white"/>
<path d="M24.2562 8L25.0382 10.618L22.9902 9H25.5212L23.4732 10.618L24.2562 8Z" fill="white"/>
<path d="M24.2562 13.0649L25.0382 15.6829L22.9902 14.0649H25.5212L23.4732 15.6829L24.2562 13.0649Z" fill="white"/>
<path d="M24.2562 18.1299L25.0382 20.7479L22.9902 19.1299H25.5212L23.4732 20.7479L24.2562 18.1299Z" fill="white"/>
<path d="M24.2562 23.196L25.0382 25.814L22.9902 24.196H25.5212L23.4732 25.814L24.2562 23.196Z" fill="white"/>
<path d="M24.2562 28.262L25.0382 30.88L22.9902 29.262H25.5212L23.4732 30.88L24.2562 28.262Z" fill="white"/>
<path d="M26.9965 10.533L27.7785 13.151L25.7305 11.533H28.2615L26.2135 13.151L26.9965 10.533Z" fill="white"/>
<path d="M26.9965 15.5979L27.7785 18.2159L25.7305 16.5979H28.2615L26.2135 18.2159L26.9965 15.5979Z" fill="white"/>
<path d="M26.9965 20.6631L27.7785 23.2811L25.7305 21.6631H28.2615L26.2135 23.2811L26.9965 20.6631Z" fill="white"/>
<path d="M26.9965 25.729L27.7785 28.347L25.7305 26.729H28.2615L26.2135 28.347L26.9965 25.729Z" fill="white"/>
<path d="M29.7348 8L30.5168 10.618L28.4688 9H30.9997L28.9518 10.618L29.7348 8Z" fill="white"/>
<path d="M29.7348 13.0649L30.5168 15.6829L28.4688 14.0649H30.9997L28.9518 15.6829L29.7348 13.0649Z" fill="white"/>
<path d="M29.7348 18.1299L30.5168 20.7479L28.4688 19.1299H30.9997L28.9518 20.7479L29.7348 18.1299Z" fill="white"/>
<path d="M29.7348 23.196L30.5168 25.814L28.4688 24.196H30.9997L28.9518 25.814L29.7348 23.196Z" fill="white"/>
<path d="M29.7348 28.262L30.5168 30.88L28.4688 29.262H30.9997L28.9518 30.88L29.7348 28.262Z" fill="white"/>
<path d="M32.475 10.533L33.257 13.151L31.209 11.533H33.74L31.692 13.151L32.475 10.533Z" fill="white"/>
<path d="M32.475 15.5979L33.257 18.2159L31.209 16.5979H33.74L31.692 18.2159L32.475 15.5979Z" fill="white"/>
<path d="M32.475 20.6631L33.257 23.2811L31.209 21.6631H33.74L31.692 23.2811L32.475 20.6631Z" fill="white"/>
<path d="M32.475 25.729L33.257 28.347L31.209 26.729H33.74L31.692 28.347L32.475 25.729Z" fill="white"/>
<path d="M35.2152 8L35.9972 10.618L33.9492 9H36.4802L34.4322 10.618L35.2152 8Z" fill="white"/>
<path d="M35.2152 13.0649L35.9972 15.6829L33.9492 14.0649H36.4802L34.4322 15.6829L35.2152 13.0649Z" fill="white"/>
<path d="M35.2152 18.1299L35.9972 20.7479L33.9492 19.1299H36.4802L34.4322 20.7479L35.2152 18.1299Z" fill="white"/>
<path d="M35.2152 23.196L35.9972 25.814L33.9492 24.196H36.4802L34.4322 25.814L35.2152 23.196Z" fill="white"/>
<path d="M35.2152 28.262L35.9972 30.88L33.9492 29.262H36.4802L34.4322 30.88L35.2152 28.262Z" fill="white"/>
<path d="M37.9555 10.533L38.7375 13.151L36.6895 11.533H39.2205L37.1725 13.151L37.9555 10.533Z" fill="white"/>
<path d="M37.9555 15.5979L38.7375 18.2159L36.6895 16.5979H39.2205L37.1725 18.2159L37.9555 15.5979Z" fill="white"/>
<path d="M37.9555 20.6631L38.7375 23.2811L36.6895 21.6631H39.2205L37.1725 23.2811L37.9555 20.6631Z" fill="white"/>
<path d="M37.9555 25.729L38.7375 28.347L36.6895 26.729H39.2205L37.1725 28.347L37.9555 25.729Z" fill="white"/>
<path d="M40.6928 8L41.4748 10.618L39.4268 9H41.9578L39.9098 10.618L40.6928 8Z" fill="white"/>
<path d="M40.6928 13.0649L41.4748 15.6829L39.4268 14.0649H41.9578L39.9098 15.6829L40.6928 13.0649Z" fill="white"/>
<path d="M40.6928 18.1299L41.4748 20.7479L39.4268 19.1299H41.9578L39.9098 20.7479L40.6928 18.1299Z" fill="white"/>
<path d="M40.6928 23.196L41.4748 25.814L39.4268 24.196H41.9578L39.9098 25.814L40.6928 23.196Z" fill="white"/>
<path d="M40.6928 28.262L41.4748 30.88L39.4268 29.262H41.9578L39.9098 30.88L40.6928 28.262Z" fill="white"/>
<path d="M43.433 10.533L44.215 13.151L42.167 11.533H44.698L42.65 13.151L43.433 10.533Z" fill="white"/>
<path d="M43.433 15.5979L44.215 18.2159L42.167 16.5979H44.698L42.65 18.2159L43.433 15.5979Z" fill="white"/>
<path d="M43.433 20.6631L44.215 23.2811L42.167 21.6631H44.698L42.65 23.2811L43.433 20.6631Z" fill="white"/>
<path d="M43.433 25.729L44.215 28.347L42.167 26.729H44.698L42.65 28.347L43.433 25.729Z" fill="white"/>
<path d="M46.1732 8L46.9552 10.618L44.9072 9H47.4382L45.3902 10.618L46.1732 8Z" fill="white"/>
<path d="M46.1732 13.0649L46.9552 15.6829L44.9072 14.0649H47.4382L45.3902 15.6829L46.1732 13.0649Z" fill="white"/>
<path d="M46.1732 18.1299L46.9552 20.7479L44.9072 19.1299H47.4382L45.3902 20.7479L46.1732 18.1299Z" fill="white"/>
<path d="M46.1732 23.196L46.9552 25.814L44.9072 24.196H47.4382L45.3902 25.814L46.1732 23.196Z" fill="white"/>
<path d="M46.1732 28.262L46.9552 30.88L44.9072 29.262H47.4382L45.3902 30.88L46.1732 28.262Z" fill="white"/>
</g>
<g filter="url(#filter1_d_3152_12966)">
<path d="M30.5 4C40.9675 4 46.939 6.35045 49.949 12C40 17 39 18 35.2 21C31.4 24 29 27 26 31C23.5 34.5 21 39 19.0024 46.5C11.2144 43.85 8.5 37.5029 8.5 26C8.5 10.033 13.73 4 30.5 4Z" fill="white"/>
</g>
<mask id="mask1_3152_12966" style="mask-type:alpha" maskUnits="userSpaceOnUse" x="8" y="4" width="42" height="43">
<path d="M30.5 4C40.9675 4 46.939 6.35045 49.949 12C40 17 39 18 35.2 21C31.4 24 29 27 26 31C23.5 34.5 21 39 19.0024 46.5C11.2144 43.85 8.5 37.5029 8.5 26C8.5 10.033 13.73 4 30.5 4Z" fill="white"/>
</mask>
<g mask="url(#mask1_3152_12966)">
<path d="M-4.48535 -2.11182V52.9999H58.4995V-2.11182H-4.48535Z" fill="#012169"/>
<path d="M-4.83203 3.31787L52.0978 38.8066L-4.83203 3.31787ZM52.0978 3.31787L-4.83203 38.8034L52.0978 3.31787Z" fill="black"/>
<path d="M50.8263 41.9805L23.6336 25.0276L-3.55917 41.9805L-6.10352 35.6264L17.2675 21.0591L-6.10352 6.4918L-3.55917 0.137695L23.6336 17.0906L50.8263 0.137695L53.3707 6.4918L29.9997 21.0591L53.3707 35.6264L50.8263 41.9805Z" fill="white"/>
<path d="M-4.83203 3.31787L52.0978 38.8066L-4.83203 3.31787ZM52.0978 3.31787L-4.83203 38.8034L52.0978 3.31787Z" fill="black"/>
<path d="M51.2482 40.9205L23.6331 23.701L-3.98193 40.9205L-5.68164 36.6855L19.3917 21.0586L-5.68164 5.43176L-3.98193 1.19678L23.6331 18.4162L51.2482 1.19678L52.9479 5.43176L27.8746 21.0586L52.9479 36.6855L51.2482 40.9205Z" fill="#C8102E"/>
<path d="M23.6329 3.31787V38.8066V3.31787ZM-4.83203 21.0606H52.0978H-4.83203Z" fill="black"/>
<path d="M28.3775 52.5607H18.8883V26.9759H-4.83203V15.1452H18.8883V-9.0542H28.3775V15.1452H52.0978V26.9759H28.3775V52.5607Z" fill="white"/>
<path d="M23.6329 3.31787V38.8066V3.31787ZM-4.83203 21.0606H52.0978H-4.83203Z" fill="black"/>
<path d="M26.4796 50.7989H20.7861V24.6099H-4.83203V17.5115H20.7861V-2.30566H26.4796V17.5115H52.0978V24.6099H26.4796V50.7989Z" fill="#C8102E"/>
</g>
<defs>
<filter id="filter0_d_3152_12966" x="0.5" y="0" width="60" height="60" filterUnits="userSpaceOnUse" color-interpolation-filters="sRGB">
<feFlood flood-opacity="0" result="BackgroundImageFix"/>
<feColorMatrix in="SourceAlpha" type="matrix" values="0 0 0 0 0 0 0 0 0 0 0 0 0 0 0 0 0 0 127 0" result="hardAlpha"/>
<feOffset dy="4"/>
<feGaussianBlur stdDeviation="4"/>
<feColorMatrix type="matrix" values="0 0 0 0 0 0 0 0 0 0 0 0 0 0 0 0 0 0 0.15 0"/>
<feBlend mode="normal" in2="BackgroundImageFix" result="effect1_dropShadow_3152_12966"/>
<feBlend mode="normal" in="SourceGraphic" in2="effect1_dropShadow_3152_12966" result="shape"/>
</filter>
<filter id="filter1_d_3152_12966" x="7.5" y="3" width="45.4492" height="46.5" filterUnits="userSpaceOnUse" color-interpolation-filters="sRGB">
<feFlood flood-opacity="0" result="BackgroundImageFix"/>
<feColorMatrix in="SourceAlpha" type="matrix" values="0 0 0 0 0 0 0 0 0 0 0 0 0 0 0 0 0 0 127 0" result="hardAlpha"/>
<feOffset dx="1" dy="1"/>
<feGaussianBlur stdDeviation="1"/>
<feColorMatrix type="matrix" values="0 0 0 0 0 0 0 0 0 0 0 0 0 0 0 0 0 0 0.2 0"/>
<feBlend mode="normal" in2="BackgroundImageFix" result="effect1_dropShadow_3152_12966"/>
<feBlend mode="normal" in="SourceGraphic" in2="effect1_dropShadow_3152_12966" result="shape"/>
</filter>
</defs>
</svg>
