<svg width="61" height="60" viewBox="0 0 61 60" fill="none" xmlns="http://www.w3.org/2000/svg">
<g filter="url(#filter0_d_3152_13294)">
<path d="M30.5 4C47.27 4 52.5 10.033 52.5 26C52.5 41.967 47.27 48 30.5 48C13.73 48 8.5 41.967 8.5 26C8.5 10.033 13.73 4 30.5 4Z" fill="#F4F4F4"/>
</g>
<mask id="mask0_3152_13294" style="mask-type:alpha" maskUnits="userSpaceOnUse" x="8" y="4" width="45" height="44">
<path d="M30.5 4C47.27 4 52.5 10.033 52.5 26C52.5 41.967 47.27 48 30.5 48C13.73 48 8.5 41.967 8.5 26C8.5 10.033 13.73 4 30.5 4Z" fill="#F4F4F4"/>
</mask>
<g mask="url(#mask0_3152_13294)">
<path d="M15.5 7H99.5V52H15.5V7Z" fill="white"/>
<path d="M15.5 7H99.5V10.462H15.5V7ZM15.5 13.923H99.5V17.385H15.5V13.923ZM15.5 20.846H99.5V24.308H15.5V20.846ZM15.5 27.769H99.5V31.231H15.5V27.769ZM15.5 34.692H99.5V38.154H15.5V34.692ZM15.5 41.615H99.5V45.077H15.5V41.615ZM15.5 48.538H99.5V52H15.5V48.538Z" fill="#B22234"/>
<path d="M15.5 7H47.5V32H15.5V7Z" fill="#3C3B6E"/>
<path d="M18.7758 8L19.5578 10.618L17.5098 9H20.0408L17.9928 10.618L18.7758 8Z" fill="white"/>
<path d="M18.7758 13.0649L19.5578 15.6829L17.5098 14.0649H20.0408L17.9928 15.6829L18.7758 13.0649Z" fill="white"/>
<path d="M18.7758 18.1299L19.5578 20.7479L17.5098 19.1299H20.0408L17.9928 20.7479L18.7758 18.1299Z" fill="white"/>
<path d="M18.7758 23.196L19.5578 25.814L17.5098 24.196H20.0408L17.9928 25.814L18.7758 23.196Z" fill="white"/>
<path d="M18.7758 28.262L19.5578 30.88L17.5098 29.262H20.0408L17.9928 30.88L18.7758 28.262Z" fill="white"/>
<path d="M21.516 10.533L22.298 13.151L20.25 11.533H22.781L20.733 13.151L21.516 10.533Z" fill="white"/>
<path d="M21.516 15.5979L22.298 18.2159L20.25 16.5979H22.781L20.733 18.2159L21.516 15.5979Z" fill="white"/>
<path d="M21.516 20.6631L22.298 23.2811L20.25 21.6631H22.781L20.733 23.2811L21.516 20.6631Z" fill="white"/>
<path d="M21.516 25.729L22.298 28.347L20.25 26.729H22.781L20.733 28.347L21.516 25.729Z" fill="white"/>
<path d="M24.2557 8L25.0377 10.618L22.9897 9H25.5207L23.4727 10.618L24.2557 8Z" fill="white"/>
<path d="M24.2557 13.0649L25.0377 15.6829L22.9897 14.0649H25.5207L23.4727 15.6829L24.2557 13.0649Z" fill="white"/>
<path d="M24.2557 18.1299L25.0377 20.7479L22.9897 19.1299H25.5207L23.4727 20.7479L24.2557 18.1299Z" fill="white"/>
<path d="M24.2557 23.196L25.0377 25.814L22.9897 24.196H25.5207L23.4727 25.814L24.2557 23.196Z" fill="white"/>
<path d="M24.2557 28.262L25.0377 30.88L22.9897 29.262H25.5207L23.4727 30.88L24.2557 28.262Z" fill="white"/>
<path d="M26.9955 10.533L27.7775 13.151L25.7295 11.533H28.2605L26.2125 13.151L26.9955 10.533Z" fill="white"/>
<path d="M26.9955 15.5979L27.7775 18.2159L25.7295 16.5979H28.2605L26.2125 18.2159L26.9955 15.5979Z" fill="white"/>
<path d="M26.9955 20.6631L27.7775 23.2811L25.7295 21.6631H28.2605L26.2125 23.2811L26.9955 20.6631Z" fill="white"/>
<path d="M26.9955 25.729L27.7775 28.347L25.7295 26.729H28.2605L26.2125 28.347L26.9955 25.729Z" fill="white"/>
<path d="M29.7348 8L30.5168 10.618L28.4688 9H30.9997L28.9518 10.618L29.7348 8Z" fill="white"/>
<path d="M29.7348 13.0649L30.5168 15.6829L28.4688 14.0649H30.9997L28.9518 15.6829L29.7348 13.0649Z" fill="white"/>
<path d="M29.7348 18.1299L30.5168 20.7479L28.4688 19.1299H30.9997L28.9518 20.7479L29.7348 18.1299Z" fill="white"/>
<path d="M29.7348 23.196L30.5168 25.814L28.4688 24.196H30.9997L28.9518 25.814L29.7348 23.196Z" fill="white"/>
<path d="M29.7348 28.262L30.5168 30.88L28.4688 29.262H30.9997L28.9518 30.88L29.7348 28.262Z" fill="white"/>
<path d="M32.475 10.533L33.257 13.151L31.209 11.533H33.74L31.692 13.151L32.475 10.533Z" fill="white"/>
<path d="M32.475 15.5979L33.257 18.2159L31.209 16.5979H33.74L31.692 18.2159L32.475 15.5979Z" fill="white"/>
<path d="M32.475 20.6631L33.257 23.2811L31.209 21.6631H33.74L31.692 23.2811L32.475 20.6631Z" fill="white"/>
<path d="M32.475 25.729L33.257 28.347L31.209 26.729H33.74L31.692 28.347L32.475 25.729Z" fill="white"/>
<path d="M35.2147 8L35.9967 10.618L33.9487 9H36.4797L34.4317 10.618L35.2147 8Z" fill="white"/>
<path d="M35.2147 13.0649L35.9967 15.6829L33.9487 14.0649H36.4797L34.4317 15.6829L35.2147 13.0649Z" fill="white"/>
<path d="M35.2147 18.1299L35.9967 20.7479L33.9487 19.1299H36.4797L34.4317 20.7479L35.2147 18.1299Z" fill="white"/>
<path d="M35.2147 23.196L35.9967 25.814L33.9487 24.196H36.4797L34.4317 25.814L35.2147 23.196Z" fill="white"/>
<path d="M35.2147 28.262L35.9967 30.88L33.9487 29.262H36.4797L34.4317 30.88L35.2147 28.262Z" fill="white"/>
<path d="M37.9545 10.533L38.7365 13.151L36.6885 11.533H39.2195L37.1715 13.151L37.9545 10.533Z" fill="white"/>
<path d="M37.9545 15.5979L38.7365 18.2159L36.6885 16.5979H39.2195L37.1715 18.2159L37.9545 15.5979Z" fill="white"/>
<path d="M37.9545 20.6631L38.7365 23.2811L36.6885 21.6631H39.2195L37.1715 23.2811L37.9545 20.6631Z" fill="white"/>
<path d="M37.9545 25.729L38.7365 28.347L36.6885 26.729H39.2195L37.1715 28.347L37.9545 25.729Z" fill="white"/>
<path d="M40.6928 8L41.4748 10.618L39.4268 9H41.9578L39.9098 10.618L40.6928 8Z" fill="white"/>
<path d="M40.6928 13.0649L41.4748 15.6829L39.4268 14.0649H41.9578L39.9098 15.6829L40.6928 13.0649Z" fill="white"/>
<path d="M40.6928 18.1299L41.4748 20.7479L39.4268 19.1299H41.9578L39.9098 20.7479L40.6928 18.1299Z" fill="white"/>
<path d="M40.6928 23.196L41.4748 25.814L39.4268 24.196H41.9578L39.9098 25.814L40.6928 23.196Z" fill="white"/>
<path d="M40.6928 28.262L41.4748 30.88L39.4268 29.262H41.9578L39.9098 30.88L40.6928 28.262Z" fill="white"/>
<path d="M43.433 10.533L44.215 13.151L42.167 11.533H44.698L42.65 13.151L43.433 10.533Z" fill="white"/>
<path d="M43.433 15.5979L44.215 18.2159L42.167 16.5979H44.698L42.65 18.2159L43.433 15.5979Z" fill="white"/>
<path d="M43.433 20.6631L44.215 23.2811L42.167 21.6631H44.698L42.65 23.2811L43.433 20.6631Z" fill="white"/>
<path d="M43.433 25.729L44.215 28.347L42.167 26.729H44.698L42.65 28.347L43.433 25.729Z" fill="white"/>
<path d="M46.1727 8L46.9547 10.618L44.9067 9H47.4377L45.3897 10.618L46.1727 8Z" fill="white"/>
<path d="M46.1727 13.0649L46.9547 15.6829L44.9067 14.0649H47.4377L45.3897 15.6829L46.1727 13.0649Z" fill="white"/>
<path d="M46.1727 18.1299L46.9547 20.7479L44.9067 19.1299H47.4377L45.3897 20.7479L46.1727 18.1299Z" fill="white"/>
<path d="M46.1727 23.196L46.9547 25.814L44.9067 24.196H47.4377L45.3897 25.814L46.1727 23.196Z" fill="white"/>
<path d="M46.1727 28.262L46.9547 30.88L44.9067 29.262H47.4377L45.3897 30.88L46.1727 28.262Z" fill="white"/>
</g>
<g filter="url(#filter1_d_3152_13294)">
<path d="M30.5 4C40.9675 4 46.939 6.35045 49.949 12C40 17 39 18 35.2 21C31.4 24 29 27 26 31C23.5 34.5 21 39 19.0024 46.5C11.2144 43.85 8.5 37.5029 8.5 26C8.5 10.033 13.73 4 30.5 4Z" fill="white"/>
</g>
<mask id="mask1_3152_13294" style="mask-type:alpha" maskUnits="userSpaceOnUse" x="8" y="4" width="42" height="43">
<path d="M30.5 4C40.9675 4 46.939 6.35045 49.949 12C40 17 39 18 35.2 21C31.4 24 29 27 26 31C23.5 34.5 21 39 19.0024 46.5C11.2144 43.85 8.5 37.5029 8.5 26C8.5 10.033 13.73 4 30.5 4Z" fill="white"/>
</mask>
<g mask="url(#mask1_3152_13294)">
<path d="M27.4995 -2V48C41.3071 48 52.4999 36.8071 52.4999 23.0004C52.4999 9.19201 41.307 -2 27.4995 -2Z" fill="#273375"/>
<path d="M27.4996 -2C13.6929 -2 2.5 9.19244 2.5 22.9999C2.5 36.8067 13.6929 47.9996 27.4996 47.9996C41.3071 47.9996 41.3071 -2 27.4996 -2Z" fill="#273375"/>
<path d="M19.6451 36.3231L21.331 34.2215L18.7266 34.6932L17.823 32.1704L16.8409 34.6932L14.1819 34.2215L15.8718 36.2769L14.1172 38.33L16.7915 37.91L17.6935 40.3807L18.676 37.9111L21.4036 38.3986L19.6451 36.3231Z" fill="#F3F4F5"/>
<path d="M39.5723 38.1797L40.5283 36.9887L39.052 37.256L38.5401 35.8267L37.9835 37.256L36.4767 36.9887L37.4344 38.1528L36.4404 39.3169L37.9555 39.0786L38.4666 40.4779L39.0232 39.0793L40.569 39.3556L39.5723 38.1797Z" fill="#F3F4F5"/>
<path d="M39.5723 11.8636L40.5283 10.6723L39.052 10.9398L38.5401 9.5105L37.9835 10.9398L36.4767 10.6723L37.4344 11.8371L36.4404 13.0004L37.9555 12.7624L38.4666 14.1625L39.0232 12.7631L40.569 13.0391L39.5723 11.8636Z" fill="#F3F4F5"/>
<path d="M45.7571 18.6711L46.7124 17.4798L45.2369 17.7475L44.7249 16.3181L44.1684 17.7475L42.6608 17.4798L43.6184 18.6447L42.6245 19.8084L44.1396 19.5699L44.6507 20.9701L45.2073 19.5708L46.7531 19.8467L45.7571 18.6711Z" fill="#F3F4F5"/>
<path d="M34.2223 21.6976L35.1784 20.5066L33.7021 20.7743L33.19 19.345L32.6335 20.7743L31.1271 20.5066L32.0844 21.6707L31.0908 22.8348L32.6059 22.5968L33.1171 23.9957L33.6736 22.5976L35.2195 22.8735L34.2223 21.6976Z" fill="#F3F4F5"/>
<path d="M7.75041 7.68091C7.35806 8.18653 6.98343 8.70566 6.62939 9.24052H9.30928L7.75041 7.68091Z" fill="#29337A"/>
<path d="M20.6602 22.9998H23.0684L20.6602 20.5916V22.9998Z" fill="#29337A"/>
<path d="M12.6772 2.86987C12.1036 3.29305 11.5515 3.74188 11.0166 4.21119L12.6772 5.87107V2.86987Z" fill="#29337A"/>
<path d="M10.2686 22.9998H12.6776V20.5908L10.2686 22.9998Z" fill="#29337A"/>
<path d="M27.4994 -2C25.127 -2 22.8352 -1.66253 20.6602 -1.04471V5.87108L27.5002 -0.968601V-2H27.4994Z" fill="#29337A"/>
<path d="M27.5002 20.695V17.2241H24.0293L27.5002 20.695Z" fill="#29337A"/>
<path d="M3.5315 22.9999L9.30844 17.2241H3.17852C2.73919 19.079 2.5 21.0112 2.5 22.9999H3.5315Z" fill="#29337A"/>
<path d="M24.0273 9.24058H27.5006V5.76807L24.0273 9.24058Z" fill="#29337A"/>
<path d="M27.5007 21.4243V20.6952L24.0297 17.2242H27.5007V15.9812H22.0576L27.5007 21.4243Z" fill="white"/>
<path d="M9.30941 9.24048H6.62952C6.36193 9.64593 6.10765 10.0608 5.86328 10.4824H11.1279L8.00314 7.3584C7.91753 7.46501 7.8334 7.57279 7.75012 7.68045L9.30941 9.24048Z" fill="white"/>
<path d="M12.6778 20.591V23H13.9201V18.7725L9.69287 23H10.2688L12.6778 20.591Z" fill="white"/>
<path d="M20.6608 -1.04517C20.242 -0.926309 19.8283 -0.796896 19.4189 -0.65756V7.68958L27.5008 -0.391873V-0.967793L20.6608 5.87062V-1.04517Z" fill="white"/>
<path d="M12.6339 17.2241L12.6777 17.1803L13.8765 15.9814H3.50636C3.38676 16.3915 3.27741 16.8056 3.17871 17.2241H9.30863L3.53169 22.9998H6.8578L12.6339 17.2241Z" fill="white"/>
<path d="M3.53174 22.9999L9.30867 17.2241L3.53174 22.9999Z" fill="white"/>
<path d="M27.5004 10.483V9.24065H24.0271L27.5004 5.76813V2.44287L19.46 10.483H27.5004Z" fill="white"/>
<path d="M27.5007 5.76807L24.0273 9.24058L27.5007 5.76807Z" fill="white"/>
<path d="M12.6776 5.87154L11.017 4.21165C10.4281 4.7292 9.86273 5.27387 9.32471 5.84473L12.6776 9.19765L12.7132 9.23396L13.9199 10.4407V2.01416C13.4976 2.2885 13.0819 2.5715 12.678 2.86991V5.87154H12.6776Z" fill="white"/>
<path d="M20.6608 20.5917L23.069 23H26.242L19.4185 16.177V23H20.6608V20.5917Z" fill="white"/>
<path d="M12.6777 9.19751L12.7133 9.23379L12.6777 9.19751Z" fill="#D32030"/>
<path d="M23.2994 17.2241L22.0575 15.9814H27.5005V10.4827H19.4602L19.4187 10.525V10.4827H19.4602L27.5005 2.44309V-0.391961L19.4182 7.68992V-0.657227C17.4647 0.010317 15.6212 0.911036 13.9196 2.01432V10.4404L13.9626 10.4826H13.9196V10.4404L12.7128 9.2338L12.7199 9.24087H12.6777V9.1978L9.32476 5.84488C8.86453 6.33203 8.42362 6.83649 8.00319 7.3591L11.1279 10.4831H5.86333C4.86856 12.1978 4.07319 14.0404 3.50635 15.9818H13.8765L13.9196 15.9379V15.9818H13.8765L12.6777 17.1807V17.2245H12.6339L6.85768 22.9999H9.69274L13.92 18.7723V22.9999H19.4187V16.1768L26.2418 22.9999H27.1801C27.287 22.8883 27.396 22.7773 27.501 22.6625V21.4241L23.2994 17.2241Z" fill="#D32030"/>
<path d="M19.418 7.69003L27.5003 -0.391846L19.418 7.69003Z" fill="#D32030"/>
<path d="M12.6776 17.2239V17.1797L12.6338 17.2239H12.6776Z" fill="#D32030"/>
<path d="M13.9198 15.9373L13.8765 15.981H13.9198V15.9373Z" fill="#D32030"/>
<path d="M19.418 10.5248L19.4598 10.4827H19.418V10.5248Z" fill="#D32030"/>
<path d="M12.6777 9.24044H12.7203L12.7133 9.23379L12.6777 9.19751V9.24044Z" fill="#D32030"/>
<path d="M13.9628 10.4828L13.9199 10.4402V10.4828H13.9628Z" fill="#D32030"/>
</g>
<defs>
<filter id="filter0_d_3152_13294" x="0.5" y="0" width="60" height="60" filterUnits="userSpaceOnUse" color-interpolation-filters="sRGB">
<feFlood flood-opacity="0" result="BackgroundImageFix"/>
<feColorMatrix in="SourceAlpha" type="matrix" values="0 0 0 0 0 0 0 0 0 0 0 0 0 0 0 0 0 0 127 0" result="hardAlpha"/>
<feOffset dy="4"/>
<feGaussianBlur stdDeviation="4"/>
<feColorMatrix type="matrix" values="0 0 0 0 0 0 0 0 0 0 0 0 0 0 0 0 0 0 0.15 0"/>
<feBlend mode="normal" in2="BackgroundImageFix" result="effect1_dropShadow_3152_13294"/>
<feBlend mode="normal" in="SourceGraphic" in2="effect1_dropShadow_3152_13294" result="shape"/>
</filter>
<filter id="filter1_d_3152_13294" x="7.5" y="3" width="45.4492" height="46.5" filterUnits="userSpaceOnUse" color-interpolation-filters="sRGB">
<feFlood flood-opacity="0" result="BackgroundImageFix"/>
<feColorMatrix in="SourceAlpha" type="matrix" values="0 0 0 0 0 0 0 0 0 0 0 0 0 0 0 0 0 0 127 0" result="hardAlpha"/>
<feOffset dx="1" dy="1"/>
<feGaussianBlur stdDeviation="1"/>
<feColorMatrix type="matrix" values="0 0 0 0 0 0 0 0 0 0 0 0 0 0 0 0 0 0 0.2 0"/>
<feBlend mode="normal" in2="BackgroundImageFix" result="effect1_dropShadow_3152_13294"/>
<feBlend mode="normal" in="SourceGraphic" in2="effect1_dropShadow_3152_13294" result="shape"/>
</filter>
</defs>
</svg>
