<svg width="28" height="16" viewBox="0 0 28 16" fill="none" xmlns="http://www.w3.org/2000/svg">
<rect width="28" height="16" rx="2" fill="white"/>
<mask id="mask0_2523_36906" style="mask-type:alpha" maskUnits="userSpaceOnUse" x="0" y="0" width="28" height="16">
<rect width="28" height="16" rx="2" fill="white"/>
</mask>
<g mask="url(#mask0_2523_36906)">
<rect width="28" height="16" fill="#0A17A7"/>
<path fill-rule="evenodd" clip-rule="evenodd" d="M6.67394 10.6666L-2.77343 15.7645L-1.28225 17.5331L10.6669 11.0853V17.0666H17.3335V11.0855L29.2827 17.5333L30.7739 15.7647L21.3262 10.6666H28.0002V5.3333H21.3265L30.7739 0.235412L29.2827 -1.5332L17.3335 4.91464V-1.0667H10.6669V4.91482L-1.28226 -1.53302L-2.77344 0.235597L6.67363 5.3333H0.000212193V10.6666H6.67394Z" fill="white"/>
<path d="M18.668 5.06615L31.3333 -1.59961" stroke="#DB1F35" stroke-width="0.666667" stroke-linecap="round"/>
<path d="M20.0137 10.9578L31.3675 17.0801" stroke="#DB1F35" stroke-width="0.666667" stroke-linecap="round"/>
<path d="M8.00513 5.04824L-3.83789 -1.33691" stroke="#DB1F35" stroke-width="0.666667" stroke-linecap="round"/>
<path d="M9.28963 10.8842L-3.83789 17.8486" stroke="#DB1F35" stroke-width="0.666667" stroke-linecap="round"/>
<path fill-rule="evenodd" clip-rule="evenodd" d="M0 9.6H12V16H16V9.6H28V6.4H16V0H12V6.4H0V9.6Z" fill="#E6273E"/>
</g>
</svg>
