<svg width="113" height="32" viewBox="0 0 113 32" fill="none" xmlns="http://www.w3.org/2000/svg">
<rect x="0.199219" width="112" height="32" rx="4" fill="#F3F3F5"/>
<path d="M8.93975 26.1428L18.8128 15.9778L8.94803 5.83105C8.68454 5.98903 8.52148 6.3548 8.52148 6.83359V25.15C8.52502 25.6288 8.68218 25.9679 8.93975 26.1428Z" fill="#2B4059"/>
<path d="M19.1662 15.6969L22.1071 12.6686L10.1308 5.90737C9.92917 5.78673 9.7001 5.72301 9.4668 5.72266L19.165 15.6957L19.1662 15.6969Z" fill="#2B4059"/>
<path d="M19.1664 16.2598L9.4375 26.2765C9.68169 26.2807 9.92221 26.2151 10.1323 26.087L22.1321 19.3075L19.1664 16.2598Z" fill="#2B4059"/>
<path d="M26.4461 15.1214L22.4607 12.8672L19.4395 15.9781L22.4831 19.1084L26.4449 16.8603C27.2873 16.3827 27.2873 15.5965 26.4461 15.1214Z" fill="#2B4059"/>
<path d="M38.4534 7.79561C38.4671 8.08904 38.4206 8.38217 38.3167 8.65722C38.2128 8.93226 38.0537 9.18347 37.849 9.39561C37.6204 9.63128 37.3444 9.8165 37.0389 9.93918C36.7334 10.0619 36.4053 10.1192 36.076 10.1076C35.5763 10.1037 35.0888 9.95355 34.6748 9.67589C34.2607 9.39823 33.9384 9.00544 33.7482 8.54674C33.558 8.08804 33.5084 7.58382 33.6057 7.09728C33.7029 6.61074 33.9427 6.1635 34.2949 5.81161C34.5263 5.57704 34.8038 5.39211 35.1102 5.26826C35.4165 5.14442 35.7452 5.08429 36.076 5.09161C36.4167 5.09048 36.754 5.15855 37.0672 5.29161C37.3589 5.40837 37.6185 5.59206 37.8248 5.82761L37.3977 6.25161C37.2368 6.06168 37.0337 5.9115 36.8043 5.81292C36.5749 5.71434 36.3255 5.67007 36.076 5.68361C35.8242 5.68238 35.5748 5.73163 35.3427 5.8284C35.1106 5.92517 34.9006 6.06747 34.7253 6.24676C34.5499 6.42605 34.4128 6.63865 34.3222 6.87181C34.2317 7.10496 34.1895 7.35387 34.1981 7.60361C34.1929 7.97652 34.299 8.34262 34.5031 8.65574C34.7071 8.96886 35.0001 9.21497 35.3449 9.36302C35.6898 9.51106 36.071 9.55441 36.4407 9.4876C36.8103 9.42079 37.1517 9.24681 37.4218 8.98761C37.6698 8.72084 37.8129 8.37441 37.8248 8.01161H36.076V7.43561H38.4212C38.4427 7.55442 38.4535 7.6749 38.4534 7.79561ZM42.1446 5.79561H39.9686V7.31561H41.9512V7.89161H39.9686V9.41161H42.1446V10.0036H39.3238V5.20361H42.1446V5.79561ZM44.788 10.0036H44.1675V5.79561H42.8135V5.20361H46.1742V5.79561H44.788V10.0036ZM48.5436 10.0036V5.20361H49.1642V10.0036H48.5436ZM51.9205 10.0036H51.2999V5.79561H49.9459V5.20361H53.2664V5.79561H51.9205V10.0036ZM59.5606 9.37961C59.0895 9.84469 58.452 10.1057 57.7876 10.1057C57.1231 10.1057 56.4857 9.84469 56.0146 9.37961C55.5566 8.89843 55.3015 8.26156 55.3015 7.59961C55.3015 6.93766 55.5566 6.30079 56.0146 5.81961C56.2468 5.5874 56.523 5.40311 56.8273 5.27735C57.1316 5.15158 57.458 5.08684 57.7876 5.08684C58.1172 5.08684 58.4436 5.15158 58.7479 5.27735C59.0522 5.40311 59.3284 5.5874 59.5606 5.81961C60.0204 6.29987 60.2768 6.93709 60.2768 7.59961C60.2768 8.26213 60.0204 8.89935 59.5606 9.37961ZM56.4739 8.97961C56.8228 9.32451 57.2952 9.51815 57.7876 9.51815C58.28 9.51815 58.7523 9.32451 59.1013 8.97961C59.4456 8.60282 59.6363 8.11232 59.6363 7.60361C59.6363 7.0949 59.4456 6.60439 59.1013 6.22761C58.7523 5.88271 58.28 5.68907 57.7876 5.68907C57.2952 5.68907 56.8228 5.88271 56.4739 6.22761C56.1296 6.60439 55.9389 7.0949 55.9389 7.60361C55.9389 8.11232 56.1296 8.60282 56.4739 8.97961ZM61.1483 10.0036V5.20361H61.9059L64.2592 8.93961V5.20361H64.8797V10.0036H64.235L61.7769 6.09161V10.0036H61.1483Z" fill="#2B4059"/>
<path fill-rule="evenodd" clip-rule="evenodd" d="M57.7876 5.16684C57.4686 5.16684 57.1528 5.22949 56.8583 5.3512C56.5641 5.47278 56.297 5.65088 56.0725 5.87527C55.6291 6.34151 55.3821 6.95842 55.3821 7.59961C55.3821 8.24072 55.629 8.85754 56.0723 9.32377C56.5282 9.77338 57.1449 10.0257 57.7876 10.0257C58.4304 10.0257 59.047 9.77335 59.503 9.32367C59.948 8.85837 60.1962 8.24124 60.1962 7.59961C60.1962 6.9579 59.948 6.34069 59.5028 5.87537C59.2782 5.65094 59.0111 5.4728 58.7169 5.3512C58.4224 5.22949 58.1066 5.16684 57.7876 5.16684ZM56.7963 5.20349C57.1105 5.07367 57.4473 5.00684 57.7876 5.00684C58.1279 5.00684 58.4647 5.07367 58.7789 5.20349C59.093 5.33331 59.3781 5.52355 59.6178 5.76325L59.6191 5.76449C60.0931 6.25962 60.3574 6.91658 60.3574 7.59961C60.3574 8.28264 60.0931 8.93958 59.6191 9.43472L59.6175 9.43636C59.1312 9.91634 58.4733 10.1857 57.7876 10.1857C57.1019 10.1857 56.444 9.91632 55.9577 9.43633L55.9559 9.43457C55.4839 8.93854 55.2209 8.28199 55.2209 7.59961C55.2209 6.91723 55.4839 6.2607 55.956 5.76467L55.9573 5.76323C56.1971 5.52354 56.4822 5.33331 56.7963 5.20349ZM36.0742 5.17159C35.7545 5.16452 35.4367 5.22264 35.1406 5.34235C34.8444 5.46207 34.5762 5.64084 34.3524 5.86759L34.352 5.86799C34.011 6.20871 33.7789 6.64175 33.6847 7.11285C33.5906 7.58395 33.6386 8.07215 33.8227 8.51629C34.0069 8.96043 34.3189 9.34075 34.7199 9.6096C35.1208 9.87844 35.5928 10.0239 36.0766 10.0276L36.0788 10.0276C36.3968 10.0389 36.7137 9.98348 37.0087 9.86502C37.3037 9.74656 37.5702 9.56774 37.7908 9.34021C37.988 9.13591 38.1412 8.89399 38.2413 8.62913C38.3413 8.36423 38.3861 8.08192 38.3729 7.79931L38.4534 7.79561L38.3728 7.79558C38.3729 7.70186 38.3661 7.6083 38.3526 7.51561H36.1565V7.93161H37.9081L37.9054 8.01422C37.8928 8.39622 37.7422 8.76098 37.4811 9.04186L37.478 9.04522C37.1964 9.31541 36.8404 9.49666 36.4551 9.56631C36.0698 9.63595 35.6724 9.59076 35.3129 9.43644C34.9535 9.28212 34.6481 9.02559 34.4354 8.6992C34.223 8.37336 34.1124 7.99246 34.1175 7.60443C34.1088 7.34457 34.1528 7.08562 34.2471 6.84302C34.3415 6.59982 34.4845 6.37806 34.6674 6.19104C34.8503 6.00401 35.0694 5.85558 35.3115 5.75464C35.5529 5.65401 35.8122 5.60265 36.074 5.6036C36.3352 5.5898 36.5962 5.63631 36.8363 5.7395C37.0503 5.83147 37.2425 5.9662 37.4012 6.13497L37.7136 5.82484C37.5244 5.62526 37.2937 5.46854 37.0371 5.3658L37.0355 5.36517C36.7324 5.2364 36.4059 5.17052 36.0762 5.17161L36.0742 5.17159ZM38.534 7.79377C38.5479 8.09741 38.4997 8.4007 38.3922 8.68531C38.2844 8.9705 38.1194 9.23098 37.9072 9.45094C37.6708 9.69472 37.3851 9.88644 37.0691 10.0133C36.7535 10.1401 36.4145 10.1995 36.0742 10.1876C35.559 10.1834 35.0566 10.0284 34.6297 9.74218C34.2024 9.45571 33.8699 9.05045 33.6737 8.57719C33.4775 8.10392 33.4263 7.5837 33.5266 7.08171C33.627 6.57981 33.8742 6.11846 34.2375 5.75543C34.4766 5.51313 34.7633 5.32211 35.0798 5.19417C35.396 5.06633 35.7353 5.0042 36.0767 5.01161C36.4278 5.01059 36.7754 5.08073 37.0982 5.21773C37.4013 5.33924 37.6711 5.53024 37.8856 5.77512L37.9349 5.83142L37.3925 6.36985L37.336 6.30309C37.1832 6.12266 36.9902 5.97998 36.7723 5.88633C36.5543 5.79268 36.3175 5.75063 36.0804 5.76349L36.0756 5.76375C35.8347 5.76258 35.596 5.80956 35.3739 5.90216C35.1518 5.99476 34.9509 6.13092 34.7831 6.30249C34.6153 6.47405 34.4841 6.67749 34.3974 6.90059C34.3108 7.12369 34.2704 7.36187 34.2787 7.60085L34.2788 7.60473C34.2738 7.96184 34.3753 8.31243 34.5707 8.61229C34.7662 8.91214 35.0467 9.14782 35.3769 9.28959C35.7071 9.43136 36.0723 9.47287 36.4262 9.40889C36.7794 9.34505 37.1058 9.17902 37.3642 8.93168C37.5792 8.69961 37.7106 8.40416 37.7391 8.09161H35.9954V7.35561H38.4886L38.5005 7.42147C38.5228 7.54435 38.534 7.66893 38.534 7.79377ZM39.2432 5.12361H42.2252V5.87561H40.0492V7.23561H42.0317V7.97161H40.0492V9.33161H42.2252V10.0836H39.2432V5.12361ZM39.4044 5.28361V9.92361H42.064V9.49161H39.888V7.81161H41.8706V7.39561H39.888V5.71561H42.064V5.28361H39.4044ZM42.7329 5.12361H46.2548V5.87561H44.8686V10.0836H44.0869V5.87561H42.7329V5.12361ZM42.8941 5.28361V5.71561H44.248V9.92361H44.7074V5.71561H46.0936V5.28361H42.8941ZM48.463 5.12361H49.2448V10.0836H48.463V5.12361ZM48.6242 5.28361V9.92361H49.0836V5.28361H48.6242ZM49.8653 5.12361H53.3469V5.87561H52.001V10.0836H51.2193V5.87561H49.8653V5.12361ZM50.0265 5.28361V5.71561H51.3805V9.92361H51.8399V5.71561H53.1858V5.28361H50.0265ZM61.0677 5.12361H61.9505L64.1786 8.66077V5.12361H64.9603V10.0836H64.1903L61.8575 6.37104V10.0836H61.0677V5.12361ZM61.2289 5.28361V9.92361H61.6963V5.81218L64.2797 9.92361H64.7992V5.28361H64.3398V9.21845L61.8612 5.28361H61.2289ZM56.4171 6.17092C56.7811 5.81109 57.2739 5.60907 57.7876 5.60907C58.3013 5.60907 58.7941 5.81109 59.1581 6.17092L59.161 6.17379C59.5188 6.56529 59.7169 7.07503 59.7169 7.60361C59.7169 8.13219 59.5187 8.64186 59.1609 9.03336L59.1582 9.03637C58.7942 9.3962 58.3013 9.59815 57.7876 9.59815C57.2739 9.59815 56.7811 9.39612 56.4171 9.03629L56.4739 8.97961L56.4142 9.03336C56.0565 8.64186 55.8583 8.13219 55.8583 7.60361C55.8583 7.07503 56.0565 6.56536 56.4142 6.17386L56.4171 6.17092ZM56.5323 8.92436C56.8659 9.25343 57.3172 9.43815 57.7876 9.43815C58.258 9.43815 58.7093 9.25343 59.0429 8.92436C59.3729 8.56249 59.5557 8.09178 59.5557 7.60361C59.5557 7.11544 59.3729 6.64473 59.0429 6.28286C58.7093 5.95379 58.258 5.76907 57.7876 5.76907C57.3172 5.76907 56.8659 5.95379 56.5323 6.28286C56.2023 6.64473 56.0195 7.11544 56.0195 7.60361C56.0195 8.09178 56.2023 8.56249 56.5323 8.92436Z" fill="#2B4059"/>
<path d="M55.4518 17.1927C54.775 17.1958 54.1144 17.3979 53.5533 17.7734C52.9921 18.149 52.5556 18.6811 52.2988 19.3026C52.0421 19.9241 51.9765 20.6073 52.1105 21.2657C52.2445 21.9242 52.572 22.5285 53.0516 23.0024C53.5313 23.4763 54.1416 23.7986 54.8056 23.9285C55.4696 24.0584 56.1574 23.9901 56.7824 23.7323C57.4073 23.4745 57.9413 23.0387 58.3169 22.4799C58.6926 21.9212 58.8931 21.2644 58.8931 20.5927C58.8997 20.143 58.815 19.6967 58.6442 19.2801C58.4734 18.8636 58.2199 18.4855 57.8988 18.1683C57.5777 17.851 57.1956 17.6012 56.7752 17.4336C56.3548 17.266 55.9047 17.184 55.4518 17.1927ZM55.4518 22.6567C55.0356 22.6856 54.6203 22.5895 54.2598 22.381C53.8993 22.1725 53.6104 21.8611 53.4305 21.4874C53.2507 21.1137 53.1883 20.695 53.2514 20.2856C53.3144 19.8762 53.5001 19.4951 53.7843 19.1919C54.0685 18.8887 54.438 18.6773 54.8447 18.5853C55.2515 18.4933 55.6768 18.5249 56.0652 18.6759C56.4537 18.827 56.7874 19.0906 57.0229 19.4324C57.2585 19.7743 57.385 20.1785 57.386 20.5927C57.399 20.8551 57.3589 21.1174 57.2681 21.3642C57.1773 21.611 57.0377 21.8372 56.8574 22.0296C56.6772 22.222 56.4599 22.3766 56.2185 22.4843C55.9771 22.592 55.7164 22.6506 55.4518 22.6567ZM47.9486 17.1927C47.2715 17.1943 46.6101 17.395 46.0479 17.7696C45.4857 18.1441 45.0479 18.6757 44.7899 19.2971C44.5319 19.9185 44.4652 20.6019 44.5983 21.2609C44.7314 21.9199 45.0582 22.525 45.5376 22.9996C46.0169 23.4743 46.6272 23.7974 47.2914 23.9279C47.9556 24.0585 48.6439 23.9907 49.2693 23.7331C49.8947 23.4755 50.4292 23.0397 50.8052 22.4808C51.1812 21.9218 51.3819 21.2648 51.3819 20.5927C51.3884 20.143 51.3038 19.6967 51.133 19.2801C50.9622 18.8636 50.7086 18.4855 50.3876 18.1683C50.0665 17.851 49.6844 17.6012 49.264 17.4336C48.8436 17.266 48.3935 17.184 47.9406 17.1927H47.9486ZM47.9486 22.6567C47.5322 22.6872 47.1162 22.5926 46.7547 22.3851C46.3933 22.1777 46.1031 21.867 45.922 21.4935C45.7409 21.1201 45.6772 20.7012 45.7393 20.2913C45.8014 19.8815 45.9864 19.4997 46.2701 19.1956C46.5539 18.8916 46.9233 18.6794 47.3302 18.5866C47.7371 18.4939 48.1628 18.5249 48.5517 18.6756C48.9407 18.8264 49.2749 19.0898 49.5109 19.4318C49.7468 19.7737 49.8736 20.1782 49.8748 20.5927C49.8878 20.8551 49.8477 21.1174 49.7569 21.3642C49.6661 21.611 49.5265 21.8372 49.3462 22.0296C49.1659 22.222 48.9487 22.3766 48.7073 22.4843C48.4659 22.592 48.2052 22.6506 47.9406 22.6567H47.9486ZM39.0109 18.2407V19.6807H42.4925C42.4379 20.3589 42.1539 20.9989 41.6866 21.4967C41.3383 21.8489 40.9195 22.1248 40.4573 22.3066C39.9951 22.4885 39.4996 22.5723 39.0028 22.5527C37.9769 22.5527 36.9929 22.1481 36.2674 21.428C35.542 20.7078 35.1344 19.7311 35.1344 18.7127C35.1344 17.6942 35.542 16.7175 36.2674 15.9974C36.9929 15.2772 37.9769 14.8727 39.0028 14.8727C39.9843 14.8568 40.932 15.2279 41.6382 15.9047L42.6617 14.8887C42.185 14.4095 41.6163 14.0302 40.9891 13.7732C40.362 13.5162 39.6893 13.3868 39.0109 13.3927C38.2944 13.365 37.5797 13.4812 36.9095 13.7342C36.2394 13.9873 35.6276 14.3721 35.1108 14.8655C34.5941 15.3589 34.1829 15.9507 33.9021 16.6056C33.6213 17.2605 33.4766 17.9649 33.4766 18.6767C33.4766 19.3884 33.6213 20.0928 33.9021 20.7477C34.1829 21.4026 34.5941 21.9945 35.1108 22.4879C35.6276 22.9813 36.2394 23.366 36.9095 23.6191C37.5797 23.8722 38.2944 23.9883 39.0109 23.9607C39.7007 23.9916 40.3892 23.8755 41.0301 23.6203C41.671 23.365 42.2493 22.9764 42.7262 22.4807C43.5706 21.5598 44.0214 20.3493 43.9835 19.1047C43.9861 18.8015 43.9591 18.4987 43.9029 18.2007L39.0109 18.2407ZM75.5274 19.3607C75.3172 18.7469 74.9242 18.2109 74.4003 17.8238C73.8765 17.4366 73.2465 17.2165 72.5938 17.1927C72.153 17.1918 71.7167 17.2807 71.3118 17.4539C70.9069 17.6271 70.5422 17.8808 70.24 18.1995C69.9379 18.5182 69.7048 18.895 69.5552 19.3066C69.4056 19.7182 69.3426 20.1559 69.3701 20.5927C69.3603 21.0398 69.4414 21.4843 69.6086 21.8996C69.7757 22.3149 70.0255 22.6926 70.3429 23.0099C70.6604 23.3273 71.039 23.5779 71.4562 23.7467C71.8734 23.9156 72.3206 23.9992 72.7711 23.9927C73.3349 23.9957 73.8906 23.8599 74.3885 23.5974C74.8864 23.3349 75.3109 22.954 75.6241 22.4887L74.4555 21.6887C74.2811 21.9773 74.0342 22.216 73.7389 22.3815C73.4437 22.547 73.1102 22.6335 72.7711 22.6327C72.422 22.6459 72.077 22.5545 71.7809 22.3705C71.4848 22.1864 71.2514 21.9182 71.1109 21.6007L75.6967 19.7207L75.5274 19.3607ZM70.853 20.4967C70.8367 20.2492 70.8703 20.001 70.9518 19.7666C71.0333 19.5322 71.1611 19.3163 71.3277 19.1315C71.4943 18.9468 71.6964 18.7969 71.9221 18.6906C72.1478 18.5843 72.3926 18.5238 72.6422 18.5127C72.9022 18.4957 73.1614 18.5548 73.3878 18.6828C73.6142 18.8108 73.7977 19.002 73.9156 19.2327L70.853 20.4967ZM67.1297 23.7927H68.6367V13.7927H67.1297V23.7927ZM64.6635 17.9527H64.6071C64.38 17.7006 64.1017 17.499 63.7906 17.3611C63.4795 17.2233 63.1425 17.1522 62.8018 17.1527C61.9211 17.1951 61.0906 17.5722 60.4824 18.2059C59.8741 18.8397 59.5349 19.6814 59.5349 20.5567C59.5349 21.432 59.8741 22.2737 60.4824 22.9074C61.0906 23.5411 61.9211 23.9183 62.8018 23.9607C63.1434 23.9664 63.482 23.8977 63.7939 23.7595C64.1058 23.6213 64.3834 23.4169 64.6071 23.1607H64.6555V23.6487C64.6555 24.9527 63.9543 25.6487 62.826 25.6487C62.4502 25.6399 62.0856 25.5204 61.7784 25.3053C61.4713 25.0902 61.2356 24.7892 61.1013 24.4407L59.7877 24.9847C60.035 25.5818 60.4563 26.0919 60.9976 26.4497C61.539 26.8074 62.1757 26.9965 62.826 26.9927C64.591 26.9927 66.0497 25.9607 66.0497 23.4487V17.3927H64.6635V17.9527ZM62.9388 22.6567C62.419 22.6112 61.9351 22.3741 61.5827 21.992C61.2302 21.61 61.0347 21.1107 61.0347 20.5927C61.0347 20.0746 61.2302 19.5754 61.5827 19.1933C61.9351 18.8113 62.419 18.5741 62.9388 18.5287C63.1966 18.5418 63.4491 18.606 63.6815 18.7175C63.9138 18.829 64.1214 18.9855 64.2919 19.1779C64.4624 19.3702 64.5923 19.5945 64.6742 19.8375C64.756 20.0804 64.788 20.3372 64.7683 20.5927C64.7903 20.8492 64.7596 21.1075 64.6782 21.352C64.5967 21.5964 64.4662 21.822 64.2944 22.0149C64.1226 22.2078 63.9132 22.3642 63.6788 22.4745C63.4445 22.5848 63.19 22.6468 62.9308 22.6567H62.9388ZM82.5873 13.7927H78.9848V23.7927H80.4919V20.0007H82.5954C83.0249 20.0313 83.4562 19.9738 83.8623 19.8317C84.2684 19.6895 84.6407 19.4659 84.9559 19.1747C85.2712 18.8834 85.5226 18.5309 85.6945 18.1389C85.8664 17.747 85.9551 17.3241 85.9551 16.8967C85.9551 16.4692 85.8664 16.0463 85.6945 15.6544C85.5226 15.2625 85.2712 14.9099 84.9559 14.6187C84.6407 14.3274 84.2684 14.1038 83.8623 13.9617C83.4562 13.8196 83.0249 13.762 82.5954 13.7927H82.5873ZM82.5873 18.5927H80.4838V15.1847H82.6196C83.078 15.1847 83.5177 15.3655 83.8419 15.6873C84.1661 16.0091 84.3483 16.4456 84.3483 16.9007C84.3483 17.3558 84.1661 17.7923 83.8419 18.1141C83.5177 18.4359 83.078 18.6167 82.6196 18.6167L82.5873 18.5927ZM91.8796 17.1527C91.331 17.1201 90.7847 17.2474 90.3079 17.5188C89.8311 17.7903 89.4446 18.1941 89.1959 18.6807L90.5337 19.2327C90.6657 18.9914 90.8654 18.7933 91.1086 18.6626C91.3519 18.532 91.6282 18.4743 91.9038 18.4967C92.0951 18.4745 92.289 18.4904 92.4741 18.5433C92.6591 18.5963 92.8317 18.6853 92.9818 18.8052C93.1318 18.9251 93.2563 19.0735 93.348 19.2416C93.4396 19.4098 93.4966 19.5944 93.5157 19.7847V19.8887C93.0316 19.6343 92.4918 19.5024 91.9441 19.5047C90.5015 19.5047 89.0428 20.3047 89.0428 21.7527C89.057 22.0614 89.1335 22.3642 89.2676 22.6431C89.4018 22.922 89.5909 23.1714 89.8238 23.3765C90.0568 23.5816 90.3287 23.7383 90.6237 23.8372C90.9187 23.9362 91.2306 23.9755 91.5412 23.9527C91.9207 23.9797 92.3005 23.9049 92.6409 23.736C92.9812 23.567 93.2695 23.3103 93.4754 22.9927H93.5237V23.7927H94.9744V19.9447C94.9744 18.1927 93.6366 17.1767 91.9199 17.1767L91.8796 17.1527ZM91.6943 22.6327C91.2027 22.6327 90.5176 22.3847 90.5176 21.7847C90.5176 20.9847 91.3719 20.7207 92.1295 20.7207C92.6082 20.7089 93.0814 20.825 93.4996 21.0567C93.4492 21.4898 93.2428 21.8902 92.9185 22.1843C92.5941 22.4783 92.1737 22.646 91.7346 22.6567L91.6943 22.6327ZM100.261 17.3927L98.5366 21.7287H98.4882L96.6991 17.3927H95.0872L97.771 23.4567L96.2397 26.8247H97.8113L101.938 17.3927H100.261ZM86.7137 23.7927H88.2207V13.7927H86.7137V23.7927Z" fill="#2B4059"/>
</svg>
