<svg width="18" height="21" viewBox="0 0 18 21" fill="none" xmlns="http://www.w3.org/2000/svg">
<path d="M14.6909 11.1628C14.667 8.5111 16.8621 7.22104 16.9625 7.16098C15.7193 5.34848 13.7925 5.10083 13.1153 5.08108C11.497 4.91078 9.92721 6.04945 9.10282 6.04945C8.26198 6.04945 6.99249 5.09754 5.62426 5.12551C3.86359 5.15266 2.21646 6.17204 1.31309 7.755C-0.551252 10.9826 0.839185 15.7257 2.62536 18.3347C3.51886 19.6124 4.56292 21.039 5.9295 20.9888C7.26646 20.9337 7.76587 20.1365 9.37927 20.1365C10.9779 20.1365 11.4468 20.9888 12.8405 20.9568C14.2754 20.9337 15.1788 19.6733 16.041 18.384C17.0736 16.9195 17.4882 15.4773 17.5047 15.4032C17.471 15.3917 14.7181 14.3411 14.6909 11.1628Z" fill="#2B4059"/>
<path d="M12.0583 3.3642C12.7773 2.46494 13.2693 1.24152 13.1328 0C12.092 0.0460737 10.7904 0.719901 10.0409 1.59941C9.37776 2.37444 8.78538 3.64475 8.93841 4.83938C10.1075 4.92659 11.3079 4.24947 12.0583 3.3642Z" fill="#2B4059"/>
</svg>
