<svg width="21" height="24" viewBox="0 0 21 24" fill="none" xmlns="http://www.w3.org/2000/svg">
<path d="M1.36417 22.8681L11.9425 11.9769L1.37303 1.10522C1.09072 1.27448 0.916016 1.66638 0.916016 2.17938V21.8043C0.919802 22.3173 1.08819 22.6806 1.36417 22.8681Z" fill="#2B4059"/>
<path d="M12.322 11.676L15.473 8.43145L2.64116 1.18716C2.42509 1.05791 2.17965 0.989632 1.92969 0.989258L12.3207 11.6747L12.322 11.676Z" fill="#2B4059"/>
<path d="M12.3204 12.2786L1.89648 23.0109C2.15811 23.0154 2.41582 22.9451 2.64087 22.8078L15.498 15.544L12.3204 12.2786Z" fill="#2B4059"/>
<path d="M20.1185 11.06L15.8484 8.64478L12.6113 11.9779L15.8724 15.3318L20.1172 12.9231C21.0198 12.4115 21.0198 11.5691 20.1185 11.06Z" fill="#2B4059"/>
</svg>
