<svg width="16" height="16" viewBox="0 0 16 16" fill="none" xmlns="http://www.w3.org/2000/svg">
<rect y="0.000244141" width="16" height="16" fill="#0077B7"/>
<path fill-rule="evenodd" clip-rule="evenodd" d="M3.87906 2.72607C3.07256 2.72607 2.54492 3.25548 2.54492 3.95104C2.54492 4.63183 3.05727 5.17654 3.84811 5.17654H3.86341C4.68573 5.17654 5.19702 4.63183 5.19702 3.95104C5.18137 3.25548 4.68573 2.72607 3.87906 2.72607ZM13.5425 9.16881V13.2353H11.1849V9.44134C11.1849 8.48873 10.8445 7.83818 9.99086 7.83818C9.33944 7.83818 8.95245 8.27616 8.78155 8.70024C8.71949 8.8518 8.70349 9.06226 8.70349 9.27484V13.2351H6.3457C6.3457 13.2351 6.37735 6.80943 6.3457 6.14429H8.70366V7.14912C8.70144 7.15283 8.69879 7.1565 8.69617 7.16013L8.69616 7.16014C8.69319 7.16425 8.69026 7.16832 8.68801 7.17233H8.70366V7.14912C9.01698 6.66701 9.57574 5.97778 10.8285 5.97778C12.3796 5.97778 13.5425 6.99123 13.5425 9.16881ZM5.04053 13.2353H2.68359V6.14429H5.04053V13.2353Z" fill="#F3F3F5"/>
</svg>
