<svg width="14" height="14" viewBox="0 0 14 14" fill="none" xmlns="http://www.w3.org/2000/svg">
<rect x="0.599609" y="0.600586" width="12.8" height="12.8" fill="#2B4059"/>
<path fill-rule="evenodd" clip-rule="evenodd" d="M3.70403 2.78125C3.05883 2.78125 2.63672 3.20478 2.63672 3.76122C2.63672 4.30586 3.0466 4.74162 3.67927 4.74162H3.69151C4.34937 4.74162 4.7584 4.30586 4.7584 3.76122C4.74588 3.20478 4.34937 2.78125 3.70403 2.78125ZM11.4343 7.9353V11.1885H9.54821V8.15332C9.54821 7.39123 9.2759 6.87079 8.593 6.87079C8.07187 6.87079 7.76228 7.22117 7.62556 7.56044C7.5759 7.68169 7.5631 7.85006 7.5631 8.02012V11.1883H5.67688C5.67688 11.1883 5.7022 6.04779 5.67688 5.51568H7.56325V6.31955C7.56146 6.32251 7.55934 6.32545 7.55725 6.32836C7.55487 6.33165 7.55252 6.3349 7.55073 6.33811H7.56325V6.31955C7.8139 5.93386 8.26091 5.38247 9.2631 5.38247C10.504 5.38247 11.4343 6.19323 11.4343 7.9353ZM4.63433 11.1886H2.74879V5.5158H4.63433V11.1886Z" fill="#F3F3F5"/>
</svg>
