<svg width="16" height="16" viewBox="0 0 16 16" fill="none" xmlns="http://www.w3.org/2000/svg">
<path fill-rule="evenodd" clip-rule="evenodd" d="M0.846608 4.8555C0.832373 4.96447 0.818137 5.07345 0.802734 5.18223V10.8151C0.811215 10.873 0.820959 10.9308 0.830704 10.9885C0.851711 11.1131 0.872721 11.2377 0.881075 11.363C1.02269 13.4838 2.48635 15.0549 4.60367 15.1345C6.94503 15.2224 9.29454 15.2203 11.6361 15.1357C13.7534 15.0593 15.286 13.492 15.3521 11.3743C15.4225 9.12567 15.4225 6.87152 15.3521 4.62286C15.286 2.50519 13.7529 0.937666 11.6359 0.861452C9.29436 0.777086 6.94538 0.781339 4.60349 0.861807C2.65845 0.928804 1.29812 2.23613 0.94949 4.1576C0.907566 4.38885 0.877089 4.62216 0.846608 4.8555ZM9.10069 13.8871C8.76903 13.8841 8.43737 13.881 8.10582 13.881C7.77856 13.881 7.45119 13.884 7.12381 13.8871C6.39266 13.8939 5.66149 13.9007 4.93159 13.8736C3.26694 13.8119 2.23185 12.831 2.18665 11.1736C2.12923 9.05844 2.12923 6.93953 2.18665 4.82433C2.23185 3.16678 3.26694 2.16271 4.93142 2.12779C7.06027 2.08312 9.19142 2.08277 11.3203 2.12779C12.9975 2.16341 14.0303 3.18822 14.0695 4.86421C14.118 6.95318 14.118 9.0448 14.0695 11.1336C14.0303 12.8099 12.9982 13.8113 11.3203 13.8736C10.5812 13.9008 9.84096 13.894 9.10069 13.8871Z" fill="#2B4059"/>
<path fill-rule="evenodd" clip-rule="evenodd" d="M4.38281 8.00012C4.38281 5.94519 6.04888 4.2793 8.10381 4.2793C10.1589 4.2793 11.8248 5.94519 11.8248 8.00012C11.8248 10.0552 10.1589 11.7211 8.10381 11.7211C6.04888 11.7211 4.38281 10.0552 4.38281 8.00012ZM5.66306 7.99996C5.66306 9.34752 6.7554 10.4399 8.10296 10.4399C9.45052 10.4399 10.5428 9.34752 10.5428 7.99996C10.5428 6.6524 9.45052 5.56006 8.10296 5.56006C6.7554 5.56006 5.66306 6.6524 5.66306 7.99996Z" fill="#2B4059"/>
<path d="M12.9268 4.10896C12.9268 4.59779 12.5304 4.9941 12.0416 4.9941C11.5527 4.9941 11.1562 4.59779 11.1562 4.10896C11.1562 3.61995 11.5527 3.22363 12.0416 3.22363C12.5304 3.22363 12.9268 3.61995 12.9268 4.10896Z" fill="#2B4059"/>
</svg>
