<svg width="19" height="18" viewBox="0 0 19 18" fill="none" xmlns="http://www.w3.org/2000/svg">
<path fill-rule="evenodd" clip-rule="evenodd" d="M0.0567948 5.06938C0.0390016 5.20559 0.021207 5.34182 0.00195312 5.47779V12.5189C0.012554 12.5912 0.0247343 12.6634 0.036915 12.7357C0.0631744 12.8914 0.0894359 13.0471 0.0998788 13.2037C0.276898 15.8548 2.10647 17.8186 4.75312 17.9181C7.67982 18.028 10.6167 18.0253 13.5436 17.9197C16.1903 17.8242 18.106 15.865 18.1887 13.2179C18.2766 10.4071 18.2766 7.5894 18.1887 4.77858C18.106 2.13148 16.1896 0.172082 13.5434 0.0768154C10.6165 -0.028643 7.68026 -0.0233258 4.7529 0.0772585C2.3216 0.161005 0.621189 1.79517 0.185398 4.197C0.132992 4.48606 0.0948966 4.7777 0.0567948 5.06938ZM10.3761 16.3589C9.96151 16.3551 9.54693 16.3512 9.13248 16.3512C8.72341 16.3512 8.31419 16.355 7.90496 16.3589C6.99103 16.3674 6.07707 16.3759 5.1647 16.3419C3.08388 16.2648 1.79002 15.0388 1.73352 12.967C1.66174 10.323 1.66174 7.67439 1.73352 5.0304C1.79002 2.95845 3.08388 1.70336 5.16448 1.65972C7.82554 1.60388 10.4895 1.60344 13.1505 1.65972C15.2471 1.70425 16.5381 2.98526 16.587 5.08025C16.6477 7.69145 16.6477 10.306 16.587 12.917C16.5381 15.0124 15.248 16.2642 13.1505 16.3419C12.2267 16.376 11.3014 16.3675 10.3761 16.3589Z" fill="#CF2B8E"/>
<path fill-rule="evenodd" clip-rule="evenodd" d="M4.47656 9.00016C4.47656 6.43149 6.55914 4.34912 9.12781 4.34912C11.6967 4.34912 13.7791 6.43149 13.7791 9.00016C13.7791 11.569 11.6967 13.6514 9.12781 13.6514C6.55914 13.6514 4.47656 11.569 4.47656 9.00016ZM6.07617 9.00007C6.07617 10.6845 7.44159 12.0499 9.12604 12.0499C10.8105 12.0499 12.1759 10.6845 12.1759 9.00007C12.1759 7.31562 10.8105 5.9502 9.12604 5.9502C7.44159 5.9502 6.07617 7.31562 6.07617 9.00007Z" fill="#CF2B8E"/>
<path d="M15.1584 4.13644C15.1584 4.74748 14.663 5.24287 14.052 5.24287C13.4409 5.24287 12.9453 4.74748 12.9453 4.13644C12.9453 3.52518 13.4409 3.02979 14.052 3.02979C14.663 3.02979 15.1584 3.52518 15.1584 4.13644Z" fill="#CF2B8E"/>
</svg>
