<svg width="85" height="32" viewBox="0 0 85 32" fill="none" xmlns="http://www.w3.org/2000/svg">
<path fill-rule="evenodd" clip-rule="evenodd" d="M57.1668 12.4294C56.3289 13.9701 54.7381 14.9254 53.0019 14.9254C50.3808 14.9254 48.2485 12.7571 48.2485 10.0952C48.2485 7.43039 50.3808 5.26505 53.0019 5.26505C54.7399 5.26505 56.3307 6.22032 57.1668 7.762L57.1754 7.75717L61.4788 4.95736C59.7021 1.9324 56.494 0.0696909 53.0019 0.0696909C50.3846 0.0696909 47.9116 1.11695 46.0377 3.0199C44.1638 4.92194 43.1317 7.43522 43.1317 10.0952C43.1317 12.7531 44.1638 15.2674 46.0377 17.1685C47.9116 19.0705 50.3846 20.1187 53.0019 20.1187C56.5601 20.1187 59.8237 18.1861 61.5796 15.0576L57.2121 12.4542L57.1668 12.4294ZM5.73868 7.58192H13.3134V0.0717406H19.0519V20.1189H13.3134V12.6078H5.73868V20.1189H0V0.0717406H5.73868V7.58192ZM75.1542 6.93896L79.2616 0.0696909H85V20.1178H79.2616V8.78144L75.1542 15.4562L71.046 8.78144V20.1178H65.3075V0.0696909H71.046L75.1542 6.93896ZM36.0691 10.0235L29.8342 20.0471H23.8474L30.0842 10.0235L23.8474 0H29.8342L36.0691 10.0235ZM42.3046 0L39.0551 5.22295L38.7643 5.68955L35.7648 0.895941L35.2045 0H42.3046Z" fill="#EC464C"/>
<path d="M0 26.7182C0 26.1304 0.139467 25.6031 0.418402 25.1363C0.703272 24.6696 1.08607 24.3065 1.56678 24.0472C2.05343 23.7821 2.5846 23.6496 3.16027 23.6496C3.81903 23.6496 4.40361 23.8081 4.914 24.125C5.43033 24.4362 5.80422 24.8799 6.03567 25.4562H4.81607C4.65584 25.1392 4.43328 24.9029 4.14841 24.7474C3.86354 24.5918 3.53416 24.514 3.16027 24.514C2.75077 24.514 2.38578 24.6033 2.0653 24.7819C1.74483 24.9606 1.4926 25.217 1.30862 25.5512C1.13058 25.8855 1.04155 26.2744 1.04155 26.7182C1.04155 27.1619 1.13058 27.5508 1.30862 27.8851C1.4926 28.2193 1.74483 28.4786 2.0653 28.663C2.38578 28.8417 2.75077 28.931 3.16027 28.931C3.53416 28.931 3.86354 28.8532 4.14841 28.6976C4.43328 28.542 4.65584 28.3057 4.81607 27.9888H6.03567C5.80422 28.5651 5.43033 29.0088 4.914 29.3199C4.40361 29.6311 3.81903 29.7867 3.16027 29.7867C2.57866 29.7867 2.0475 29.6571 1.56678 29.3977C1.08607 29.1327 0.703272 28.7667 0.418402 28.3C0.139467 27.8332 0 27.3059 0 26.7182Z" fill="#EC464C"/>
<path d="M7.93259 27.3319C7.93259 26.8536 8.03348 26.43 8.23526 26.0612C8.44298 25.6924 8.72191 25.4072 9.07207 25.2055C9.42815 24.998 9.81985 24.8943 10.2472 24.8943C10.6329 24.8943 10.9682 24.9692 11.2531 25.119C11.5439 25.2631 11.7754 25.4446 11.9475 25.6636V24.9721H12.9712V29.7348H11.9475V29.0261C11.7754 29.2508 11.5409 29.4381 11.2442 29.5879C10.9475 29.7377 10.6092 29.8126 10.2293 29.8126C9.80798 29.8126 9.42222 29.7089 9.07207 29.5015C8.72191 29.2883 8.44298 28.9944 8.23526 28.6198C8.03348 28.2395 7.93259 27.8102 7.93259 27.3319ZM11.9475 27.3492C11.9475 27.0207 11.8763 26.7354 11.7338 26.4934C11.5973 26.2514 11.4163 26.067 11.1908 25.9402C10.9653 25.8134 10.7219 25.75 10.4608 25.75C10.1997 25.75 9.95635 25.8134 9.73083 25.9402C9.5053 26.0612 9.32133 26.2427 9.17889 26.4848C9.04239 26.721 8.97414 27.0034 8.97414 27.3319C8.97414 27.6603 9.04239 27.9485 9.17889 28.1962C9.32133 28.444 9.5053 28.6342 9.73083 28.7667C9.96228 28.8935 10.2056 28.9569 10.4608 28.9569C10.7219 28.9569 10.9653 28.8935 11.1908 28.7667C11.4163 28.64 11.5973 28.4556 11.7338 28.2135C11.8763 27.9657 11.9475 27.6776 11.9475 27.3492Z" fill="#EC464C"/>
<path d="M16.3663 25.6722C16.5384 25.4533 16.7729 25.2689 17.0696 25.119C17.3663 24.9692 17.7017 24.8943 18.0756 24.8943C18.5029 24.8943 18.8916 24.998 19.2417 25.2055C19.5978 25.4072 19.8768 25.6924 20.0785 26.0612C20.2803 26.43 20.3812 26.8536 20.3812 27.3319C20.3812 27.8102 20.2803 28.2395 20.0785 28.6198C19.8768 28.9944 19.5978 29.2883 19.2417 29.5015C18.8916 29.7089 18.5029 29.8126 18.0756 29.8126C17.7017 29.8126 17.3693 29.7406 17.0785 29.5965C16.7877 29.4467 16.5503 29.2623 16.3663 29.0433V31.9995H15.3515V24.9721H16.3663V25.6722ZM19.3486 27.3319C19.3486 27.0034 19.2773 26.721 19.1349 26.4848C18.9984 26.2427 18.8144 26.0612 18.583 25.9402C18.3575 25.8134 18.1141 25.75 17.853 25.75C17.5978 25.75 17.3545 25.8134 17.123 25.9402C16.8975 26.067 16.7135 26.2514 16.5711 26.4934C16.4346 26.7354 16.3663 27.0207 16.3663 27.3492C16.3663 27.6776 16.4346 27.9657 16.5711 28.2135C16.7135 28.4556 16.8975 28.64 17.123 28.7667C17.3545 28.8935 17.5978 28.9569 17.853 28.9569C18.1141 28.9569 18.3575 28.8935 18.583 28.7667C18.8144 28.6342 18.9984 28.444 19.1349 28.1962C19.2773 27.9485 19.3486 27.6603 19.3486 27.3319Z" fill="#EC464C"/>
<path d="M22.9484 24.3411C22.7645 24.3411 22.6102 24.2806 22.4855 24.1596C22.3609 24.0386 22.2986 23.8887 22.2986 23.7101C22.2986 23.5315 22.3609 23.3816 22.4855 23.2606C22.6102 23.1396 22.7645 23.0791 22.9484 23.0791C23.1265 23.0791 23.2778 23.1396 23.4024 23.2606C23.5271 23.3816 23.5894 23.5315 23.5894 23.7101C23.5894 23.8887 23.5271 24.0386 23.4024 24.1596C23.2778 24.2806 23.1265 24.3411 22.9484 24.3411ZM23.447 24.9721V29.7348H22.4321V24.9721H23.447Z" fill="#EC464C"/>
<path d="M27.0107 25.776V28.4123C27.0107 28.591 27.0522 28.7206 27.1353 28.8013C27.2243 28.8762 27.3727 28.9137 27.5804 28.9137H28.2036V29.7348H27.4024C26.9454 29.7348 26.5952 29.6311 26.3519 29.4237C26.1086 29.2162 25.9869 28.8791 25.9869 28.4123V25.776H25.4083V24.9721H25.9869V23.7879H27.0107V24.9721H28.2036V25.776H27.0107Z" fill="#EC464C"/>
<path d="M29.8479 27.3319C29.8479 26.8536 29.9488 26.43 30.1506 26.0612C30.3583 25.6924 30.6373 25.4072 30.9874 25.2055C31.3435 24.998 31.7352 24.8943 32.1625 24.8943C32.5483 24.8943 32.8836 24.9692 33.1685 25.119C33.4593 25.2631 33.6907 25.4446 33.8628 25.6636V24.9721H34.8866V29.7348H33.8628V29.0261C33.6907 29.2508 33.4563 29.4381 33.1596 29.5879C32.8628 29.7377 32.5245 29.8126 32.1447 29.8126C31.7233 29.8126 31.3376 29.7089 30.9874 29.5015C30.6373 29.2883 30.3583 28.9944 30.1506 28.6198C29.9488 28.2395 29.8479 27.8102 29.8479 27.3319ZM33.8628 27.3492C33.8628 27.0207 33.7916 26.7354 33.6492 26.4934C33.5127 26.2514 33.3317 26.067 33.1061 25.9402C32.8806 25.8134 32.6373 25.75 32.3762 25.75C32.115 25.75 31.8717 25.8134 31.6462 25.9402C31.4207 26.0612 31.2367 26.2427 31.0942 26.4848C30.9577 26.721 30.8895 27.0034 30.8895 27.3319C30.8895 27.6603 30.9577 27.9485 31.0942 28.1962C31.2367 28.444 31.4207 28.6342 31.6462 28.7667C31.8776 28.8935 32.121 28.9569 32.3762 28.9569C32.6373 28.9569 32.8806 28.8935 33.1061 28.7667C33.3317 28.64 33.5127 28.4556 33.6492 28.2135C33.7916 27.9657 33.8628 27.6776 33.8628 27.3492Z" fill="#EC464C"/>
<path d="M38.2817 23.3384V29.7348H37.2669V23.3384H38.2817Z" fill="#EC464C"/>
<path d="M50.5376 23.7274V29.7348H49.5228V25.6204L47.6355 29.7348H46.9322L45.0361 25.6204V29.7348H44.0212V23.7274H45.1162L47.2883 28.4383L49.4515 23.7274H50.5376Z" fill="#EC464C"/>
<path d="M52.5805 27.3319C52.5805 26.8536 52.6814 26.43 52.8832 26.0612C53.0909 25.6924 53.3698 25.4072 53.72 25.2055C54.0761 24.998 54.4678 24.8943 54.8951 24.8943C55.2808 24.8943 55.6161 24.9692 55.901 25.119C56.1918 25.2631 56.4233 25.4446 56.5954 25.6636V24.9721H57.6191V29.7348H56.5954V29.0261C56.4233 29.2508 56.1888 29.4381 55.8921 29.5879C55.5954 29.7377 55.2571 29.8126 54.8773 29.8126C54.4559 29.8126 54.0701 29.7089 53.72 29.5015C53.3698 29.2883 53.0909 28.9944 52.8832 28.6198C52.6814 28.2395 52.5805 27.8102 52.5805 27.3319ZM56.5954 27.3492C56.5954 27.0207 56.5242 26.7354 56.3817 26.4934C56.2452 26.2514 56.0642 26.067 55.8387 25.9402C55.6132 25.8134 55.3698 25.75 55.1087 25.75C54.8476 25.75 54.6043 25.8134 54.3787 25.9402C54.1532 26.0612 53.9692 26.2427 53.8268 26.4848C53.6903 26.721 53.6221 27.0034 53.6221 27.3319C53.6221 27.6603 53.6903 27.9485 53.8268 28.1962C53.9692 28.444 54.1532 28.6342 54.3787 28.7667C54.6102 28.8935 54.8535 28.9569 55.1087 28.9569C55.3698 28.9569 55.6132 28.8935 55.8387 28.7667C56.0642 28.64 56.2452 28.4556 56.3817 28.2135C56.5242 27.9657 56.5954 27.6776 56.5954 27.3492Z" fill="#EC464C"/>
<path d="M61.0142 25.6636C61.1626 25.4216 61.3585 25.2343 61.6018 25.1018C61.8511 24.9635 62.1448 24.8943 62.4831 24.8943V25.9143H62.2249C61.8273 25.9143 61.5246 26.0122 61.3169 26.2082C61.1151 26.4041 61.0142 26.7441 61.0142 27.2281V29.7348H59.9994V24.9721H61.0142V25.6636Z" fill="#EC464C"/>
<path d="M66.4039 27.3578L68.6651 29.7348H67.2942L65.4781 27.6863V29.7348H64.4633V23.3384H65.4781V27.0553L67.2586 24.9721H68.6651L66.4039 27.3578Z" fill="#EC464C"/>
<path d="M74.9354 27.2368C74.9354 27.4154 74.9235 27.5768 74.8998 27.7208H71.152C71.1817 28.1012 71.3271 28.4066 71.5882 28.6371C71.8493 28.8676 72.1698 28.9828 72.5496 28.9828C73.0956 28.9828 73.4814 28.761 73.7069 28.3173H74.8019C74.6535 28.7552 74.3835 29.1154 73.9918 29.3977C73.606 29.6743 73.1253 29.8126 72.5496 29.8126C72.0808 29.8126 71.6594 29.7118 71.2855 29.5101C70.9176 29.3027 70.6268 29.0145 70.4131 28.6457C70.2054 28.2712 70.1015 27.839 70.1015 27.3492C70.1015 26.8593 70.2024 26.43 70.4042 26.0612C70.6119 25.6867 70.8998 25.3985 71.2677 25.1968C71.6416 24.9952 72.0689 24.8943 72.5496 24.8943C73.0125 24.8943 73.425 24.9923 73.787 25.1882C74.1491 25.3841 74.431 25.6607 74.6327 26.018C74.8345 26.3695 74.9354 26.7758 74.9354 27.2368ZM73.8761 26.9256C73.8701 26.5626 73.7366 26.2716 73.4755 26.0526C73.2143 25.8336 72.8909 25.7241 72.5051 25.7241C72.155 25.7241 71.8553 25.8336 71.606 26.0526C71.3567 26.2658 71.2084 26.5568 71.1609 26.9256H73.8761Z" fill="#EC464C"/>
<path d="M78.1654 25.776V28.4123C78.1654 28.591 78.207 28.7206 78.2901 28.8013C78.3791 28.8762 78.5274 28.9137 78.7352 28.9137H79.3583V29.7348H78.5571C78.1001 29.7348 77.75 29.6311 77.5067 29.4237C77.2633 29.2162 77.1417 28.8791 77.1417 28.4123V25.776H76.563V24.9721H77.1417V23.7879H78.1654V24.9721H79.3583V25.776H78.1654Z" fill="#EC464C"/>
<path d="M83.1214 29.8126C82.7357 29.8126 82.3885 29.7464 82.0799 29.6138C81.7772 29.4755 81.5368 29.2911 81.3588 29.0606C81.1807 28.8244 81.0858 28.5622 81.0739 28.274H82.1244C82.1422 28.4757 82.2401 28.6457 82.4182 28.784C82.6021 28.9166 82.8306 28.9828 83.1036 28.9828C83.3885 28.9828 83.6081 28.931 83.7624 28.8272C83.9226 28.7178 84.0027 28.5795 84.0027 28.4123C84.0027 28.2337 83.9137 28.1012 83.7357 28.0147C83.5636 27.9283 83.2876 27.8332 82.9078 27.7295C82.5398 27.6315 82.2401 27.5364 82.0087 27.4442C81.7772 27.352 81.5754 27.2109 81.4033 27.0207C81.2371 26.8305 81.154 26.5799 81.154 26.2687C81.154 26.0151 81.2312 25.7846 81.3855 25.5772C81.5398 25.364 81.7594 25.1968 82.0443 25.0758C82.3351 24.9548 82.6674 24.8943 83.0413 24.8943C83.5992 24.8943 84.0472 25.0326 84.3855 25.3092C84.7298 25.58 84.9137 25.9517 84.9375 26.4243H83.9226C83.9048 26.211 83.8158 26.0411 83.6556 25.9143C83.4953 25.7875 83.2787 25.7241 83.0057 25.7241C82.7386 25.7241 82.5339 25.7731 82.3914 25.8711C82.249 25.969 82.1778 26.0987 82.1778 26.26C82.1778 26.3868 82.2253 26.4934 82.3202 26.5799C82.4152 26.6663 82.5309 26.7354 82.6674 26.7873C82.8039 26.8334 83.0057 26.8939 83.2728 26.9688C83.6288 27.061 83.9197 27.1561 84.1452 27.2541C84.3766 27.3463 84.5754 27.4846 84.7416 27.669C84.9078 27.8534 84.9938 28.0983 84.9998 28.4037C84.9998 28.6745 84.9226 28.9166 84.7683 29.1298C84.614 29.343 84.3944 29.5101 84.1096 29.6311C83.8306 29.7521 83.5013 29.8126 83.1214 29.8126Z" fill="#EC464C"/>
</svg>
