<svg width="64" height="88" viewBox="0 0 64 88" fill="none" xmlns="http://www.w3.org/2000/svg">
<path d="M21.6875 41.5C21.7396 40.5104 22.2604 39.9896 23.25 39.9375C24.1875 39.9896 24.7083 40.5104 24.8125 41.5C24.7083 42.4375 24.1875 42.9583 23.25 43.0625C22.2604 42.9583 21.7396 42.4375 21.6875 41.5ZM21.9219 29.625H24.3438C25.3854 29.6771 26.2448 30.0417 26.9219 30.7188C27.651 31.3958 28.0156 32.2552 28.0156 33.2969C27.9635 34.8073 27.2604 35.9271 25.9062 36.6562L24.4219 37.3594V37.75C24.3698 38.5312 23.9531 38.9479 23.1719 39C22.4427 38.9479 22.026 38.5312 21.9219 37.75V36.5781C21.974 36.1094 22.2344 35.7448 22.7031 35.4844L24.8906 34.3906C25.3073 34.1823 25.5156 33.8177 25.5156 33.2969C25.4635 32.5677 25.0729 32.1771 24.3438 32.125H21.9219C21.349 32.1771 21.0365 32.4896 20.9844 33.0625C20.8802 33.8438 20.4635 34.2604 19.7344 34.3125C18.9531 34.2604 18.5365 33.8438 18.4844 33.0625C18.4844 32.0729 18.8229 31.2656 19.5 30.6406C20.125 29.9635 20.9323 29.625 21.9219 29.625ZM34.5 49H24.5L15.9844 53.8438C15.8281 53.9479 15.6458 54 15.4375 54C14.8646 53.9479 14.5521 53.6354 14.5 53.0625V49H12C10.5938 48.9479 9.42188 48.4531 8.48438 47.5156C7.54688 46.5781 7.05208 45.4062 7 44V28.9219C7.05208 27.5677 7.54688 26.4219 8.48438 25.4844C9.42188 24.5469 10.5938 24.0521 12 24H34.5C35.9062 24.0521 37.0781 24.5469 38.0156 25.4844C38.9531 26.4219 39.4479 27.5677 39.5 28.9219V44C39.4479 45.4062 38.9531 46.5781 38.0156 47.5156C37.0781 48.4531 35.9062 48.9479 34.5 49ZM34.5 45.25C35.2812 45.1979 35.6979 44.7812 35.75 44V29C35.6979 28.2188 35.2812 27.8021 34.5 27.75H12C11.2188 27.8021 10.8021 28.2188 10.75 29V44C10.8021 44.7812 11.2188 45.1979 12 45.25H18.25V48.2188L23.4844 45.25H34.5ZM30.75 51.5V54C30.8021 54.7812 31.2188 55.1979 32 55.25H40.5156L45.75 58.2188V55.25H52C52.7812 55.1979 53.1979 54.7812 53.25 54V39C53.1979 38.2188 52.7812 37.8021 52 37.75H42V34H52C53.4062 34.0521 54.5781 34.5469 55.5156 35.4844C56.4531 36.4219 56.9479 37.5677 57 38.9219V54C56.9479 55.4062 56.4531 56.5781 55.5156 57.5156C54.5781 58.4531 53.4062 58.9479 52 59H49.5V63.0625C49.4479 63.6354 49.1354 63.9479 48.5625 64C48.3542 64 48.1719 63.9479 48.0156 63.8438L39.5 59H32C30.5938 58.9479 29.4219 58.4531 28.4844 57.5156C27.5469 56.5781 27.0521 55.4062 27 54V51.5H30.75Z" fill="#5090FC"/>
</svg>
