<svg width="64" height="88" viewBox="0 0 64 88" fill="none" xmlns="http://www.w3.org/2000/svg">
<path d="M54.1875 30.4062C53.9271 29.5208 53.3281 29.0521 52.3906 29H44.5C44.5 28.0104 44.5 27.151 44.5 26.4219C44.4479 25.7448 44.1875 25.1719 43.7188 24.7031C43.25 24.2344 42.6771 24 42 24H22C21.3229 24 20.75 24.2344 20.2812 24.7031C19.8125 25.1719 19.5521 25.7448 19.5 26.4219C19.4479 26.9948 19.4479 27.6719 19.5 28.4531C19.5 28.6094 19.5 28.7917 19.5 29H11.6094C10.6719 29.0521 10.0729 29.5208 9.8125 30.4062C9.76042 30.5625 9.65625 31.2656 9.5 32.5156C9.39583 33.7656 9.52604 35.3281 9.89062 37.2031C10.2552 39.1302 11.0885 41.1354 12.3906 43.2188C15.3594 47.5938 20.2552 50.6406 27.0781 52.3594C27.8073 52.5677 28.4844 52.9844 29.1094 53.6094C29.7344 54.1823 30.0729 54.8594 30.125 55.6406V60.25H23.875C22.7812 60.3542 22.1823 60.9792 22.0781 62.125C22.1823 63.2708 22.7812 63.8958 23.875 64H40.0469C41.1927 63.8958 41.7917 63.2708 41.8438 62.125C41.7396 60.9792 41.1406 60.3542 40.0469 60.25H33.875V55.6406C33.9271 54.8594 34.2656 54.1823 34.8906 53.6094C35.5156 52.9844 36.1927 52.5677 36.9219 52.3594C43.7448 50.6406 48.6406 47.5938 51.6094 43.2188C52.9115 41.1354 53.7448 39.1302 54.1094 37.2031C54.474 35.3281 54.6042 33.7656 54.5 32.5156C54.3438 31.2656 54.2396 30.5625 54.1875 30.4062ZM15.5156 41.1875C14.474 39.5208 13.8229 37.9323 13.5625 36.4219C13.3021 34.9115 13.1979 33.6875 13.25 32.75H19.5781C19.7344 35.1458 20.1771 37.6198 20.9062 40.1719C21.5833 42.776 22.625 45.224 24.0312 47.5156C20.2292 46.0052 17.3906 43.8958 15.5156 41.1875ZM32 51.5C31.8958 51.3958 31.7917 51.2917 31.6875 51.1875C30.2292 49.625 28.875 47.9323 27.625 46.1094C26.3229 44.2344 25.2812 41.8646 24.5 39C23.6667 36.0833 23.25 32.3333 23.25 27.75H40.6719C40.6719 32.3333 40.2812 36.0573 39.5 38.9219C38.7188 41.8385 37.6771 44.2344 36.375 46.1094C35.125 47.9323 33.7708 49.625 32.3125 51.1875C32.2083 51.2917 32.1042 51.3958 32 51.5ZM48.4844 41.1875C46.6094 43.8958 43.7708 46.0052 39.9688 47.5156C41.375 45.224 42.4167 42.776 43.0938 40.1719C43.8229 37.5677 44.2656 35.0938 44.4219 32.75H50.75C50.8021 33.6875 50.6979 34.9115 50.4375 36.4219C50.1771 37.9323 49.526 39.5208 48.4844 41.1875Z" fill="#5090FC"/>
</svg>
