<svg width="64" height="88" viewBox="0 0 64 88" fill="none" xmlns="http://www.w3.org/2000/svg">
<path d="M15.75 55.875C15.8542 57.0208 16.4792 57.6458 17.625 57.75H50.125C51.2708 57.8542 51.8958 58.4792 52 59.625C51.8958 60.7708 51.2708 61.3958 50.125 61.5H17.625C16.0104 61.4479 14.6823 60.901 13.6406 59.8594C12.599 58.8177 12.0521 57.4896 12 55.875V28.375C12.1042 27.2292 12.7292 26.6042 13.875 26.5C15.0208 26.6042 15.6458 27.2292 15.75 28.375V55.875ZM37 31.5C37.7292 31.5 38.3281 31.7344 38.7969 32.2031C39.2656 32.6719 39.5 33.2708 39.5 34V41.5C39.5 42.2292 39.2656 42.8281 38.7969 43.2969C38.3281 43.7656 37.7292 44 37 44V47.75C36.9479 48.5312 36.5312 48.9479 35.75 49C34.9688 48.9479 34.5521 48.5312 34.5 47.75V44C33.7708 44 33.1719 43.7656 32.7031 43.2969C32.2344 42.8281 32 42.2292 32 41.5V34C32 33.2708 32.2344 32.6719 32.7031 32.2031C33.1719 31.7344 33.7708 31.5 34.5 31.5V27.75C34.5521 26.9688 34.9688 26.5521 35.75 26.5C36.5312 26.5521 36.9479 26.9688 37 27.75V31.5ZM42 41.5C42 40.7708 42.2344 40.1719 42.7031 39.7031C43.1719 39.2344 43.7708 39 44.5 39V35.25C44.5521 34.4688 44.9688 34.0521 45.75 34C46.5312 34.0521 46.9479 34.4688 47 35.25V39C47.7292 39 48.3281 39.2344 48.7969 39.7031C49.2656 40.1719 49.5 40.7708 49.5 41.5V46.5C49.5 47.2292 49.2656 47.8281 48.7969 48.2969C48.3281 48.7656 47.7292 49 47 49V52.75C46.9479 53.5312 46.5312 53.9479 45.75 54C44.9688 53.9479 44.5521 53.5312 44.5 52.75V49C43.7708 49 43.1719 48.7656 42.7031 48.2969C42.2344 47.8281 42 47.2292 42 46.5V41.5ZM24.5 30.25C24.5521 29.4688 24.9688 29.0521 25.75 29C26.5312 29.0521 26.9479 29.4688 27 30.25V34C27.7292 34 28.3281 34.2344 28.7969 34.7031C29.2656 35.1719 29.5 35.7708 29.5 36.5V46.5C29.5 47.2292 29.2656 47.8281 28.7969 48.2969C28.3281 48.7656 27.7292 49 27 49V52.75C26.9479 53.5312 26.5312 53.9479 25.75 54C24.9688 53.9479 24.5521 53.5312 24.5 52.75V49C23.7708 49 23.1719 48.7656 22.7031 48.2969C22.2344 47.8281 22 47.2292 22 46.5V36.5C22 35.7708 22.2344 35.1719 22.7031 34.7031C23.1719 34.2344 23.7708 34 24.5 34V30.25Z" fill="#5090FC"/>
</svg>
