<svg width="64" height="88" viewBox="0 0 64 88" fill="none" xmlns="http://www.w3.org/2000/svg">
<path d="M27 50.25C27 50.25 27 50.224 27 50.1719C27.0521 49.8594 26.974 49.4427 26.7656 48.9219C26.5573 48.401 25.9844 47.2292 25.0469 45.4062C24.1094 43.5312 22.5469 40.4323 20.3594 36.1094C19.5781 34.7031 18.4583 34 17 34C15.5417 34 14.4219 34.7031 13.6406 36.1094C12.1302 39.0781 10.9323 41.4219 10.0469 43.1406C9.00521 45.224 8.27604 46.7083 7.85938 47.5938C7.44271 48.4792 7.18229 49.0781 7.07812 49.3906C7.02604 49.7031 7 49.9896 7 50.25C7.05208 52.0208 8.01562 53.5052 9.89062 54.7031C11.7656 55.849 14.1094 56.4479 16.9219 56.5C19.7344 56.4479 22.1042 55.849 24.0312 54.7031C25.9062 53.5052 26.8958 52.0208 27 50.25ZM17 37.75L22.625 49H11.375L17 37.75ZM47.5469 60.25H33.875V36.1875C36.1146 35.4062 37.5208 33.8438 38.0938 31.5H47.625C48.7188 31.3958 49.3177 30.7969 49.4219 29.7031C49.3698 28.5052 48.7448 27.8542 47.5469 27.75H37.625C37.1562 26.6042 36.4271 25.6927 35.4375 25.0156C34.4479 24.3385 33.3021 24 32 24C30.6979 24 29.5521 24.3385 28.5625 25.0156C27.5208 25.6927 26.7656 26.6042 26.2969 27.75H16.375C15.2812 27.8542 14.6823 28.4531 14.5781 29.5469C14.5781 30.0677 14.7344 30.5104 15.0469 30.875C15.4115 31.2917 15.8542 31.5 16.375 31.5H25.9062C26.4792 33.8438 27.8854 35.4062 30.125 36.1875V60.25H16.375C15.2812 60.3542 14.6823 60.9531 14.5781 62.0469C14.5781 62.5677 14.7344 63.0104 15.0469 63.375C15.4115 63.7917 15.8542 64 16.375 64H47.5469C48.6927 63.8958 49.2917 63.2969 49.3438 62.2031C49.3438 61.0052 48.7448 60.3542 47.5469 60.25ZM32 32.75C31.2708 32.75 30.6979 32.5156 30.2812 32.0469C29.8125 31.5781 29.5781 30.9792 29.5781 30.25C29.5781 29.5208 29.8125 28.9219 30.2812 28.4531C30.75 27.9844 31.3229 27.75 32 27.75C32.6771 27.75 33.25 27.9844 33.7188 28.4531C34.1875 28.9219 34.4219 29.5208 34.4219 30.25C34.4219 30.9792 34.1875 31.5781 33.7188 32.0469C33.25 32.5156 32.6771 32.75 32 32.75ZM56.9219 50.25C56.9219 50.25 56.9219 50.224 56.9219 50.1719C56.974 49.8594 56.8958 49.4427 56.6875 48.9219C56.4792 48.401 55.9062 47.2292 54.9688 45.4062C54.0312 43.5312 52.4688 40.4323 50.2812 36.1094C49.5 34.7031 48.3802 34 46.9219 34C45.5156 34 44.3958 34.7031 43.5625 36.1094C42.1042 39.026 40.9323 41.3698 40.0469 43.1406C39.0052 45.224 38.276 46.7083 37.8594 47.5938C37.4427 48.4792 37.1823 49.0781 37.0781 49.3906C37.026 49.7031 37 49.9896 37 50.25C37.0521 52.0208 38.0156 53.5052 39.8906 54.7031C41.8177 55.849 44.1875 56.4479 47 56.5C49.8125 56.4479 52.1562 55.849 54.0312 54.7031C55.9062 53.5052 56.8698 52.0208 56.9219 50.25ZM41.2969 49C41.349 48.8958 41.7396 48.1406 42.4688 46.7344C43.1458 45.3281 43.9271 43.7396 44.8125 41.9688C45.6979 40.1979 46.401 38.7917 46.9219 37.75L52.5469 49H41.2969Z" fill="#5090FC"/>
</svg>
