<svg width="88" height="88" viewBox="0 0 88 88" fill="none" xmlns="http://www.w3.org/2000/svg">
<circle cx="44" cy="44" r="44" fill="#F3F3F5"/>
<path d="M58 58.5C58 57.6875 57.3125 57 56.5 57L34.5 57C33.625 57 33 56.375 33 55.5L33 29.5C33 28.6875 32.3125 28 31.5 28C30.625 28 30 28.6875 30 29.5L30 55.5C30 58 32 60 34.5 60L56.5 60C57.3125 60 58 59.375 58 58.5ZM51.5 52C52.3125 52 53 51.375 53 50.5L53 37.5C53 36.6875 52.3125 36 51.5 36C50.625 36 50 36.6875 50 37.5L50 50.5C50 51.375 50.625 52 51.5 52ZM47 41.5C47 40.6875 46.3125 40 45.5 40C44.625 40 44 40.6875 44 41.5L44 50.5C44 51.375 44.625 52 45.5 52C46.3125 52 47 51.375 47 50.5L47 41.5ZM41 33.5C41 32.6875 40.3125 32 39.5 32C38.625 32 38 32.6875 38 33.5L38 50.5C38 51.375 38.625 52 39.5 52C40.3125 52 41 51.375 41 50.5L41 33.5Z" fill="#5090FC"/>
</svg>
