<svg width="88" height="88" viewBox="0 0 88 88" fill="none" xmlns="http://www.w3.org/2000/svg">
<circle cx="44" cy="44" r="44" fill="#F3F3F5"/>
<path d="M33 56V32.0625C33 31.5 33.4375 31.0625 34 31.0625H44V36C44 37.125 44.875 38 46 38H50.9375V43.9375L54 40.9375V36.6875C54 35.625 53.5625 34.625 52.8125 33.875L48.125 29.1875C47.375 28.4375 46.375 28 45.3125 28H33.9375C31.75 28 30 29.8125 30 32V56C30 58.25 31.75 60 33.9375 60H50C51.8125 60 53.375 58.75 53.8125 57H34C33.4375 57 33 56.5625 33 56ZM48.25 49.4375C48.0625 49.625 48 49.875 48 50.125V52H47C46.75 52 46.5 51.875 46.375 51.625C45.625 50.125 43.5 49.75 42.25 50.75L41.375 48.125C41.1875 47.5 40.625 47.125 40 47.125C39.3125 47.125 38.75 47.5 38.5625 48.125L37.4375 51.5625C37.3125 51.8125 37.0625 52 36.75 52H36C35.4375 52 35 52.5 35 53C35 53.5625 35.4375 54 36 54H36.75C37.9375 54 38.9375 53.3125 39.3125 52.1875L40 50.1875L41 53.3125C41.125 53.75 41.5 54 41.875 54H42C42.3125 54 42.6875 53.8125 42.875 53.5L43.3125 52.5C43.5 52.1875 43.8125 52.125 44 52.125C44.125 52.125 44.4375 52.1875 44.625 52.5625C45.0625 53.4375 46 54 47 54H51.875C52.125 54 52.375 53.9375 52.5625 53.75L62.375 43.875L58.125 39.625L48.25 49.4375ZM65.5 38.5L63.5 36.5C62.875 35.875 61.875 35.875 61.25 36.5L59.5625 38.1875L63.8125 42.4375L65.5 40.75C66.125 40.125 66.125 39.125 65.5 38.5Z" fill="#5090FC"/>
</svg>
