<svg width="88" height="88" viewBox="0 0 88 88" fill="none" xmlns="http://www.w3.org/2000/svg">
<circle cx="44" cy="44" r="44" fill="#F3F3F5"/>
<path d="M31 53.5C31 54.375 31.625 55 32.5 55H58.5C59.3125 55 60 55.6875 60 56.5C60 57.375 59.3125 58 58.5 58H32.5C30 58 28 56 28 53.5V31.5C28 30.6875 28.625 30 29.5 30C30.3125 30 31 30.6875 31 31.5V53.5ZM48 34C49.0625 34 50 34.9375 50 36V42C50 43.125 49.0625 44 48 44V47C48 47.5625 47.5 48 47 48C46.4375 48 46 47.5625 46 47V44C44.875 44 44 43.125 44 42V36C44 34.9375 44.875 34 46 34V31C46 30.5 46.4375 30 47 30C47.5 30 48 30.5 48 31V34ZM52 42C52 40.9375 52.875 40 54 40V37C54 36.5 54.4375 36 55 36C55.5 36 56 36.5 56 37V40C57.0625 40 58 40.9375 58 42V46C58 47.125 57.0625 48 56 48V51C56 51.5625 55.5 52 55 52C54.4375 52 54 51.5625 54 51V48C52.875 48 52 47.125 52 46V42ZM38 33C38 32.5 38.4375 32 39 32C39.5 32 40 32.5 40 33V36C41.0625 36 42 36.9375 42 38V46C42 47.125 41.0625 48 40 48V51C40 51.5625 39.5 52 39 52C38.4375 52 38 51.5625 38 51V48C36.875 48 36 47.125 36 46V38C36 36.9375 36.875 36 38 36V33Z" fill="#5090FC"/>
</svg>
