<svg width="64" height="88" viewBox="0 0 64 88" fill="none" xmlns="http://www.w3.org/2000/svg">
<path d="M30.6719 38.375C30.8802 38.7396 31.3229 38.9479 32 39C32.6771 38.8958 33.1198 38.7135 33.3281 38.4531L38.9531 32.8281C39.3177 32.4635 39.5 32.0208 39.5 31.5C39.3958 30.3542 38.7708 29.7292 37.625 29.625C37.1042 29.625 36.6615 29.8073 36.2969 30.1719L33.875 32.5938V25.875C33.7708 24.7292 33.1458 24.1042 32 24C30.8542 24.1042 30.2292 24.7292 30.125 25.875V32.5938L27.625 30.1719C27.3125 29.8073 26.8958 29.625 26.375 29.625C25.2292 29.7292 24.6042 30.3542 24.5 31.5C24.5 32.0208 24.6823 32.4635 25.0469 32.8281L30.6719 38.375ZM33.25 49.5469C32.7812 49.1302 32.3646 48.9479 32 49C31.6354 48.9479 31.1927 49.1302 30.6719 49.5469L25.0469 55.1719C24.6823 55.5365 24.5 55.9792 24.5 56.5C24.6042 57.6458 25.2292 58.2708 26.375 58.375C26.8958 58.375 27.3385 58.1927 27.7031 57.8281L30.125 55.4062V62.125C30.2292 63.2708 30.8542 63.8958 32 64C33.1458 63.8958 33.7708 63.2708 33.875 62.125V55.4062L36.2969 57.8281C36.6615 58.1927 37.1042 58.375 37.625 58.375C38.3542 58.3229 38.849 58.0885 39.1094 57.6719C39.3698 57.2031 39.5 56.8125 39.5 56.5C39.5 55.9792 39.3177 55.5365 38.9531 55.1719L33.25 49.5469ZM47.625 42.125H16.375C15.2292 42.2292 14.6042 42.8281 14.5 43.9219C14.5 44.4427 14.6823 44.8854 15.0469 45.25C15.4115 45.6667 15.8542 45.875 16.375 45.875H47.625C48.7708 45.7708 49.3958 45.1458 49.5 44C49.3958 42.8542 48.7708 42.2292 47.625 42.125Z" fill="#5090FC"/>
</svg>
