<svg width="64" height="88" viewBox="0 0 64 88" fill="none" xmlns="http://www.w3.org/2000/svg">
<path d="M39.6562 24C40.3854 24.0521 40.9844 24.3385 41.4531 24.8594C41.8698 25.4323 41.974 26.1094 41.7656 26.8906L37.625 41.5H44.2656C45.0469 41.5 45.6979 41.7604 46.2188 42.2812C46.7396 42.8021 47 43.4531 47 44.2344C47 45.0677 46.6875 45.7708 46.0625 46.3438L25.8281 63.4531C25.4115 63.8177 24.9167 64 24.3438 64C23.6146 63.9479 23.0156 63.6615 22.5469 63.1406C22.1302 62.5677 22.026 61.8906 22.2344 61.1094L26.375 46.5H19.6562C18.875 46.5 18.25 46.2396 17.7812 45.7188C17.2604 45.25 17 44.625 17 43.8438C17 43.0625 17.3125 42.4115 17.9375 41.8906L38.1719 24.5469C38.5885 24.1823 39.0833 24 39.6562 24ZM36.8438 30.6406L22.625 42.75H28.875C29.5 42.75 29.9948 43.0104 30.3594 43.5312C30.724 44 30.8281 44.5469 30.6719 45.1719L27.1562 57.4375L41.5312 45.25H35.125C34.5 45.25 34.0052 45.0156 33.6406 44.5469C33.276 44.026 33.1719 43.4531 33.3281 42.8281L36.8438 30.6406Z" fill="#5090FC"/>
</svg>
