<svg width="88" height="88" viewBox="0 0 88 88" fill="none" xmlns="http://www.w3.org/2000/svg">
<circle cx="44" cy="44" r="44" fill="#F3F3F5"/>
<path d="M56.5 30C57.3125 30 58 30.6875 58 31.5C58 32.375 57.3125 33 56.5 33H33.5C32.0625 33 31 34.125 31 35.5V52.5C31 53.9375 32.0625 55 33.5 55H54.5C55.875 55 57 53.9375 57 52.5V41.5C57 40.125 55.875 39 54.5 39H35.5C34.625 39 34 38.375 34 37.5C34 36.6875 34.625 36 35.5 36H54.5C57.5 36 60 38.5 60 41.5V52.5C60 55.5625 57.5 58 54.5 58H33.5C30.4375 58 28 55.5625 28 52.5V35.5C28 32.5 30.4375 30 33.5 30H56.5ZM50 47C50 45.9375 50.875 45 52 45C53.0625 45 54 45.9375 54 47C54 48.125 53.0625 49 52 49C50.875 49 50 48.125 50 47Z" fill="#5090FC"/>
</svg>
