<svg width="20" height="16" viewBox="0 0 20 16" fill="none" xmlns="http://www.w3.org/2000/svg">
<path d="M19.688 1.89366C18.9638 2.21478 18.1848 2.43197 17.3679 2.52897C18.202 2.02922 18.8421 1.23848 19.1443 0.29472C18.3638 0.757715 17.4989 1.09359 16.5793 1.27463C15.8424 0.489919 14.7927 -0.000488281 13.6302 -0.000488281C11.3999 -0.000488281 9.59096 1.80842 9.59096 4.03874C9.59096 4.35534 9.62681 4.6635 9.69609 4.95931C6.33915 4.79092 3.36266 3.18294 1.37031 0.738436C1.02269 1.33488 0.82327 2.02922 0.82327 2.76935C0.82327 4.17038 1.53689 5.40725 2.62012 6.13141C1.95832 6.11063 1.33506 5.92898 0.790737 5.62564C0.790435 5.64281 0.790435 5.65998 0.790435 5.67685C0.790435 7.63396 2.18334 9.26634 4.0308 9.63716C3.69221 9.72994 3.33465 9.77904 2.96684 9.77904C2.70598 9.77904 2.45324 9.75404 2.20683 9.70705C2.72074 11.3114 4.21214 12.4793 5.98008 12.5121C4.59742 13.5957 2.85599 14.2412 0.963042 14.2412C0.63771 14.2412 0.315391 14.2222 0 14.1846C1.78661 15.3311 3.91031 15.9995 6.19124 15.9995C13.6209 15.9995 17.6839 9.84471 17.6839 4.50656C17.6839 4.33154 17.68 4.15713 17.6721 3.98422C18.462 3.41489 19.1467 2.70368 19.688 1.89366V1.89366Z" fill="#1DA1F2"/>
</svg>
