<svg width="16" height="14" viewBox="0 0 16 14" fill="none" xmlns="http://www.w3.org/2000/svg">
<path d="M15.7504 2.11493C15.1711 2.37182 14.5479 2.54557 13.8943 2.62317C14.5616 2.22338 15.0737 1.59079 15.3154 0.835776C14.691 1.20617 13.9991 1.47487 13.2634 1.6197C12.674 0.991935 11.8341 0.599609 10.9042 0.599609C9.11989 0.599609 7.67277 2.04673 7.67277 3.831C7.67277 4.08427 7.70144 4.3308 7.75687 4.56745C5.07132 4.43274 2.69013 3.14635 1.09625 1.19075C0.818149 1.6679 0.658616 2.22338 0.658616 2.81548C0.658616 3.93631 1.22951 4.9258 2.0961 5.50513C1.56665 5.4885 1.06805 5.34319 0.632589 5.10051C0.632348 5.11425 0.632348 5.12798 0.632348 5.14148C0.632348 6.70717 1.74667 8.01307 3.22464 8.30973C2.95377 8.38395 2.66772 8.42323 2.37348 8.42323C2.16478 8.42323 1.96259 8.40323 1.76547 8.36564C2.17659 9.64913 3.36971 10.5834 4.78406 10.6097C3.67793 11.4765 2.28479 11.993 0.770434 11.993C0.510168 11.993 0.252313 11.9778 0 11.9477C1.42929 12.8649 3.12824 13.3996 4.95299 13.3996C10.8967 13.3996 14.1471 8.47577 14.1471 4.20525C14.1471 4.06523 14.144 3.9257 14.1377 3.78738C14.7696 3.33191 15.3173 2.76294 15.7504 2.11493Z" fill="#2B4059"/>
</svg>
