<svg width="34" height="24" viewBox="0 0 34 24" fill="none" xmlns="http://www.w3.org/2000/svg">
<rect width="34" height="24" rx="3" fill="white"/>
<path d="M23.7189 9.25789L23.0146 8.55888C22.7228 8.26932 22.2498 8.26932 21.9581 8.55888L21.782 8.73364L18.2602 5.23851L18.4363 5.06375C18.728 4.77419 18.728 4.30474 18.4363 4.01521L17.7319 3.31617C17.4401 3.02661 16.9671 3.02661 16.6754 3.31617L12.8014 7.16082C12.5097 7.45038 12.5097 7.91983 12.8014 8.20935L13.5058 8.90837C13.7975 9.19793 14.2706 9.19793 14.5623 8.90837L14.7384 8.73361L15.971 9.9569L13.4484 12.4605L13.2723 12.2857C12.8833 11.8996 12.2526 11.8996 11.8636 12.2857L8.29176 15.8305C7.90275 16.2166 7.90275 16.8425 8.29176 17.2286L9.70047 18.6267C10.0895 19.0127 10.7202 19.0127 11.1092 18.6267L14.681 15.0818C15.07 14.6958 15.07 14.0699 14.681 13.6838L14.5049 13.509L17.0276 11.0055L18.2602 12.2288L18.0841 12.4035C17.7923 12.6931 17.7923 13.1625 18.0841 13.4521L18.7884 14.1511C19.0802 14.4406 19.5532 14.4406 19.845 14.1511L23.7189 10.3064C24.0107 10.0169 24.0107 9.54745 23.7189 9.25789Z" fill="#2B4059"/>
<path d="M15.9689 18.9162H25.9141" stroke="#2B4059" stroke-linecap="square"/>
</svg>
