<svg width="48" height="48" viewBox="0 0 48 48" fill="none" xmlns="http://www.w3.org/2000/svg">
<path d="M24 0C42.2945 0 48 6.58145 48 24C48 41.4185 42.2945 48 24 48C5.70545 48 0 41.4185 0 24C0 6.58145 5.70545 0 24 0Z" fill="white"/>
<g clip-path="url(#clip0_2454_39402)">
<rect x="13.1602" y="15.0858" width="22.0408" height="18.3822" fill="#081235"/>
<path d="M35.8982 12.9999H12.1018C12.0748 12.9999 12.0489 13.0107 12.0298 13.03C12.0107 13.0494 12 13.0756 12 13.1029V34.9021C12 34.9294 12.0107 34.9556 12.0298 34.9749C12.0489 34.9942 12.0748 35.0051 12.1018 35.0051H35.8982C35.9252 35.0051 35.9511 34.9942 35.9702 34.9749C35.9893 34.9556 36 34.9294 36 34.9021V13.1029C36 13.0756 35.9893 13.0494 35.9702 13.03C35.9511 13.0107 35.9252 12.9999 35.8982 12.9999V12.9999ZM22.6531 18.7505C22.6531 19.0886 22.4962 19.2577 22.1826 19.2577H17.4135C17.2236 19.2577 17.1287 19.3446 17.1287 19.5184V23.2392C17.1244 23.2781 17.1288 23.3174 17.1416 23.3544C17.1544 23.3913 17.1752 23.4249 17.2026 23.4525C17.2299 23.4802 17.2631 23.5013 17.2996 23.5142C17.3362 23.5272 17.3751 23.5316 17.4135 23.5273H21.466C21.7985 23.5273 21.9648 23.6955 21.9648 24.0318V25.6458C21.9648 25.9978 21.7985 26.1738 21.466 26.1738H17.4135C17.2236 26.1738 17.1287 26.2607 17.1287 26.4345V31.5477C17.1287 31.884 16.9624 32.0522 16.6299 32.0522H14.6075C14.275 32.0522 14.1087 31.884 14.1087 31.5477V17.1183C14.1087 16.7819 14.275 16.6137 14.6075 16.6137H22.1826C22.4988 16.6137 22.6569 16.7819 22.6569 17.1183L22.6531 18.7505ZM34.3527 28.1124C34.3527 29.3605 34.0047 30.3287 33.3087 31.0171C32.6127 31.7054 31.6473 32.0496 30.4125 32.0496H27.8256C26.5916 32.0496 25.6266 31.7054 24.9306 31.0171C24.2346 30.3287 23.8866 29.3605 23.8866 28.1124V27.6326C23.8866 27.2963 24.0528 27.1281 24.3854 27.1281H26.4026C26.7351 27.1281 26.9014 27.2963 26.9014 27.6326V27.8243C26.9014 28.4327 27.02 28.849 27.2571 29.0732C27.4943 29.2975 27.9295 29.4096 28.5628 29.4096H29.6778C30.2947 29.4096 30.7244 29.2897 30.9667 29.0498C31.209 28.8099 31.3315 28.3614 31.334 27.7044V27.4162C31.3422 27.2043 31.2948 26.994 31.1968 26.8065C31.0989 26.619 30.9537 26.461 30.7759 26.3485C30.3586 26.0868 29.8832 25.9348 29.3929 25.9065C28.7889 25.8506 28.1889 25.7574 27.5961 25.6276C26.9858 25.5008 26.3866 25.3242 25.8045 25.0996C25.2503 24.8831 24.7875 24.459 24.4163 23.8271C24.0451 23.1953 23.8591 22.3831 23.8582 21.3905V20.5509C23.8582 19.3029 24.2062 18.3346 24.9023 17.6463C25.5983 16.9579 26.5633 16.6137 27.7972 16.6137H30.174C31.4234 16.6137 32.3966 16.9579 33.0934 17.6463C33.7903 18.3346 34.1383 19.3029 34.1375 20.5509V21.0072C34.1375 21.3436 33.9712 21.5118 33.6387 21.5118H31.6241C31.2915 21.5118 31.1252 21.3436 31.1252 21.0072V20.8638C31.1252 20.2398 31.0067 19.8156 30.7695 19.5914C30.5323 19.3672 30.0971 19.2559 29.4638 19.2577H28.5383C27.8896 19.2577 27.4505 19.3815 27.2211 19.6292C26.9916 19.8769 26.8769 20.3615 26.8769 21.0828V21.5391C26.8769 22.2918 27.5257 22.7238 28.8232 22.835C30.0523 22.9202 31.2611 23.1954 32.4077 23.6511C32.9929 23.9202 33.4789 24.3697 33.7959 24.9353C34.1671 25.5515 34.3532 26.3398 34.354 27.3002L34.3527 28.1124Z" fill="url(#paint0_linear_2454_39402)"/>
</g>
<defs>
<linearGradient id="paint0_linear_2454_39402" x1="12.5916" y1="12.4614" x2="35.3046" y2="34.9171" gradientUnits="userSpaceOnUse">
<stop stop-color="#F5974C"/>
<stop offset="0.34" stop-color="#EFE11D"/>
<stop offset="0.5" stop-color="#EFE31C"/>
<stop offset="1" stop-color="#F5974B"/>
</linearGradient>
<clipPath id="clip0_2454_39402">
<rect width="24" height="22" fill="white" transform="translate(12 12.9999)"/>
</clipPath>
</defs>
</svg>
