<svg width="48" height="48" viewBox="0 0 48 48" fill="none" xmlns="http://www.w3.org/2000/svg">
<path d="M24 0.00012207C42.2945 0.00012207 48 6.58158 48 24.0001C48 41.4187 42.2945 48.0001 24 48.0001C5.70545 48.0001 0 41.4187 0 24.0001C0 6.58158 5.70545 0.00012207 24 0.00012207Z" fill="white"/>
<g clip-path="url(#clip0_2454_39383)">
<path d="M41.8253 19.5932C40.4577 13.6168 31.3702 10.5295 21.5241 12.6889C11.6781 14.8484 4.80572 21.4452 6.17339 27.4124C7.54105 33.3795 16.6285 36.4705 26.4746 34.3111C36.3206 32.1516 43.193 25.5585 41.8253 19.5932ZM24.9159 32.5961C15.5579 33.4999 7.55997 30.1607 7.05301 25.1362C6.54604 20.1118 13.723 15.3077 23.0829 14.4076C32.4427 13.5075 40.4387 16.843 40.9457 21.8656C41.4527 26.8882 34.2739 31.696 24.9159 32.6072" fill="#13CA60"/>
<path d="M20.0502 20.4755V28.4286H17.8248V20.4755H15V18.5714H22.875V20.4755H20.0502Z" fill="#092335"/>
<path d="M28.996 26.4367C29.4957 26.4466 29.9907 26.3392 30.4405 26.1232C30.8902 25.9072 31.282 25.5888 31.5836 25.194L32.9559 26.6018C32.5018 27.1356 31.9426 27.5722 31.3124 27.8848C30.6823 28.1974 29.9944 28.3795 29.2908 28.4199C28.5871 28.4604 27.8826 28.3583 27.2202 28.12C26.5577 27.8816 25.9513 27.5121 25.4379 27.0338C24.9665 26.58 24.5954 26.0342 24.3482 25.4308C24.101 24.8275 23.9831 24.1799 24.002 23.529C23.9863 22.8705 24.1089 22.2159 24.362 21.6068C24.6151 20.9976 24.9932 20.4472 25.4722 19.9903C25.9415 19.5263 26.501 19.1614 27.1168 18.9177C27.7326 18.6741 28.3919 18.5568 29.0548 18.5729C29.8047 18.5642 30.5472 18.7198 31.2293 19.0287C31.9113 19.3375 32.516 19.7918 33 20.3592L31.6768 21.8592C31.385 21.4672 31.0038 21.149 30.5644 20.9305C30.1249 20.712 29.6396 20.5994 29.1479 20.6019C28.3797 20.5857 27.6356 20.868 27.0748 21.3883C26.7863 21.658 26.5602 21.9864 26.4121 22.3509C26.2641 22.7155 26.1975 23.1075 26.2172 23.4999C26.1986 23.8913 26.2613 24.2823 26.4012 24.6488C26.5411 25.0153 26.7554 25.3496 27.0307 25.6309C27.2847 25.8919 27.5904 26.0981 27.9285 26.2367C28.2667 26.3754 28.6301 26.4435 28.996 26.4367Z" fill="#092335"/>
</g>
<defs>
<clipPath id="clip0_2454_39383">
<rect width="36" height="23" fill="white" transform="translate(6 12)"/>
</clipPath>
</defs>
</svg>
